M48
; DRILL file {KiCad 5.1.2-5.1.2} date Mon 03 Jun 2019 18:56:19 AEST
; FORMAT={-:-/ absolute / inch / decimal}
; #@! TF.CreationDate,2019-06-03T18:56:19+10:00
; #@! TF.GenerationSoftware,Kicad,Pcbnew,5.1.2-5.1.2
; #@! TF.FileFunction,Plated,1,2,PTH
FMAT,2
INCH
T1C0.0157
T2C0.0300
T3C0.0315
T4C0.0394
T5C0.0433
%
G90
G05
T1
X7.6Y-2.6443
X8.4398Y-2.6543
T2
X7.2Y-1.0
X7.2Y-1.6
X8.2Y-1.0
X8.2Y-1.6
T3
X8.0Y-2.4
X8.0Y-2.5
X8.0Y-2.6
X8.0Y-2.7
X8.0Y-2.8
X8.0Y-2.9
X8.0Y-3.0
X8.0Y-3.1
X8.0Y-3.2
X8.0Y-3.3
X8.3Y-2.4
X8.3Y-2.5
X8.3Y-2.6
X8.3Y-2.7
X8.3Y-2.8
X8.3Y-2.9
X8.3Y-3.0
X8.3Y-3.1
X8.3Y-3.2
X8.3Y-3.3
X9.0Y-1.4071
X9.0Y-1.6
X8.5031Y-2.0
X8.7Y-2.0
X8.7016Y-1.6
X8.8Y-1.6
X9.0016Y-2.0
X9.1Y-2.0
X9.5031Y-1.2
X9.7Y-1.2
X8.1031Y-2.2
X8.3Y-2.2
X10.1Y-1.7
X10.1Y-1.8
X10.1Y-1.9
X10.1Y-2.0
X10.1Y-2.1
X10.1Y-2.2
X10.1Y-2.3
X10.4Y-1.7
X10.4Y-1.8
X10.4Y-1.9
X10.4Y-2.0
X10.4Y-2.1
X10.4Y-2.2
X10.4Y-2.3
X9.3Y-1.4
X9.3Y-1.5
X9.3Y-1.6
X9.3Y-1.7
X9.3Y-1.8
X9.3Y-1.9
X9.3Y-2.0
X9.3Y-2.1
X9.3Y-2.2
X9.3Y-2.3
X9.3Y-2.4
X9.3Y-2.5
X9.3Y-2.6
X9.3Y-2.7
X9.3Y-2.8
X9.3Y-2.9
X9.3Y-3.0
X9.3Y-3.1
X9.3Y-3.2
X9.3Y-3.3
X9.9Y-1.4
X9.9Y-1.5
X9.9Y-1.6
X9.9Y-1.7
X9.9Y-1.8
X9.9Y-1.9
X9.9Y-2.0
X9.9Y-2.1
X9.9Y-2.2
X9.9Y-2.3
X9.9Y-2.4
X9.9Y-2.5
X9.9Y-2.6
X9.9Y-2.7
X9.9Y-2.8
X9.9Y-2.9
X9.9Y-3.0
X9.9Y-3.1
X9.9Y-3.2
X9.9Y-3.3
X8.7016Y-1.5
X8.8Y-1.5
X10.2Y-1.5
X10.3969Y-1.5
X10.2Y-2.5
X10.3969Y-2.5
X10.1Y-2.7
X10.1Y-2.8
X10.1Y-2.9
X10.1Y-3.0
X10.1Y-3.1
X10.1Y-3.2
X10.1Y-3.3
X10.4Y-2.7
X10.4Y-2.8
X10.4Y-2.9
X10.4Y-3.0
X10.4Y-3.1
X10.4Y-3.2
X10.4Y-3.3
X7.4031Y-1.8
X7.6Y-1.8
X8.5Y-1.4
X8.5Y-1.5
X8.5Y-1.6
X8.5Y-1.7
X8.5Y-1.8
X8.5Y-2.2
X8.5Y-2.3
X8.5Y-2.4
X8.5Y-2.5
X8.5Y-2.6
X8.5Y-2.7
X8.5Y-2.8
X8.5Y-2.9
X8.5Y-3.0
X8.5Y-3.1
X8.5Y-3.2
X8.5Y-3.3
X9.1Y-2.2
X9.1Y-2.3
X9.1Y-2.4
X9.1Y-2.5
X9.1Y-2.6
X9.1Y-2.7
X9.1Y-2.8
X9.1Y-2.9
X9.1Y-3.0
X9.1Y-3.1
X9.1Y-3.2
X9.1Y-3.3
X7.2Y-2.0
X7.2Y-2.1
X7.2Y-2.2
X7.2Y-2.3
X7.2Y-2.4
X7.2Y-2.5
X7.2Y-2.6
X7.2Y-2.7
X7.2Y-2.8
X7.2Y-2.9
X7.2Y-3.0
X7.2Y-3.1
X7.2Y-3.2
X7.2Y-3.3
X7.8Y-2.0
X7.8Y-2.1
X7.8Y-2.2
X7.8Y-2.3
X7.8Y-2.4
X7.8Y-2.5
X7.8Y-2.6
X7.8Y-2.7
X7.8Y-2.8
X7.8Y-2.9
X7.8Y-3.0
X7.8Y-3.1
X7.8Y-3.2
X7.8Y-3.3
T4
X10.6Y-1.7
X10.6Y-1.8
X10.6Y-1.9
X10.6Y-2.0
X10.6Y-2.1
X10.6Y-1.25
X10.6Y-1.35
X10.6Y-1.45
X10.6Y-1.55
X10.6Y-2.6
X10.6Y-2.7
X10.6Y-2.8
X10.6Y-2.9
X10.6Y-3.0
X10.6Y-3.1
X10.6Y-3.2
X10.6Y-3.3
X8.3Y-1.9
X8.3Y-2.0
X8.5Y-1.0
X8.6Y-1.0
X8.7Y-1.0
T5
X9.3Y-0.8
X9.3Y-0.9772
X9.5559Y-0.8
X9.5559Y-0.9772
X9.9041Y-0.8028
X9.9041Y-0.98
X10.16Y-0.8028
X10.16Y-0.98
T0
M30
