%TF.GenerationSoftware,KiCad,Pcbnew,5.1.2-5.1.2*%
%TF.CreationDate,2019-06-03T18:56:12+10:00*%
%TF.ProjectId,clock,636c6f63-6b2e-46b6-9963-61645f706362,1*%
%TF.SameCoordinates,Original*%
%TF.FileFunction,Legend,Top*%
%TF.FilePolarity,Positive*%
%FSLAX46Y46*%
G04 Gerber Fmt 4.6, Leading zero omitted, Abs format (unit mm)*
G04 Created by KiCad (PCBNEW 5.1.2-5.1.2) date 2019-06-03 18:56:12*
%MOMM*%
%LPD*%
G04 APERTURE LIST*
%ADD10C,0.300000*%
%ADD11C,0.120000*%
%ADD12C,0.150000*%
G04 APERTURE END LIST*
D10*
X217698571Y-16321428D02*
X217555714Y-16250000D01*
X217484285Y-16178571D01*
X217412857Y-16035714D01*
X217412857Y-15964285D01*
X217484285Y-15821428D01*
X217555714Y-15750000D01*
X217698571Y-15678571D01*
X217984285Y-15678571D01*
X218127142Y-15750000D01*
X218198571Y-15821428D01*
X218270000Y-15964285D01*
X218270000Y-16035714D01*
X218198571Y-16178571D01*
X218127142Y-16250000D01*
X217984285Y-16321428D01*
X217698571Y-16321428D01*
X217555714Y-16392857D01*
X217484285Y-16464285D01*
X217412857Y-16607142D01*
X217412857Y-16892857D01*
X217484285Y-17035714D01*
X217555714Y-17107142D01*
X217698571Y-17178571D01*
X217984285Y-17178571D01*
X218127142Y-17107142D01*
X218198571Y-17035714D01*
X218270000Y-16892857D01*
X218270000Y-16607142D01*
X218198571Y-16464285D01*
X218127142Y-16392857D01*
X217984285Y-16321428D01*
X219198571Y-15678571D02*
X219341428Y-15678571D01*
X219484285Y-15750000D01*
X219555714Y-15821428D01*
X219627142Y-15964285D01*
X219698571Y-16250000D01*
X219698571Y-16607142D01*
X219627142Y-16892857D01*
X219555714Y-17035714D01*
X219484285Y-17107142D01*
X219341428Y-17178571D01*
X219198571Y-17178571D01*
X219055714Y-17107142D01*
X218984285Y-17035714D01*
X218912857Y-16892857D01*
X218841428Y-16607142D01*
X218841428Y-16250000D01*
X218912857Y-15964285D01*
X218984285Y-15821428D01*
X219055714Y-15750000D01*
X219198571Y-15678571D01*
X220984285Y-16178571D02*
X220984285Y-17178571D01*
X220627142Y-15607142D02*
X220270000Y-16678571D01*
X221198571Y-16678571D01*
X221984285Y-16321428D02*
X221841428Y-16250000D01*
X221770000Y-16178571D01*
X221698571Y-16035714D01*
X221698571Y-15964285D01*
X221770000Y-15821428D01*
X221841428Y-15750000D01*
X221984285Y-15678571D01*
X222270000Y-15678571D01*
X222412857Y-15750000D01*
X222484285Y-15821428D01*
X222555714Y-15964285D01*
X222555714Y-16035714D01*
X222484285Y-16178571D01*
X222412857Y-16250000D01*
X222270000Y-16321428D01*
X221984285Y-16321428D01*
X221841428Y-16392857D01*
X221770000Y-16464285D01*
X221698571Y-16607142D01*
X221698571Y-16892857D01*
X221770000Y-17035714D01*
X221841428Y-17107142D01*
X221984285Y-17178571D01*
X222270000Y-17178571D01*
X222412857Y-17107142D01*
X222484285Y-17035714D01*
X222555714Y-16892857D01*
X222555714Y-16607142D01*
X222484285Y-16464285D01*
X222412857Y-16392857D01*
X222270000Y-16321428D01*
X224984285Y-17107142D02*
X224841428Y-17178571D01*
X224555714Y-17178571D01*
X224412857Y-17107142D01*
X224341428Y-17035714D01*
X224270000Y-16892857D01*
X224270000Y-16464285D01*
X224341428Y-16321428D01*
X224412857Y-16250000D01*
X224555714Y-16178571D01*
X224841428Y-16178571D01*
X224984285Y-16250000D01*
X225841428Y-17178571D02*
X225698571Y-17107142D01*
X225627142Y-16964285D01*
X225627142Y-15678571D01*
X226627142Y-17178571D02*
X226484285Y-17107142D01*
X226412857Y-17035714D01*
X226341428Y-16892857D01*
X226341428Y-16464285D01*
X226412857Y-16321428D01*
X226484285Y-16250000D01*
X226627142Y-16178571D01*
X226841428Y-16178571D01*
X226984285Y-16250000D01*
X227055714Y-16321428D01*
X227127142Y-16464285D01*
X227127142Y-16892857D01*
X227055714Y-17035714D01*
X226984285Y-17107142D01*
X226841428Y-17178571D01*
X226627142Y-17178571D01*
X228412857Y-17107142D02*
X228270000Y-17178571D01*
X227984285Y-17178571D01*
X227841428Y-17107142D01*
X227770000Y-17035714D01*
X227698571Y-16892857D01*
X227698571Y-16464285D01*
X227770000Y-16321428D01*
X227841428Y-16250000D01*
X227984285Y-16178571D01*
X228270000Y-16178571D01*
X228412857Y-16250000D01*
X229055714Y-17178571D02*
X229055714Y-15678571D01*
X229198571Y-16607142D02*
X229627142Y-17178571D01*
X229627142Y-16178571D02*
X229055714Y-16750000D01*
X219234285Y-19728571D02*
X219234285Y-18228571D01*
X220091428Y-19728571D02*
X219448571Y-18871428D01*
X220091428Y-18228571D02*
X219234285Y-19085714D01*
X221305714Y-19657142D02*
X221162857Y-19728571D01*
X220877142Y-19728571D01*
X220734285Y-19657142D01*
X220662857Y-19514285D01*
X220662857Y-18942857D01*
X220734285Y-18800000D01*
X220877142Y-18728571D01*
X221162857Y-18728571D01*
X221305714Y-18800000D01*
X221377142Y-18942857D01*
X221377142Y-19085714D01*
X220662857Y-19228571D01*
X222020000Y-18728571D02*
X222020000Y-19728571D01*
X222020000Y-18871428D02*
X222091428Y-18800000D01*
X222234285Y-18728571D01*
X222448571Y-18728571D01*
X222591428Y-18800000D01*
X222662857Y-18942857D01*
X222662857Y-19728571D01*
X224805714Y-19014285D02*
X224805714Y-19728571D01*
X224305714Y-18228571D02*
X224805714Y-19014285D01*
X225305714Y-18228571D01*
X226448571Y-19728571D02*
X226448571Y-18942857D01*
X226377142Y-18800000D01*
X226234285Y-18728571D01*
X225948571Y-18728571D01*
X225805714Y-18800000D01*
X226448571Y-19657142D02*
X226305714Y-19728571D01*
X225948571Y-19728571D01*
X225805714Y-19657142D01*
X225734285Y-19514285D01*
X225734285Y-19371428D01*
X225805714Y-19228571D01*
X225948571Y-19157142D01*
X226305714Y-19157142D01*
X226448571Y-19085714D01*
X227162857Y-18728571D02*
X227162857Y-20228571D01*
X227162857Y-18800000D02*
X227305714Y-18728571D01*
X227591428Y-18728571D01*
X227734285Y-18800000D01*
X227805714Y-18871428D01*
X227877142Y-19014285D01*
X227877142Y-19442857D01*
X227805714Y-19585714D01*
X227734285Y-19657142D01*
X227591428Y-19728571D01*
X227305714Y-19728571D01*
X227162857Y-19657142D01*
X220948571Y-20921428D02*
X221020000Y-20850000D01*
X221162857Y-20778571D01*
X221520000Y-20778571D01*
X221662857Y-20850000D01*
X221734285Y-20921428D01*
X221805714Y-21064285D01*
X221805714Y-21207142D01*
X221734285Y-21421428D01*
X220877142Y-22278571D01*
X221805714Y-22278571D01*
X222734285Y-20778571D02*
X222877142Y-20778571D01*
X223020000Y-20850000D01*
X223091428Y-20921428D01*
X223162857Y-21064285D01*
X223234285Y-21350000D01*
X223234285Y-21707142D01*
X223162857Y-21992857D01*
X223091428Y-22135714D01*
X223020000Y-22207142D01*
X222877142Y-22278571D01*
X222734285Y-22278571D01*
X222591428Y-22207142D01*
X222520000Y-22135714D01*
X222448571Y-21992857D01*
X222377142Y-21707142D01*
X222377142Y-21350000D01*
X222448571Y-21064285D01*
X222520000Y-20921428D01*
X222591428Y-20850000D01*
X222734285Y-20778571D01*
X224662857Y-22278571D02*
X223805714Y-22278571D01*
X224234285Y-22278571D02*
X224234285Y-20778571D01*
X224091428Y-20992857D01*
X223948571Y-21135714D01*
X223805714Y-21207142D01*
X225377142Y-22278571D02*
X225662857Y-22278571D01*
X225805714Y-22207142D01*
X225877142Y-22135714D01*
X226020000Y-21921428D01*
X226091428Y-21635714D01*
X226091428Y-21064285D01*
X226020000Y-20921428D01*
X225948571Y-20850000D01*
X225805714Y-20778571D01*
X225520000Y-20778571D01*
X225377142Y-20850000D01*
X225305714Y-20921428D01*
X225234285Y-21064285D01*
X225234285Y-21421428D01*
X225305714Y-21564285D01*
X225377142Y-21635714D01*
X225520000Y-21707142D01*
X225805714Y-21707142D01*
X225948571Y-21635714D01*
X226020000Y-21564285D01*
X226091428Y-21421428D01*
D11*
X231125000Y-35065000D02*
G75*
G03X226075000Y-35065000I-2525000J0D01*
G01*
X231125000Y-41315000D02*
G75*
G02X226075000Y-41315000I-2525000J0D01*
G01*
X231125000Y-41315000D02*
X231125000Y-35065000D01*
X226075000Y-41315000D02*
X226075000Y-35065000D01*
X267910000Y-30420000D02*
X269240000Y-30420000D01*
X267910000Y-31750000D02*
X267910000Y-30420000D01*
X267910000Y-33020000D02*
X270570000Y-33020000D01*
X270570000Y-33020000D02*
X270570000Y-40700000D01*
X267910000Y-33020000D02*
X267910000Y-40700000D01*
X267910000Y-40700000D02*
X270570000Y-40700000D01*
X222899000Y-37180000D02*
X221641000Y-37180000D01*
X222899000Y-39020000D02*
X221641000Y-39020000D01*
X222899000Y-39720000D02*
X221641000Y-39720000D01*
X222899000Y-41560000D02*
X221641000Y-41560000D01*
X267910000Y-41850000D02*
X269240000Y-41850000D01*
X267910000Y-43180000D02*
X267910000Y-41850000D01*
X267910000Y-44450000D02*
X270570000Y-44450000D01*
X270570000Y-44450000D02*
X270570000Y-54670000D01*
X267910000Y-44450000D02*
X267910000Y-54670000D01*
X267910000Y-54670000D02*
X270570000Y-54670000D01*
X180340000Y-41910000D02*
X180340000Y-24130000D01*
X181610000Y-41910000D02*
X180340000Y-41910000D01*
X210820000Y-41910000D02*
X181610000Y-41910000D01*
X210820000Y-24130000D02*
X210820000Y-41910000D01*
X180340000Y-24130000D02*
X210820000Y-24130000D01*
X265200000Y-36730000D02*
X265200000Y-39470000D01*
X257960000Y-36730000D02*
X257960000Y-39470000D01*
X257960000Y-39470000D02*
X265200000Y-39470000D01*
X257960000Y-36730000D02*
X265200000Y-36730000D01*
X265200000Y-62130000D02*
X265200000Y-64870000D01*
X257960000Y-62130000D02*
X257960000Y-64870000D01*
X257960000Y-64870000D02*
X265200000Y-64870000D01*
X257960000Y-62130000D02*
X265200000Y-62130000D01*
X214860000Y-52170000D02*
X214860000Y-49430000D01*
X222100000Y-52170000D02*
X222100000Y-49430000D01*
X222100000Y-49430000D02*
X214860000Y-49430000D01*
X222100000Y-52170000D02*
X214860000Y-52170000D01*
X204700000Y-57250000D02*
X204700000Y-54510000D01*
X211940000Y-57250000D02*
X211940000Y-54510000D01*
X211940000Y-54510000D02*
X204700000Y-54510000D01*
X211940000Y-57250000D02*
X204700000Y-57250000D01*
X240260000Y-31850000D02*
X240260000Y-29110000D01*
X247500000Y-31850000D02*
X247500000Y-29110000D01*
X247500000Y-29110000D02*
X240260000Y-29110000D01*
X247500000Y-31850000D02*
X240260000Y-31850000D01*
X186920000Y-47090000D02*
X186920000Y-44350000D01*
X194160000Y-47090000D02*
X194160000Y-44350000D01*
X194160000Y-44350000D02*
X186920000Y-44350000D01*
X194160000Y-47090000D02*
X186920000Y-47090000D01*
X232444775Y-52525000D02*
X232444775Y-52025000D01*
X232694775Y-52275000D02*
X232194775Y-52275000D01*
X227289000Y-51084000D02*
X227289000Y-50516000D01*
X227329000Y-51318000D02*
X227329000Y-50282000D01*
X227369000Y-51477000D02*
X227369000Y-50123000D01*
X227409000Y-51605000D02*
X227409000Y-49995000D01*
X227449000Y-51715000D02*
X227449000Y-49885000D01*
X227489000Y-51811000D02*
X227489000Y-49789000D01*
X227529000Y-51898000D02*
X227529000Y-49702000D01*
X227569000Y-51978000D02*
X227569000Y-49622000D01*
X227609000Y-49760000D02*
X227609000Y-49549000D01*
X227609000Y-52051000D02*
X227609000Y-51840000D01*
X227649000Y-49760000D02*
X227649000Y-49481000D01*
X227649000Y-52119000D02*
X227649000Y-51840000D01*
X227689000Y-49760000D02*
X227689000Y-49417000D01*
X227689000Y-52183000D02*
X227689000Y-51840000D01*
X227729000Y-49760000D02*
X227729000Y-49357000D01*
X227729000Y-52243000D02*
X227729000Y-51840000D01*
X227769000Y-49760000D02*
X227769000Y-49300000D01*
X227769000Y-52300000D02*
X227769000Y-51840000D01*
X227809000Y-49760000D02*
X227809000Y-49246000D01*
X227809000Y-52354000D02*
X227809000Y-51840000D01*
X227849000Y-49760000D02*
X227849000Y-49195000D01*
X227849000Y-52405000D02*
X227849000Y-51840000D01*
X227889000Y-49760000D02*
X227889000Y-49147000D01*
X227889000Y-52453000D02*
X227889000Y-51840000D01*
X227929000Y-49760000D02*
X227929000Y-49101000D01*
X227929000Y-52499000D02*
X227929000Y-51840000D01*
X227969000Y-49760000D02*
X227969000Y-49057000D01*
X227969000Y-52543000D02*
X227969000Y-51840000D01*
X228009000Y-49760000D02*
X228009000Y-49015000D01*
X228009000Y-52585000D02*
X228009000Y-51840000D01*
X228049000Y-49760000D02*
X228049000Y-48974000D01*
X228049000Y-52626000D02*
X228049000Y-51840000D01*
X228089000Y-49760000D02*
X228089000Y-48936000D01*
X228089000Y-52664000D02*
X228089000Y-51840000D01*
X228129000Y-49760000D02*
X228129000Y-48899000D01*
X228129000Y-52701000D02*
X228129000Y-51840000D01*
X228169000Y-49760000D02*
X228169000Y-48863000D01*
X228169000Y-52737000D02*
X228169000Y-51840000D01*
X228209000Y-49760000D02*
X228209000Y-48829000D01*
X228209000Y-52771000D02*
X228209000Y-51840000D01*
X228249000Y-49760000D02*
X228249000Y-48796000D01*
X228249000Y-52804000D02*
X228249000Y-51840000D01*
X228289000Y-49760000D02*
X228289000Y-48765000D01*
X228289000Y-52835000D02*
X228289000Y-51840000D01*
X228329000Y-49760000D02*
X228329000Y-48735000D01*
X228329000Y-52865000D02*
X228329000Y-51840000D01*
X228369000Y-49760000D02*
X228369000Y-48705000D01*
X228369000Y-52895000D02*
X228369000Y-51840000D01*
X228409000Y-49760000D02*
X228409000Y-48678000D01*
X228409000Y-52922000D02*
X228409000Y-51840000D01*
X228449000Y-49760000D02*
X228449000Y-48651000D01*
X228449000Y-52949000D02*
X228449000Y-51840000D01*
X228489000Y-49760000D02*
X228489000Y-48625000D01*
X228489000Y-52975000D02*
X228489000Y-51840000D01*
X228529000Y-49760000D02*
X228529000Y-48600000D01*
X228529000Y-53000000D02*
X228529000Y-51840000D01*
X228569000Y-49760000D02*
X228569000Y-48576000D01*
X228569000Y-53024000D02*
X228569000Y-51840000D01*
X228609000Y-49760000D02*
X228609000Y-48553000D01*
X228609000Y-53047000D02*
X228609000Y-51840000D01*
X228649000Y-49760000D02*
X228649000Y-48532000D01*
X228649000Y-53068000D02*
X228649000Y-51840000D01*
X228689000Y-49760000D02*
X228689000Y-48510000D01*
X228689000Y-53090000D02*
X228689000Y-51840000D01*
X228729000Y-49760000D02*
X228729000Y-48490000D01*
X228729000Y-53110000D02*
X228729000Y-51840000D01*
X228769000Y-49760000D02*
X228769000Y-48471000D01*
X228769000Y-53129000D02*
X228769000Y-51840000D01*
X228809000Y-49760000D02*
X228809000Y-48452000D01*
X228809000Y-53148000D02*
X228809000Y-51840000D01*
X228849000Y-49760000D02*
X228849000Y-48435000D01*
X228849000Y-53165000D02*
X228849000Y-51840000D01*
X228889000Y-49760000D02*
X228889000Y-48418000D01*
X228889000Y-53182000D02*
X228889000Y-51840000D01*
X228929000Y-49760000D02*
X228929000Y-48402000D01*
X228929000Y-53198000D02*
X228929000Y-51840000D01*
X228969000Y-49760000D02*
X228969000Y-48386000D01*
X228969000Y-53214000D02*
X228969000Y-51840000D01*
X229009000Y-49760000D02*
X229009000Y-48372000D01*
X229009000Y-53228000D02*
X229009000Y-51840000D01*
X229049000Y-49760000D02*
X229049000Y-48358000D01*
X229049000Y-53242000D02*
X229049000Y-51840000D01*
X229089000Y-49760000D02*
X229089000Y-48345000D01*
X229089000Y-53255000D02*
X229089000Y-51840000D01*
X229129000Y-49760000D02*
X229129000Y-48332000D01*
X229129000Y-53268000D02*
X229129000Y-51840000D01*
X229169000Y-49760000D02*
X229169000Y-48320000D01*
X229169000Y-53280000D02*
X229169000Y-51840000D01*
X229210000Y-49760000D02*
X229210000Y-48309000D01*
X229210000Y-53291000D02*
X229210000Y-51840000D01*
X229250000Y-49760000D02*
X229250000Y-48299000D01*
X229250000Y-53301000D02*
X229250000Y-51840000D01*
X229290000Y-49760000D02*
X229290000Y-48289000D01*
X229290000Y-53311000D02*
X229290000Y-51840000D01*
X229330000Y-49760000D02*
X229330000Y-48280000D01*
X229330000Y-53320000D02*
X229330000Y-51840000D01*
X229370000Y-49760000D02*
X229370000Y-48272000D01*
X229370000Y-53328000D02*
X229370000Y-51840000D01*
X229410000Y-49760000D02*
X229410000Y-48264000D01*
X229410000Y-53336000D02*
X229410000Y-51840000D01*
X229450000Y-49760000D02*
X229450000Y-48257000D01*
X229450000Y-53343000D02*
X229450000Y-51840000D01*
X229490000Y-49760000D02*
X229490000Y-48250000D01*
X229490000Y-53350000D02*
X229490000Y-51840000D01*
X229530000Y-49760000D02*
X229530000Y-48244000D01*
X229530000Y-53356000D02*
X229530000Y-51840000D01*
X229570000Y-49760000D02*
X229570000Y-48239000D01*
X229570000Y-53361000D02*
X229570000Y-51840000D01*
X229610000Y-49760000D02*
X229610000Y-48235000D01*
X229610000Y-53365000D02*
X229610000Y-51840000D01*
X229650000Y-49760000D02*
X229650000Y-48231000D01*
X229650000Y-53369000D02*
X229650000Y-51840000D01*
X229690000Y-53373000D02*
X229690000Y-48227000D01*
X229730000Y-53376000D02*
X229730000Y-48224000D01*
X229770000Y-53378000D02*
X229770000Y-48222000D01*
X229810000Y-53379000D02*
X229810000Y-48221000D01*
X229850000Y-53380000D02*
X229850000Y-48220000D01*
X229890000Y-53380000D02*
X229890000Y-48220000D01*
X232510000Y-50800000D02*
G75*
G03X232510000Y-50800000I-2620000J0D01*
G01*
X270570000Y-85150000D02*
X269240000Y-85150000D01*
X270570000Y-83820000D02*
X270570000Y-85150000D01*
X270570000Y-82550000D02*
X267910000Y-82550000D01*
X267910000Y-82550000D02*
X267910000Y-64710000D01*
X270570000Y-82550000D02*
X270570000Y-64710000D01*
X270570000Y-64710000D02*
X267910000Y-64710000D01*
X222310000Y-24070000D02*
X222310000Y-25400000D01*
X220980000Y-24070000D02*
X222310000Y-24070000D01*
X219710000Y-24070000D02*
X219710000Y-26730000D01*
X219710000Y-26730000D02*
X214570000Y-26730000D01*
X219710000Y-24070000D02*
X214570000Y-24070000D01*
X214570000Y-24070000D02*
X214570000Y-26730000D01*
X209490000Y-46930000D02*
X210820000Y-46930000D01*
X209490000Y-48260000D02*
X209490000Y-46930000D01*
X209490000Y-49530000D02*
X212150000Y-49530000D01*
X212150000Y-49530000D02*
X212150000Y-52130000D01*
X209490000Y-49530000D02*
X209490000Y-52130000D01*
X209490000Y-52130000D02*
X212150000Y-52130000D01*
X217300000Y-36830000D02*
X214500000Y-36830000D01*
X217300000Y-47160000D02*
X217300000Y-34120000D01*
X214500000Y-47160000D02*
X217300000Y-47160000D01*
X214500000Y-34120000D02*
X214500000Y-47160000D01*
X217300000Y-34120000D02*
X214500000Y-34120000D01*
X251314000Y-21892000D02*
X251314000Y-23392000D01*
X252564000Y-25892000D02*
X257064000Y-25892000D01*
X258314000Y-23392000D02*
X258314000Y-21892000D01*
X257064000Y-19392000D02*
X252564000Y-19392000D01*
X242970000Y-23320000D02*
X242970000Y-21820000D01*
X241720000Y-19320000D02*
X237220000Y-19320000D01*
X235970000Y-21820000D02*
X235970000Y-23320000D01*
X237220000Y-25820000D02*
X241720000Y-25820000D01*
X250300000Y-34230000D02*
X244840000Y-34230000D01*
X250300000Y-85150000D02*
X250300000Y-34230000D01*
X237380000Y-85150000D02*
X250300000Y-85150000D01*
X237380000Y-34230000D02*
X237380000Y-85150000D01*
X242840000Y-34230000D02*
X237380000Y-34230000D01*
X244840000Y-34230000D02*
G75*
G02X242840000Y-34230000I-1000000J0D01*
G01*
X196960000Y-49470000D02*
X191500000Y-49470000D01*
X196960000Y-85150000D02*
X196960000Y-49470000D01*
X184040000Y-85150000D02*
X196960000Y-85150000D01*
X184040000Y-49470000D02*
X184040000Y-85150000D01*
X189500000Y-49470000D02*
X184040000Y-49470000D01*
X191500000Y-49470000D02*
G75*
G02X189500000Y-49470000I-1000000J0D01*
G01*
X209660000Y-59630000D02*
X208010000Y-59630000D01*
X209660000Y-85150000D02*
X209660000Y-59630000D01*
X204360000Y-85150000D02*
X209660000Y-85150000D01*
X204360000Y-59630000D02*
X204360000Y-85150000D01*
X206010000Y-59630000D02*
X204360000Y-59630000D01*
X208010000Y-59630000D02*
G75*
G02X206010000Y-59630000I-1000000J0D01*
G01*
X229980000Y-54550000D02*
X224520000Y-54550000D01*
X229980000Y-85150000D02*
X229980000Y-54550000D01*
X217060000Y-85150000D02*
X229980000Y-85150000D01*
X217060000Y-54550000D02*
X217060000Y-85150000D01*
X222520000Y-54550000D02*
X217060000Y-54550000D01*
X224520000Y-54550000D02*
G75*
G02X222520000Y-54550000I-1000000J0D01*
G01*
X263000000Y-67250000D02*
X261350000Y-67250000D01*
X263000000Y-85150000D02*
X263000000Y-67250000D01*
X257700000Y-85150000D02*
X263000000Y-85150000D01*
X257700000Y-67250000D02*
X257700000Y-85150000D01*
X259350000Y-67250000D02*
X257700000Y-67250000D01*
X261350000Y-67250000D02*
G75*
G02X259350000Y-67250000I-1000000J0D01*
G01*
X263000000Y-41850000D02*
X261350000Y-41850000D01*
X263000000Y-59750000D02*
X263000000Y-41850000D01*
X257700000Y-59750000D02*
X263000000Y-59750000D01*
X257700000Y-41850000D02*
X257700000Y-59750000D01*
X259350000Y-41850000D02*
X257700000Y-41850000D01*
X261350000Y-41850000D02*
G75*
G02X259350000Y-41850000I-1000000J0D01*
G01*
D12*
X225051190Y-38666190D02*
X225527380Y-38666190D01*
X224527380Y-38999523D02*
X225051190Y-38666190D01*
X224527380Y-38332857D01*
X225527380Y-37475714D02*
X225527380Y-38047142D01*
X225527380Y-37761428D02*
X224527380Y-37761428D01*
X224670238Y-37856666D01*
X224765476Y-37951904D01*
X224813095Y-38047142D01*
X268906666Y-28872380D02*
X268906666Y-29586666D01*
X268859047Y-29729523D01*
X268763809Y-29824761D01*
X268620952Y-29872380D01*
X268525714Y-29872380D01*
X269287619Y-28872380D02*
X269906666Y-28872380D01*
X269573333Y-29253333D01*
X269716190Y-29253333D01*
X269811428Y-29300952D01*
X269859047Y-29348571D01*
X269906666Y-29443809D01*
X269906666Y-29681904D01*
X269859047Y-29777142D01*
X269811428Y-29824761D01*
X269716190Y-29872380D01*
X269430476Y-29872380D01*
X269335238Y-29824761D01*
X269287619Y-29777142D01*
X223353333Y-35917142D02*
X223305714Y-35964761D01*
X223162857Y-36012380D01*
X223067619Y-36012380D01*
X222924761Y-35964761D01*
X222829523Y-35869523D01*
X222781904Y-35774285D01*
X222734285Y-35583809D01*
X222734285Y-35440952D01*
X222781904Y-35250476D01*
X222829523Y-35155238D01*
X222924761Y-35060000D01*
X223067619Y-35012380D01*
X223162857Y-35012380D01*
X223305714Y-35060000D01*
X223353333Y-35107619D01*
X223924761Y-35440952D02*
X223829523Y-35393333D01*
X223781904Y-35345714D01*
X223734285Y-35250476D01*
X223734285Y-35202857D01*
X223781904Y-35107619D01*
X223829523Y-35060000D01*
X223924761Y-35012380D01*
X224115238Y-35012380D01*
X224210476Y-35060000D01*
X224258095Y-35107619D01*
X224305714Y-35202857D01*
X224305714Y-35250476D01*
X224258095Y-35345714D01*
X224210476Y-35393333D01*
X224115238Y-35440952D01*
X223924761Y-35440952D01*
X223829523Y-35488571D01*
X223781904Y-35536190D01*
X223734285Y-35631428D01*
X223734285Y-35821904D01*
X223781904Y-35917142D01*
X223829523Y-35964761D01*
X223924761Y-36012380D01*
X224115238Y-36012380D01*
X224210476Y-35964761D01*
X224258095Y-35917142D01*
X224305714Y-35821904D01*
X224305714Y-35631428D01*
X224258095Y-35536190D01*
X224210476Y-35488571D01*
X224115238Y-35440952D01*
X223353333Y-43537142D02*
X223305714Y-43584761D01*
X223162857Y-43632380D01*
X223067619Y-43632380D01*
X222924761Y-43584761D01*
X222829523Y-43489523D01*
X222781904Y-43394285D01*
X222734285Y-43203809D01*
X222734285Y-43060952D01*
X222781904Y-42870476D01*
X222829523Y-42775238D01*
X222924761Y-42680000D01*
X223067619Y-42632380D01*
X223162857Y-42632380D01*
X223305714Y-42680000D01*
X223353333Y-42727619D01*
X223686666Y-42632380D02*
X224353333Y-42632380D01*
X223924761Y-43632380D01*
X268906666Y-40302380D02*
X268906666Y-41016666D01*
X268859047Y-41159523D01*
X268763809Y-41254761D01*
X268620952Y-41302380D01*
X268525714Y-41302380D01*
X269335238Y-40397619D02*
X269382857Y-40350000D01*
X269478095Y-40302380D01*
X269716190Y-40302380D01*
X269811428Y-40350000D01*
X269859047Y-40397619D01*
X269906666Y-40492857D01*
X269906666Y-40588095D01*
X269859047Y-40730952D01*
X269287619Y-41302380D01*
X269906666Y-41302380D01*
X194818095Y-22312380D02*
X194818095Y-23121904D01*
X194865714Y-23217142D01*
X194913333Y-23264761D01*
X195008571Y-23312380D01*
X195199047Y-23312380D01*
X195294285Y-23264761D01*
X195341904Y-23217142D01*
X195389523Y-23121904D01*
X195389523Y-22312380D01*
X195770476Y-22312380D02*
X196437142Y-22312380D01*
X196008571Y-23312380D01*
X202327142Y-40092380D02*
X202660476Y-41092380D01*
X202993809Y-40092380D01*
X203470000Y-41092380D02*
X203374761Y-41044761D01*
X203327142Y-40997142D01*
X203279523Y-40901904D01*
X203279523Y-40616190D01*
X203327142Y-40520952D01*
X203374761Y-40473333D01*
X203470000Y-40425714D01*
X203612857Y-40425714D01*
X203708095Y-40473333D01*
X203755714Y-40520952D01*
X203803333Y-40616190D01*
X203803333Y-40901904D01*
X203755714Y-40997142D01*
X203708095Y-41044761D01*
X203612857Y-41092380D01*
X203470000Y-41092380D01*
X204660476Y-40425714D02*
X204660476Y-41092380D01*
X204231904Y-40425714D02*
X204231904Y-40949523D01*
X204279523Y-41044761D01*
X204374761Y-41092380D01*
X204517619Y-41092380D01*
X204612857Y-41044761D01*
X204660476Y-40997142D01*
X204993809Y-40425714D02*
X205374761Y-40425714D01*
X205136666Y-40092380D02*
X205136666Y-40949523D01*
X205184285Y-41044761D01*
X205279523Y-41092380D01*
X205374761Y-41092380D01*
X205708095Y-40711428D02*
X206470000Y-40711428D01*
X202327142Y-24852380D02*
X202660476Y-25852380D01*
X202993809Y-24852380D01*
X203470000Y-25852380D02*
X203374761Y-25804761D01*
X203327142Y-25757142D01*
X203279523Y-25661904D01*
X203279523Y-25376190D01*
X203327142Y-25280952D01*
X203374761Y-25233333D01*
X203470000Y-25185714D01*
X203612857Y-25185714D01*
X203708095Y-25233333D01*
X203755714Y-25280952D01*
X203803333Y-25376190D01*
X203803333Y-25661904D01*
X203755714Y-25757142D01*
X203708095Y-25804761D01*
X203612857Y-25852380D01*
X203470000Y-25852380D01*
X204660476Y-25185714D02*
X204660476Y-25852380D01*
X204231904Y-25185714D02*
X204231904Y-25709523D01*
X204279523Y-25804761D01*
X204374761Y-25852380D01*
X204517619Y-25852380D01*
X204612857Y-25804761D01*
X204660476Y-25757142D01*
X204993809Y-25185714D02*
X205374761Y-25185714D01*
X205136666Y-24852380D02*
X205136666Y-25709523D01*
X205184285Y-25804761D01*
X205279523Y-25852380D01*
X205374761Y-25852380D01*
X205708095Y-25471428D02*
X206470000Y-25471428D01*
X206089047Y-25852380D02*
X206089047Y-25090476D01*
X183777142Y-24852380D02*
X184110476Y-25852380D01*
X184443809Y-24852380D01*
X184777142Y-25852380D02*
X184777142Y-25185714D01*
X184777142Y-24852380D02*
X184729523Y-24900000D01*
X184777142Y-24947619D01*
X184824761Y-24900000D01*
X184777142Y-24852380D01*
X184777142Y-24947619D01*
X185253333Y-25185714D02*
X185253333Y-25852380D01*
X185253333Y-25280952D02*
X185300952Y-25233333D01*
X185396190Y-25185714D01*
X185539047Y-25185714D01*
X185634285Y-25233333D01*
X185681904Y-25328571D01*
X185681904Y-25852380D01*
X186158095Y-25471428D02*
X186920000Y-25471428D01*
X186539047Y-25852380D02*
X186539047Y-25090476D01*
X183777142Y-40092380D02*
X184110476Y-41092380D01*
X184443809Y-40092380D01*
X184777142Y-41092380D02*
X184777142Y-40425714D01*
X184777142Y-40092380D02*
X184729523Y-40140000D01*
X184777142Y-40187619D01*
X184824761Y-40140000D01*
X184777142Y-40092380D01*
X184777142Y-40187619D01*
X185253333Y-40425714D02*
X185253333Y-41092380D01*
X185253333Y-40520952D02*
X185300952Y-40473333D01*
X185396190Y-40425714D01*
X185539047Y-40425714D01*
X185634285Y-40473333D01*
X185681904Y-40568571D01*
X185681904Y-41092380D01*
X186158095Y-40711428D02*
X186920000Y-40711428D01*
X261453333Y-35917142D02*
X261405714Y-35964761D01*
X261262857Y-36012380D01*
X261167619Y-36012380D01*
X261024761Y-35964761D01*
X260929523Y-35869523D01*
X260881904Y-35774285D01*
X260834285Y-35583809D01*
X260834285Y-35440952D01*
X260881904Y-35250476D01*
X260929523Y-35155238D01*
X261024761Y-35060000D01*
X261167619Y-35012380D01*
X261262857Y-35012380D01*
X261405714Y-35060000D01*
X261453333Y-35107619D01*
X262310476Y-35012380D02*
X262120000Y-35012380D01*
X262024761Y-35060000D01*
X261977142Y-35107619D01*
X261881904Y-35250476D01*
X261834285Y-35440952D01*
X261834285Y-35821904D01*
X261881904Y-35917142D01*
X261929523Y-35964761D01*
X262024761Y-36012380D01*
X262215238Y-36012380D01*
X262310476Y-35964761D01*
X262358095Y-35917142D01*
X262405714Y-35821904D01*
X262405714Y-35583809D01*
X262358095Y-35488571D01*
X262310476Y-35440952D01*
X262215238Y-35393333D01*
X262024761Y-35393333D01*
X261929523Y-35440952D01*
X261881904Y-35488571D01*
X261834285Y-35583809D01*
X261413333Y-61357142D02*
X261365714Y-61404761D01*
X261222857Y-61452380D01*
X261127619Y-61452380D01*
X260984761Y-61404761D01*
X260889523Y-61309523D01*
X260841904Y-61214285D01*
X260794285Y-61023809D01*
X260794285Y-60880952D01*
X260841904Y-60690476D01*
X260889523Y-60595238D01*
X260984761Y-60500000D01*
X261127619Y-60452380D01*
X261222857Y-60452380D01*
X261365714Y-60500000D01*
X261413333Y-60547619D01*
X262318095Y-60452380D02*
X261841904Y-60452380D01*
X261794285Y-60928571D01*
X261841904Y-60880952D01*
X261937142Y-60833333D01*
X262175238Y-60833333D01*
X262270476Y-60880952D01*
X262318095Y-60928571D01*
X262365714Y-61023809D01*
X262365714Y-61261904D01*
X262318095Y-61357142D01*
X262270476Y-61404761D01*
X262175238Y-61452380D01*
X261937142Y-61452380D01*
X261841904Y-61404761D01*
X261794285Y-61357142D01*
X218273333Y-48617142D02*
X218225714Y-48664761D01*
X218082857Y-48712380D01*
X217987619Y-48712380D01*
X217844761Y-48664761D01*
X217749523Y-48569523D01*
X217701904Y-48474285D01*
X217654285Y-48283809D01*
X217654285Y-48140952D01*
X217701904Y-47950476D01*
X217749523Y-47855238D01*
X217844761Y-47760000D01*
X217987619Y-47712380D01*
X218082857Y-47712380D01*
X218225714Y-47760000D01*
X218273333Y-47807619D01*
X219130476Y-48045714D02*
X219130476Y-48712380D01*
X218892380Y-47664761D02*
X218654285Y-48379047D01*
X219273333Y-48379047D01*
X208153333Y-53697142D02*
X208105714Y-53744761D01*
X207962857Y-53792380D01*
X207867619Y-53792380D01*
X207724761Y-53744761D01*
X207629523Y-53649523D01*
X207581904Y-53554285D01*
X207534285Y-53363809D01*
X207534285Y-53220952D01*
X207581904Y-53030476D01*
X207629523Y-52935238D01*
X207724761Y-52840000D01*
X207867619Y-52792380D01*
X207962857Y-52792380D01*
X208105714Y-52840000D01*
X208153333Y-52887619D01*
X208486666Y-52792380D02*
X209105714Y-52792380D01*
X208772380Y-53173333D01*
X208915238Y-53173333D01*
X209010476Y-53220952D01*
X209058095Y-53268571D01*
X209105714Y-53363809D01*
X209105714Y-53601904D01*
X209058095Y-53697142D01*
X209010476Y-53744761D01*
X208915238Y-53792380D01*
X208629523Y-53792380D01*
X208534285Y-53744761D01*
X208486666Y-53697142D01*
X243673333Y-28297142D02*
X243625714Y-28344761D01*
X243482857Y-28392380D01*
X243387619Y-28392380D01*
X243244761Y-28344761D01*
X243149523Y-28249523D01*
X243101904Y-28154285D01*
X243054285Y-27963809D01*
X243054285Y-27820952D01*
X243101904Y-27630476D01*
X243149523Y-27535238D01*
X243244761Y-27440000D01*
X243387619Y-27392380D01*
X243482857Y-27392380D01*
X243625714Y-27440000D01*
X243673333Y-27487619D01*
X244625714Y-28392380D02*
X244054285Y-28392380D01*
X244340000Y-28392380D02*
X244340000Y-27392380D01*
X244244761Y-27535238D01*
X244149523Y-27630476D01*
X244054285Y-27678095D01*
X190373333Y-43537142D02*
X190325714Y-43584761D01*
X190182857Y-43632380D01*
X190087619Y-43632380D01*
X189944761Y-43584761D01*
X189849523Y-43489523D01*
X189801904Y-43394285D01*
X189754285Y-43203809D01*
X189754285Y-43060952D01*
X189801904Y-42870476D01*
X189849523Y-42775238D01*
X189944761Y-42680000D01*
X190087619Y-42632380D01*
X190182857Y-42632380D01*
X190325714Y-42680000D01*
X190373333Y-42727619D01*
X190754285Y-42727619D02*
X190801904Y-42680000D01*
X190897142Y-42632380D01*
X191135238Y-42632380D01*
X191230476Y-42680000D01*
X191278095Y-42727619D01*
X191325714Y-42822857D01*
X191325714Y-42918095D01*
X191278095Y-43060952D01*
X190706666Y-43632380D01*
X191325714Y-43632380D01*
X229723333Y-46077142D02*
X229675714Y-46124761D01*
X229532857Y-46172380D01*
X229437619Y-46172380D01*
X229294761Y-46124761D01*
X229199523Y-46029523D01*
X229151904Y-45934285D01*
X229104285Y-45743809D01*
X229104285Y-45600952D01*
X229151904Y-45410476D01*
X229199523Y-45315238D01*
X229294761Y-45220000D01*
X229437619Y-45172380D01*
X229532857Y-45172380D01*
X229675714Y-45220000D01*
X229723333Y-45267619D01*
X230199523Y-46172380D02*
X230390000Y-46172380D01*
X230485238Y-46124761D01*
X230532857Y-46077142D01*
X230628095Y-45934285D01*
X230675714Y-45743809D01*
X230675714Y-45362857D01*
X230628095Y-45267619D01*
X230580476Y-45220000D01*
X230485238Y-45172380D01*
X230294761Y-45172380D01*
X230199523Y-45220000D01*
X230151904Y-45267619D01*
X230104285Y-45362857D01*
X230104285Y-45600952D01*
X230151904Y-45696190D01*
X230199523Y-45743809D01*
X230294761Y-45791428D01*
X230485238Y-45791428D01*
X230580476Y-45743809D01*
X230628095Y-45696190D01*
X230675714Y-45600952D01*
X268906666Y-62952380D02*
X268906666Y-63666666D01*
X268859047Y-63809523D01*
X268763809Y-63904761D01*
X268620952Y-63952380D01*
X268525714Y-63952380D01*
X269906666Y-63952380D02*
X269335238Y-63952380D01*
X269620952Y-63952380D02*
X269620952Y-62952380D01*
X269525714Y-63095238D01*
X269430476Y-63190476D01*
X269335238Y-63238095D01*
X212812380Y-25733333D02*
X213526666Y-25733333D01*
X213669523Y-25780952D01*
X213764761Y-25876190D01*
X213812380Y-26019047D01*
X213812380Y-26114285D01*
X213145714Y-24828571D02*
X213812380Y-24828571D01*
X212764761Y-25066666D02*
X213479047Y-25304761D01*
X213479047Y-24685714D01*
X209986666Y-45382380D02*
X209986666Y-46096666D01*
X209939047Y-46239523D01*
X209843809Y-46334761D01*
X209700952Y-46382380D01*
X209605714Y-46382380D01*
X210462857Y-46382380D02*
X210462857Y-45382380D01*
X210843809Y-45382380D01*
X210939047Y-45430000D01*
X210986666Y-45477619D01*
X211034285Y-45572857D01*
X211034285Y-45715714D01*
X210986666Y-45810952D01*
X210939047Y-45858571D01*
X210843809Y-45906190D01*
X210462857Y-45906190D01*
X211986666Y-46382380D02*
X211415238Y-46382380D01*
X211700952Y-46382380D02*
X211700952Y-45382380D01*
X211605714Y-45525238D01*
X211510476Y-45620476D01*
X211415238Y-45668095D01*
X213812380Y-42600476D02*
X213336190Y-42933809D01*
X213812380Y-43171904D02*
X212812380Y-43171904D01*
X212812380Y-42790952D01*
X212860000Y-42695714D01*
X212907619Y-42648095D01*
X213002857Y-42600476D01*
X213145714Y-42600476D01*
X213240952Y-42648095D01*
X213288571Y-42695714D01*
X213336190Y-42790952D01*
X213336190Y-43171904D01*
X213812380Y-42171904D02*
X212812380Y-42171904D01*
X213812380Y-41600476D01*
X212812380Y-41600476D01*
X213812380Y-40600476D02*
X213812380Y-41171904D01*
X213812380Y-40886190D02*
X212812380Y-40886190D01*
X212955238Y-40981428D01*
X213050476Y-41076666D01*
X213098095Y-41171904D01*
X253480666Y-18184761D02*
X253623523Y-18232380D01*
X253861619Y-18232380D01*
X253956857Y-18184761D01*
X254004476Y-18137142D01*
X254052095Y-18041904D01*
X254052095Y-17946666D01*
X254004476Y-17851428D01*
X253956857Y-17803809D01*
X253861619Y-17756190D01*
X253671142Y-17708571D01*
X253575904Y-17660952D01*
X253528285Y-17613333D01*
X253480666Y-17518095D01*
X253480666Y-17422857D01*
X253528285Y-17327619D01*
X253575904Y-17280000D01*
X253671142Y-17232380D01*
X253909238Y-17232380D01*
X254052095Y-17280000D01*
X254385428Y-17232380D02*
X254623523Y-18232380D01*
X254814000Y-17518095D01*
X255004476Y-18232380D01*
X255242571Y-17232380D01*
X256147333Y-18232380D02*
X255575904Y-18232380D01*
X255861619Y-18232380D02*
X255861619Y-17232380D01*
X255766380Y-17375238D01*
X255671142Y-17470476D01*
X255575904Y-17518095D01*
X238136666Y-18184761D02*
X238279523Y-18232380D01*
X238517619Y-18232380D01*
X238612857Y-18184761D01*
X238660476Y-18137142D01*
X238708095Y-18041904D01*
X238708095Y-17946666D01*
X238660476Y-17851428D01*
X238612857Y-17803809D01*
X238517619Y-17756190D01*
X238327142Y-17708571D01*
X238231904Y-17660952D01*
X238184285Y-17613333D01*
X238136666Y-17518095D01*
X238136666Y-17422857D01*
X238184285Y-17327619D01*
X238231904Y-17280000D01*
X238327142Y-17232380D01*
X238565238Y-17232380D01*
X238708095Y-17280000D01*
X239041428Y-17232380D02*
X239279523Y-18232380D01*
X239470000Y-17518095D01*
X239660476Y-18232380D01*
X239898571Y-17232380D01*
X240231904Y-17327619D02*
X240279523Y-17280000D01*
X240374761Y-17232380D01*
X240612857Y-17232380D01*
X240708095Y-17280000D01*
X240755714Y-17327619D01*
X240803333Y-17422857D01*
X240803333Y-17518095D01*
X240755714Y-17660952D01*
X240184285Y-18232380D01*
X240803333Y-18232380D01*
X243078095Y-32472380D02*
X243078095Y-33281904D01*
X243125714Y-33377142D01*
X243173333Y-33424761D01*
X243268571Y-33472380D01*
X243459047Y-33472380D01*
X243554285Y-33424761D01*
X243601904Y-33377142D01*
X243649523Y-33281904D01*
X243649523Y-32472380D01*
X244649523Y-33472380D02*
X244078095Y-33472380D01*
X244363809Y-33472380D02*
X244363809Y-32472380D01*
X244268571Y-32615238D01*
X244173333Y-32710476D01*
X244078095Y-32758095D01*
X189738095Y-47712380D02*
X189738095Y-48521904D01*
X189785714Y-48617142D01*
X189833333Y-48664761D01*
X189928571Y-48712380D01*
X190119047Y-48712380D01*
X190214285Y-48664761D01*
X190261904Y-48617142D01*
X190309523Y-48521904D01*
X190309523Y-47712380D01*
X190738095Y-47807619D02*
X190785714Y-47760000D01*
X190880952Y-47712380D01*
X191119047Y-47712380D01*
X191214285Y-47760000D01*
X191261904Y-47807619D01*
X191309523Y-47902857D01*
X191309523Y-47998095D01*
X191261904Y-48140952D01*
X190690476Y-48712380D01*
X191309523Y-48712380D01*
X206248095Y-57872380D02*
X206248095Y-58681904D01*
X206295714Y-58777142D01*
X206343333Y-58824761D01*
X206438571Y-58872380D01*
X206629047Y-58872380D01*
X206724285Y-58824761D01*
X206771904Y-58777142D01*
X206819523Y-58681904D01*
X206819523Y-57872380D01*
X207200476Y-57872380D02*
X207819523Y-57872380D01*
X207486190Y-58253333D01*
X207629047Y-58253333D01*
X207724285Y-58300952D01*
X207771904Y-58348571D01*
X207819523Y-58443809D01*
X207819523Y-58681904D01*
X207771904Y-58777142D01*
X207724285Y-58824761D01*
X207629047Y-58872380D01*
X207343333Y-58872380D01*
X207248095Y-58824761D01*
X207200476Y-58777142D01*
X222758095Y-52792380D02*
X222758095Y-53601904D01*
X222805714Y-53697142D01*
X222853333Y-53744761D01*
X222948571Y-53792380D01*
X223139047Y-53792380D01*
X223234285Y-53744761D01*
X223281904Y-53697142D01*
X223329523Y-53601904D01*
X223329523Y-52792380D01*
X224234285Y-53125714D02*
X224234285Y-53792380D01*
X223996190Y-52744761D02*
X223758095Y-53459047D01*
X224377142Y-53459047D01*
X259588095Y-65492380D02*
X259588095Y-66301904D01*
X259635714Y-66397142D01*
X259683333Y-66444761D01*
X259778571Y-66492380D01*
X259969047Y-66492380D01*
X260064285Y-66444761D01*
X260111904Y-66397142D01*
X260159523Y-66301904D01*
X260159523Y-65492380D01*
X261111904Y-65492380D02*
X260635714Y-65492380D01*
X260588095Y-65968571D01*
X260635714Y-65920952D01*
X260730952Y-65873333D01*
X260969047Y-65873333D01*
X261064285Y-65920952D01*
X261111904Y-65968571D01*
X261159523Y-66063809D01*
X261159523Y-66301904D01*
X261111904Y-66397142D01*
X261064285Y-66444761D01*
X260969047Y-66492380D01*
X260730952Y-66492380D01*
X260635714Y-66444761D01*
X260588095Y-66397142D01*
X259588095Y-40092380D02*
X259588095Y-40901904D01*
X259635714Y-40997142D01*
X259683333Y-41044761D01*
X259778571Y-41092380D01*
X259969047Y-41092380D01*
X260064285Y-41044761D01*
X260111904Y-40997142D01*
X260159523Y-40901904D01*
X260159523Y-40092380D01*
X261064285Y-40092380D02*
X260873809Y-40092380D01*
X260778571Y-40140000D01*
X260730952Y-40187619D01*
X260635714Y-40330476D01*
X260588095Y-40520952D01*
X260588095Y-40901904D01*
X260635714Y-40997142D01*
X260683333Y-41044761D01*
X260778571Y-41092380D01*
X260969047Y-41092380D01*
X261064285Y-41044761D01*
X261111904Y-40997142D01*
X261159523Y-40901904D01*
X261159523Y-40663809D01*
X261111904Y-40568571D01*
X261064285Y-40520952D01*
X260969047Y-40473333D01*
X260778571Y-40473333D01*
X260683333Y-40520952D01*
X260635714Y-40568571D01*
X260588095Y-40663809D01*
M02*
