%TF.GenerationSoftware,KiCad,Pcbnew,5.1.2-5.1.2*%
%TF.CreationDate,2019-06-03T18:56:12+10:00*%
%TF.ProjectId,clock,636c6f63-6b2e-46b6-9963-61645f706362,1*%
%TF.SameCoordinates,Original*%
%TF.FileFunction,Copper,L1,Top*%
%TF.FilePolarity,Positive*%
%FSLAX46Y46*%
G04 Gerber Fmt 4.6, Leading zero omitted, Abs format (unit mm)*
G04 Created by KiCad (PCBNEW 5.1.2-5.1.2) date 2019-06-03 18:56:12*
%MOMM*%
%LPD*%
G04 APERTURE LIST*
%ADD10C,1.500000*%
%ADD11O,1.700000X1.700000*%
%ADD12R,1.700000X1.700000*%
%ADD13C,1.600000*%
%ADD14C,1.524000*%
%ADD15R,1.600000X1.600000*%
%ADD16O,1.600000X1.600000*%
%ADD17C,2.000000*%
%ADD18C,0.800000*%
%ADD19C,0.400000*%
%ADD20C,0.250000*%
%ADD21C,0.254000*%
G04 APERTURE END LIST*
D10*
X228600000Y-35740000D03*
X228600000Y-40640000D03*
D11*
X269240000Y-39370000D03*
X269240000Y-36830000D03*
X269240000Y-34290000D03*
D12*
X269240000Y-31750000D03*
D13*
X221020000Y-38100000D03*
X223520000Y-38100000D03*
X221020000Y-40640000D03*
X223520000Y-40640000D03*
D11*
X269240000Y-53340000D03*
X269240000Y-50800000D03*
X269240000Y-48260000D03*
X269240000Y-45720000D03*
D12*
X269240000Y-43180000D03*
D14*
X208280000Y-40640000D03*
X182880000Y-40640000D03*
X208280000Y-25400000D03*
X182880000Y-25400000D03*
D13*
X264080000Y-38100000D03*
X259080000Y-38100000D03*
X264080000Y-63500000D03*
X259080000Y-63500000D03*
X215980000Y-50800000D03*
X220980000Y-50800000D03*
X205820000Y-55880000D03*
X210820000Y-55880000D03*
X241380000Y-30480000D03*
X246380000Y-30480000D03*
X188040000Y-45720000D03*
X193040000Y-45720000D03*
X228640000Y-50800000D03*
D15*
X231140000Y-50800000D03*
D11*
X269240000Y-66040000D03*
X269240000Y-68580000D03*
X269240000Y-71120000D03*
X269240000Y-73660000D03*
X269240000Y-76200000D03*
X269240000Y-78740000D03*
X269240000Y-81280000D03*
D12*
X269240000Y-83820000D03*
D11*
X215900000Y-25400000D03*
X218440000Y-25400000D03*
D12*
X220980000Y-25400000D03*
D11*
X210820000Y-50800000D03*
D12*
X210820000Y-48260000D03*
D16*
X215900000Y-45720000D03*
X215900000Y-43180000D03*
X215900000Y-40640000D03*
X215900000Y-38100000D03*
D15*
X215900000Y-35560000D03*
D17*
X251564000Y-24892000D03*
X251564000Y-20392000D03*
X258064000Y-24892000D03*
X258064000Y-20392000D03*
X242720000Y-20320000D03*
X242720000Y-24820000D03*
X236220000Y-20320000D03*
X236220000Y-24820000D03*
D16*
X251460000Y-35560000D03*
X236220000Y-83820000D03*
X251460000Y-38100000D03*
X236220000Y-81280000D03*
X251460000Y-40640000D03*
X236220000Y-78740000D03*
X251460000Y-43180000D03*
X236220000Y-76200000D03*
X251460000Y-45720000D03*
X236220000Y-73660000D03*
X251460000Y-48260000D03*
X236220000Y-71120000D03*
X251460000Y-50800000D03*
X236220000Y-68580000D03*
X251460000Y-53340000D03*
X236220000Y-66040000D03*
X251460000Y-55880000D03*
X236220000Y-63500000D03*
X251460000Y-58420000D03*
X236220000Y-60960000D03*
X251460000Y-60960000D03*
X236220000Y-58420000D03*
X251460000Y-63500000D03*
X236220000Y-55880000D03*
X251460000Y-66040000D03*
X236220000Y-53340000D03*
X251460000Y-68580000D03*
X236220000Y-50800000D03*
X251460000Y-71120000D03*
X236220000Y-48260000D03*
X251460000Y-73660000D03*
X236220000Y-45720000D03*
X251460000Y-76200000D03*
X236220000Y-43180000D03*
X251460000Y-78740000D03*
X236220000Y-40640000D03*
X251460000Y-81280000D03*
X236220000Y-38100000D03*
X251460000Y-83820000D03*
D15*
X236220000Y-35560000D03*
D16*
X198120000Y-50800000D03*
X182880000Y-83820000D03*
X198120000Y-53340000D03*
X182880000Y-81280000D03*
X198120000Y-55880000D03*
X182880000Y-78740000D03*
X198120000Y-58420000D03*
X182880000Y-76200000D03*
X198120000Y-60960000D03*
X182880000Y-73660000D03*
X198120000Y-63500000D03*
X182880000Y-71120000D03*
X198120000Y-66040000D03*
X182880000Y-68580000D03*
X198120000Y-68580000D03*
X182880000Y-66040000D03*
X198120000Y-71120000D03*
X182880000Y-63500000D03*
X198120000Y-73660000D03*
X182880000Y-60960000D03*
X198120000Y-76200000D03*
X182880000Y-58420000D03*
X198120000Y-78740000D03*
X182880000Y-55880000D03*
X198120000Y-81280000D03*
X182880000Y-53340000D03*
X198120000Y-83820000D03*
D15*
X182880000Y-50800000D03*
D16*
X210820000Y-60960000D03*
X203200000Y-83820000D03*
X210820000Y-63500000D03*
X203200000Y-81280000D03*
X210820000Y-66040000D03*
X203200000Y-78740000D03*
X210820000Y-68580000D03*
X203200000Y-76200000D03*
X210820000Y-71120000D03*
X203200000Y-73660000D03*
X210820000Y-73660000D03*
X203200000Y-71120000D03*
X210820000Y-76200000D03*
X203200000Y-68580000D03*
X210820000Y-78740000D03*
X203200000Y-66040000D03*
X210820000Y-81280000D03*
X203200000Y-63500000D03*
X210820000Y-83820000D03*
D15*
X203200000Y-60960000D03*
D16*
X231140000Y-55880000D03*
X215900000Y-83820000D03*
X231140000Y-58420000D03*
X215900000Y-81280000D03*
X231140000Y-60960000D03*
X215900000Y-78740000D03*
X231140000Y-63500000D03*
X215900000Y-76200000D03*
X231140000Y-66040000D03*
X215900000Y-73660000D03*
X231140000Y-68580000D03*
X215900000Y-71120000D03*
X231140000Y-71120000D03*
X215900000Y-68580000D03*
X231140000Y-73660000D03*
X215900000Y-66040000D03*
X231140000Y-76200000D03*
X215900000Y-63500000D03*
X231140000Y-78740000D03*
X215900000Y-60960000D03*
X231140000Y-81280000D03*
X215900000Y-58420000D03*
X231140000Y-83820000D03*
D15*
X215900000Y-55880000D03*
D16*
X264160000Y-68580000D03*
X256540000Y-83820000D03*
X264160000Y-71120000D03*
X256540000Y-81280000D03*
X264160000Y-73660000D03*
X256540000Y-78740000D03*
X264160000Y-76200000D03*
X256540000Y-76200000D03*
X264160000Y-78740000D03*
X256540000Y-73660000D03*
X264160000Y-81280000D03*
X256540000Y-71120000D03*
X264160000Y-83820000D03*
D15*
X256540000Y-68580000D03*
D16*
X264160000Y-43180000D03*
X256540000Y-58420000D03*
X264160000Y-45720000D03*
X256540000Y-55880000D03*
X264160000Y-48260000D03*
X256540000Y-53340000D03*
X264160000Y-50800000D03*
X256540000Y-50800000D03*
X264160000Y-53340000D03*
X256540000Y-48260000D03*
X264160000Y-55880000D03*
X256540000Y-45720000D03*
X264160000Y-58420000D03*
D15*
X256540000Y-43180000D03*
D18*
X214371000Y-67418100D03*
X193040000Y-67165300D03*
D19*
X251564000Y-20392000D02*
X242792000Y-20392000D01*
X242792000Y-20392000D02*
X242720000Y-20320000D01*
X258064000Y-20392000D02*
X251564000Y-20392000D01*
X203200000Y-83820000D02*
X201899700Y-83820000D01*
X182880000Y-83820000D02*
X184180300Y-83820000D01*
X184180300Y-83820000D02*
X185481500Y-85121200D01*
X185481500Y-85121200D02*
X200598500Y-85121200D01*
X200598500Y-85121200D02*
X201899700Y-83820000D01*
X231140000Y-83820000D02*
X236220000Y-83820000D01*
X215900000Y-83820000D02*
X231140000Y-83820000D01*
X215900000Y-50800000D02*
X212170300Y-50800000D01*
X215980000Y-50800000D02*
X215900000Y-50800000D01*
X215900000Y-50800000D02*
X215900000Y-54579700D01*
X215900000Y-55880000D02*
X215900000Y-54579700D01*
X228640000Y-50800000D02*
X227337000Y-49497000D01*
X227337000Y-49497000D02*
X217283000Y-49497000D01*
X217283000Y-49497000D02*
X215980000Y-50800000D01*
X210820000Y-50800000D02*
X212170300Y-50800000D01*
X188040000Y-45720000D02*
X193120000Y-40640000D01*
X193120000Y-40640000D02*
X208280000Y-40640000D01*
X203200000Y-60960000D02*
X201899700Y-60960000D01*
X198120000Y-63500000D02*
X199420300Y-63500000D01*
X199420300Y-63500000D02*
X201899700Y-61020600D01*
X201899700Y-61020600D02*
X201899700Y-60960000D01*
X215900000Y-83820000D02*
X214599700Y-83820000D01*
X203200000Y-83820000D02*
X204500300Y-83820000D01*
X204500300Y-83820000D02*
X205820400Y-85140100D01*
X205820400Y-85140100D02*
X213279600Y-85140100D01*
X213279600Y-85140100D02*
X214599700Y-83820000D01*
X256540000Y-58420000D02*
X259000000Y-58420000D01*
X259000000Y-58420000D02*
X264080000Y-63500000D01*
X182880000Y-50800000D02*
X184180300Y-50800000D01*
X193040000Y-49672700D02*
X195692400Y-49672700D01*
X195692400Y-49672700D02*
X196819700Y-50800000D01*
X184180300Y-50800000D02*
X185307600Y-49672700D01*
X185307600Y-49672700D02*
X193040000Y-49672700D01*
X193040000Y-49672700D02*
X193040000Y-45720000D01*
X198120000Y-50800000D02*
X196819700Y-50800000D01*
X251460000Y-71120000D02*
X252760300Y-71120000D01*
X259080000Y-63500000D02*
X252760300Y-69819700D01*
X252760300Y-69819700D02*
X252760300Y-71120000D01*
X215900000Y-35560000D02*
X215900000Y-34259700D01*
X215900000Y-34259700D02*
X220980000Y-29179700D01*
X220980000Y-29179700D02*
X220980000Y-25400000D01*
X231140000Y-55880000D02*
X229839700Y-55880000D01*
X229839700Y-55880000D02*
X224759700Y-50800000D01*
X224759700Y-50800000D02*
X220980000Y-50800000D01*
X198120000Y-53340000D02*
X208280000Y-53340000D01*
X208280000Y-53340000D02*
X210820000Y-55880000D01*
X251460000Y-35560000D02*
X250159700Y-35560000D01*
X250159700Y-35560000D02*
X250159700Y-34259700D01*
X250159700Y-34259700D02*
X246380000Y-30480000D01*
X264160000Y-43180000D02*
X262859700Y-43180000D01*
X262859700Y-43180000D02*
X262859700Y-41879700D01*
X262859700Y-41879700D02*
X259080000Y-38100000D01*
D20*
X264160000Y-83820000D02*
X269240000Y-83820000D01*
X269240000Y-81280000D02*
X268064700Y-81280000D01*
X256540000Y-81280000D02*
X257665300Y-81280000D01*
X257665300Y-81280000D02*
X258840600Y-80104700D01*
X258840600Y-80104700D02*
X266889400Y-80104700D01*
X266889400Y-80104700D02*
X268064700Y-81280000D01*
X264160000Y-78740000D02*
X269240000Y-78740000D01*
X269240000Y-76200000D02*
X268064700Y-76200000D01*
X256540000Y-76200000D02*
X257665300Y-76200000D01*
X257665300Y-76200000D02*
X258840600Y-77375300D01*
X258840600Y-77375300D02*
X266889400Y-77375300D01*
X266889400Y-77375300D02*
X268064700Y-76200000D01*
X264160000Y-73660000D02*
X269240000Y-73660000D01*
X269240000Y-71120000D02*
X268064700Y-71120000D01*
X256540000Y-71120000D02*
X257665300Y-71120000D01*
X257665300Y-71120000D02*
X258840600Y-69944700D01*
X258840600Y-69944700D02*
X266889400Y-69944700D01*
X266889400Y-69944700D02*
X268064700Y-71120000D01*
X269240000Y-66040000D02*
X268064700Y-66040000D01*
X256540000Y-55880000D02*
X258198500Y-55880000D01*
X258198500Y-55880000D02*
X268064700Y-65746200D01*
X268064700Y-65746200D02*
X268064700Y-66040000D01*
X251460000Y-40640000D02*
X252585300Y-40640000D01*
X252585300Y-40640000D02*
X256354700Y-36870600D01*
X256354700Y-36870600D02*
X259852200Y-36870600D01*
X259852200Y-36870600D02*
X266161600Y-43180000D01*
X266161600Y-43180000D02*
X269240000Y-43180000D01*
X269240000Y-45720000D02*
X268064700Y-45720000D01*
X251460000Y-43180000D02*
X252585300Y-43180000D01*
X252585300Y-43180000D02*
X253987600Y-44582300D01*
X253987600Y-44582300D02*
X266927000Y-44582300D01*
X266927000Y-44582300D02*
X268064700Y-45720000D01*
X269240000Y-48260000D02*
X268064700Y-48260000D01*
X251460000Y-45720000D02*
X252585300Y-45720000D01*
X252585300Y-45720000D02*
X253950000Y-47084700D01*
X253950000Y-47084700D02*
X266889400Y-47084700D01*
X266889400Y-47084700D02*
X268064700Y-48260000D01*
X269240000Y-50800000D02*
X268064700Y-50800000D01*
X251460000Y-48260000D02*
X252585300Y-48260000D01*
X252585300Y-48260000D02*
X253950000Y-49624700D01*
X253950000Y-49624700D02*
X266889400Y-49624700D01*
X266889400Y-49624700D02*
X268064700Y-50800000D01*
D19*
X215900000Y-25400000D02*
X208280000Y-25400000D01*
D20*
X236220000Y-50800000D02*
X235094700Y-50800000D01*
X235094700Y-50800000D02*
X230014700Y-45720000D01*
X230014700Y-45720000D02*
X215900000Y-45720000D01*
X210820000Y-48260000D02*
X211995300Y-48260000D01*
X215900000Y-45720000D02*
X214535300Y-45720000D01*
X214535300Y-45720000D02*
X211995300Y-48260000D01*
X236220000Y-24820000D02*
X242720000Y-24820000D01*
X236220000Y-24820000D02*
X236220000Y-32591500D01*
X236220000Y-32591500D02*
X234173100Y-34638400D01*
X234173100Y-34638400D02*
X220486900Y-34638400D01*
X220486900Y-34638400D02*
X217025300Y-38100000D01*
X235094700Y-35560000D02*
X234173100Y-34638400D01*
X215900000Y-38100000D02*
X217025300Y-38100000D01*
X236220000Y-35560000D02*
X235094700Y-35560000D01*
X215900000Y-40640000D02*
X217025300Y-40640000D01*
X251460000Y-38100000D02*
X250334700Y-38100000D01*
X250334700Y-38100000D02*
X246556900Y-41877800D01*
X246556900Y-41877800D02*
X218263100Y-41877800D01*
X218263100Y-41877800D02*
X217025300Y-40640000D01*
X258064000Y-24892000D02*
X251564000Y-24892000D01*
X236220000Y-48260000D02*
X235094700Y-48260000D01*
X215900000Y-43180000D02*
X230014700Y-43180000D01*
X230014700Y-43180000D02*
X235094700Y-48260000D01*
X251460000Y-83820000D02*
X251460000Y-82694700D01*
X198120000Y-58420000D02*
X199245300Y-58420000D01*
X199245300Y-58420000D02*
X200388300Y-57277000D01*
X200388300Y-57277000D02*
X231643800Y-57277000D01*
X231643800Y-57277000D02*
X234056800Y-59690000D01*
X234056800Y-59690000D02*
X236621900Y-59690000D01*
X236621900Y-59690000D02*
X249958600Y-73026700D01*
X249958600Y-73026700D02*
X249958600Y-73816500D01*
X249958600Y-73816500D02*
X251075100Y-74933000D01*
X251075100Y-74933000D02*
X251855300Y-74933000D01*
X251855300Y-74933000D02*
X253085700Y-76163400D01*
X253085700Y-76163400D02*
X253085700Y-81350300D01*
X253085700Y-81350300D02*
X251741300Y-82694700D01*
X251741300Y-82694700D02*
X251460000Y-82694700D01*
X198120000Y-60960000D02*
X199245300Y-60960000D01*
X199245300Y-60960000D02*
X200472000Y-59733300D01*
X200472000Y-59733300D02*
X233116300Y-59733300D01*
X233116300Y-59733300D02*
X235613000Y-62230000D01*
X235613000Y-62230000D02*
X236581700Y-62230000D01*
X236581700Y-62230000D02*
X238213500Y-63861800D01*
X238213500Y-63861800D02*
X238213500Y-64551000D01*
X238213500Y-64551000D02*
X251132500Y-77470000D01*
X251132500Y-77470000D02*
X251858900Y-77470000D01*
X251858900Y-77470000D02*
X252585300Y-78196400D01*
X252585300Y-78196400D02*
X252585300Y-79310800D01*
X252585300Y-79310800D02*
X251741400Y-80154700D01*
X251741400Y-80154700D02*
X251460000Y-80154700D01*
X251460000Y-81280000D02*
X251460000Y-80154700D01*
X251460000Y-78740000D02*
X250334700Y-78740000D01*
X214371000Y-67418100D02*
X239012800Y-67418100D01*
X239012800Y-67418100D02*
X250334700Y-78740000D01*
X198120000Y-64914700D02*
X197698000Y-64914700D01*
X197698000Y-64914700D02*
X196870200Y-64086900D01*
X196870200Y-64086900D02*
X196870200Y-52791700D01*
X196870200Y-52791700D02*
X197591900Y-52070000D01*
X197591900Y-52070000D02*
X206618500Y-52070000D01*
X206618500Y-52070000D02*
X209183500Y-49505000D01*
X209183500Y-49505000D02*
X215155000Y-49505000D01*
X215155000Y-49505000D02*
X215831400Y-48828600D01*
X215831400Y-48828600D02*
X228479500Y-48828600D01*
X228479500Y-48828600D02*
X230014600Y-50363700D01*
X230014600Y-50363700D02*
X230014600Y-51786300D01*
X230014600Y-51786300D02*
X234108300Y-55880000D01*
X234108300Y-55880000D02*
X236220000Y-55880000D01*
X198120000Y-66040000D02*
X198120000Y-64914700D01*
X251460000Y-60960000D02*
X251460000Y-62085300D01*
X256540000Y-73660000D02*
X255414700Y-73660000D01*
X255414700Y-73660000D02*
X254289400Y-72534700D01*
X254289400Y-72534700D02*
X251130300Y-72534700D01*
X251130300Y-72534700D02*
X250227100Y-71631500D01*
X250227100Y-71631500D02*
X250227100Y-63036900D01*
X250227100Y-63036900D02*
X251178700Y-62085300D01*
X251178700Y-62085300D02*
X251460000Y-62085300D01*
X210820000Y-83820000D02*
X211945300Y-83820000D01*
X231140000Y-81280000D02*
X230014700Y-81280000D01*
X230014700Y-81280000D02*
X228889400Y-82405300D01*
X228889400Y-82405300D02*
X213360000Y-82405300D01*
X213360000Y-82405300D02*
X211945300Y-83820000D01*
X202074700Y-66040000D02*
X200949400Y-67165300D01*
X200949400Y-67165300D02*
X193040000Y-67165300D01*
X236220000Y-63500000D02*
X235094700Y-63500000D01*
X215900000Y-63500000D02*
X217025300Y-63500000D01*
X217025300Y-63500000D02*
X218150600Y-62374700D01*
X218150600Y-62374700D02*
X233969400Y-62374700D01*
X233969400Y-62374700D02*
X235094700Y-63500000D01*
X215337400Y-63500000D02*
X215900000Y-63500000D01*
X215337400Y-63500000D02*
X214774700Y-63500000D01*
X203200000Y-66040000D02*
X204325300Y-66040000D01*
X214774700Y-63500000D02*
X213360000Y-64914700D01*
X213360000Y-64914700D02*
X205450600Y-64914700D01*
X205450600Y-64914700D02*
X204325300Y-66040000D01*
X203200000Y-66040000D02*
X202074700Y-66040000D01*
X215900000Y-66040000D02*
X210820000Y-66040000D01*
X236220000Y-66040000D02*
X235094700Y-66040000D01*
X215900000Y-66040000D02*
X217025300Y-66040000D01*
X217025300Y-66040000D02*
X218150600Y-64914700D01*
X218150600Y-64914700D02*
X233969400Y-64914700D01*
X233969400Y-64914700D02*
X235094700Y-66040000D01*
X251460000Y-53340000D02*
X252585300Y-53340000D01*
X264160000Y-55880000D02*
X263034700Y-55880000D01*
X263034700Y-55880000D02*
X261620000Y-54465300D01*
X261620000Y-54465300D02*
X253710600Y-54465300D01*
X253710600Y-54465300D02*
X252585300Y-53340000D01*
X204325300Y-68580000D02*
X205450600Y-67454700D01*
X205450600Y-67454700D02*
X213381900Y-67454700D01*
X213381900Y-67454700D02*
X214507200Y-68580000D01*
X214507200Y-68580000D02*
X214774700Y-68580000D01*
X236220000Y-68580000D02*
X235094700Y-68580000D01*
X215900000Y-68580000D02*
X217025300Y-68580000D01*
X217025300Y-68580000D02*
X218150600Y-69705300D01*
X218150600Y-69705300D02*
X233969400Y-69705300D01*
X233969400Y-69705300D02*
X235094700Y-68580000D01*
X215337400Y-68580000D02*
X215900000Y-68580000D01*
X215337400Y-68580000D02*
X214774700Y-68580000D01*
X203200000Y-68580000D02*
X204325300Y-68580000D01*
X256540000Y-53340000D02*
X255414700Y-53340000D01*
X255414700Y-53340000D02*
X252874700Y-50800000D01*
X252874700Y-50800000D02*
X251460000Y-50800000D01*
X236220000Y-71120000D02*
X235094700Y-71120000D01*
X215900000Y-71120000D02*
X217025300Y-71120000D01*
X217025300Y-71120000D02*
X218262800Y-72357500D01*
X218262800Y-72357500D02*
X233857200Y-72357500D01*
X233857200Y-72357500D02*
X235094700Y-71120000D01*
X236220000Y-73660000D02*
X235094700Y-73660000D01*
X215900000Y-73660000D02*
X217025300Y-73660000D01*
X217025300Y-73660000D02*
X218150600Y-74785300D01*
X218150600Y-74785300D02*
X233969400Y-74785300D01*
X233969400Y-74785300D02*
X235094700Y-73660000D01*
X215337400Y-73660000D02*
X215900000Y-73660000D01*
X215337400Y-73660000D02*
X214774700Y-73660000D01*
X203200000Y-76200000D02*
X204325300Y-76200000D01*
X214774700Y-73660000D02*
X213360000Y-75074700D01*
X213360000Y-75074700D02*
X205450600Y-75074700D01*
X205450600Y-75074700D02*
X204325300Y-76200000D01*
X198120000Y-78740000D02*
X199245300Y-78740000D01*
X210820000Y-76200000D02*
X209694700Y-76200000D01*
X209694700Y-76200000D02*
X208280000Y-77614700D01*
X208280000Y-77614700D02*
X200370600Y-77614700D01*
X200370600Y-77614700D02*
X199245300Y-78740000D01*
X215900000Y-76200000D02*
X210820000Y-76200000D01*
X236220000Y-76200000D02*
X235094700Y-76200000D01*
X215900000Y-76200000D02*
X217025300Y-76200000D01*
X217025300Y-76200000D02*
X218150600Y-77325300D01*
X218150600Y-77325300D02*
X233969400Y-77325300D01*
X233969400Y-77325300D02*
X235094700Y-76200000D01*
X203200000Y-78740000D02*
X204325300Y-78740000D01*
X215900000Y-78740000D02*
X214774700Y-78740000D01*
X214774700Y-78740000D02*
X213649400Y-79865300D01*
X213649400Y-79865300D02*
X205450600Y-79865300D01*
X205450600Y-79865300D02*
X204325300Y-78740000D01*
X215900000Y-81280000D02*
X217025300Y-81280000D01*
X236220000Y-81280000D02*
X235094700Y-81280000D01*
X235094700Y-81280000D02*
X233969400Y-80154700D01*
X233969400Y-80154700D02*
X218150600Y-80154700D01*
X218150600Y-80154700D02*
X217025300Y-81280000D01*
X209694700Y-81280000D02*
X208567500Y-82407200D01*
X208567500Y-82407200D02*
X192573900Y-82407200D01*
X192573900Y-82407200D02*
X185096700Y-74930000D01*
X185096700Y-74930000D02*
X182553100Y-74930000D01*
X182553100Y-74930000D02*
X180826200Y-73203100D01*
X180826200Y-73203100D02*
X180826200Y-58777800D01*
X180826200Y-58777800D02*
X182598700Y-57005300D01*
X182598700Y-57005300D02*
X182880000Y-57005300D01*
X182880000Y-55880000D02*
X182880000Y-57005300D01*
X210820000Y-81280000D02*
X209694700Y-81280000D01*
X202074700Y-81280000D02*
X200949400Y-80154700D01*
X200949400Y-80154700D02*
X192402700Y-80154700D01*
X192402700Y-80154700D02*
X184602300Y-72354300D01*
X184602300Y-72354300D02*
X182466500Y-72354300D01*
X182466500Y-72354300D02*
X181276600Y-71164400D01*
X181276600Y-71164400D02*
X181276600Y-60867400D01*
X181276600Y-60867400D02*
X182598700Y-59545300D01*
X182598700Y-59545300D02*
X182880000Y-59545300D01*
X182880000Y-58420000D02*
X182880000Y-59545300D01*
X203200000Y-81280000D02*
X202074700Y-81280000D01*
X182880000Y-63500000D02*
X182880000Y-64625300D01*
X203200000Y-73660000D02*
X202074700Y-73660000D01*
X202074700Y-73660000D02*
X200935000Y-74799700D01*
X200935000Y-74799700D02*
X188359900Y-74799700D01*
X188359900Y-74799700D02*
X183410200Y-69850000D01*
X183410200Y-69850000D02*
X182478900Y-69850000D01*
X182478900Y-69850000D02*
X181754700Y-69125800D01*
X181754700Y-69125800D02*
X181754700Y-65469200D01*
X181754700Y-65469200D02*
X182598600Y-64625300D01*
X182598600Y-64625300D02*
X182880000Y-64625300D01*
X182880000Y-66040000D02*
X184005300Y-66040000D01*
X210820000Y-71120000D02*
X209694700Y-71120000D01*
X209694700Y-71120000D02*
X208354000Y-69779300D01*
X208354000Y-69779300D02*
X187744600Y-69779300D01*
X187744600Y-69779300D02*
X184005300Y-66040000D01*
X182880000Y-68580000D02*
X184005300Y-68580000D01*
X203200000Y-71120000D02*
X202074700Y-71120000D01*
X202074700Y-71120000D02*
X200844000Y-72350700D01*
X200844000Y-72350700D02*
X187776000Y-72350700D01*
X187776000Y-72350700D02*
X184005300Y-68580000D01*
X223520000Y-40640000D02*
X228600000Y-40640000D01*
X236220000Y-40640000D02*
X228600000Y-40640000D01*
X236220000Y-38100000D02*
X235094700Y-38100000D01*
X235094700Y-38100000D02*
X232734700Y-35740000D01*
X232734700Y-35740000D02*
X228600000Y-35740000D01*
X223520000Y-38100000D02*
X225880000Y-35740000D01*
X225880000Y-35740000D02*
X228600000Y-35740000D01*
D21*
G36*
X264033000Y-22860000D02*
G01*
X264035440Y-22884776D01*
X264042667Y-22908601D01*
X264054403Y-22930557D01*
X264070197Y-22949803D01*
X264089443Y-22965597D01*
X264111399Y-22977333D01*
X264135224Y-22984560D01*
X264160000Y-22987000D01*
X271653000Y-22987000D01*
X271653000Y-86233000D01*
X264160000Y-86233000D01*
X264135224Y-86235440D01*
X264111399Y-86242667D01*
X264089443Y-86254403D01*
X264070197Y-86270197D01*
X264054403Y-86289443D01*
X264042667Y-86311399D01*
X264035440Y-86335224D01*
X264033000Y-86360000D01*
X264033000Y-93853000D01*
X185547000Y-93853000D01*
X185547000Y-86360000D01*
X185544560Y-86335224D01*
X185537333Y-86311399D01*
X185525597Y-86289443D01*
X185509803Y-86270197D01*
X185490557Y-86254403D01*
X185468601Y-86242667D01*
X185444776Y-86235440D01*
X185420000Y-86233000D01*
X177927000Y-86233000D01*
X177927000Y-58777800D01*
X180062524Y-58777800D01*
X180066201Y-58815132D01*
X180066200Y-73165778D01*
X180062524Y-73203100D01*
X180066200Y-73240422D01*
X180066200Y-73240432D01*
X180077197Y-73352085D01*
X180107195Y-73450976D01*
X180120654Y-73495346D01*
X180191226Y-73627376D01*
X180218000Y-73660000D01*
X180286199Y-73743101D01*
X180315202Y-73766903D01*
X181801026Y-75252729D01*
X181681068Y-75398899D01*
X181547818Y-75648192D01*
X181465764Y-75918691D01*
X181438057Y-76200000D01*
X181465764Y-76481309D01*
X181547818Y-76751808D01*
X181681068Y-77001101D01*
X181860392Y-77219608D01*
X182078899Y-77398932D01*
X182211858Y-77470000D01*
X182078899Y-77541068D01*
X181860392Y-77720392D01*
X181681068Y-77938899D01*
X181547818Y-78188192D01*
X181465764Y-78458691D01*
X181438057Y-78740000D01*
X181465764Y-79021309D01*
X181547818Y-79291808D01*
X181681068Y-79541101D01*
X181860392Y-79759608D01*
X182078899Y-79938932D01*
X182211858Y-80010000D01*
X182078899Y-80081068D01*
X181860392Y-80260392D01*
X181681068Y-80478899D01*
X181547818Y-80728192D01*
X181465764Y-80998691D01*
X181438057Y-81280000D01*
X181465764Y-81561309D01*
X181547818Y-81831808D01*
X181681068Y-82081101D01*
X181860392Y-82299608D01*
X182078899Y-82478932D01*
X182211858Y-82550000D01*
X182078899Y-82621068D01*
X181860392Y-82800392D01*
X181681068Y-83018899D01*
X181547818Y-83268192D01*
X181465764Y-83538691D01*
X181438057Y-83820000D01*
X181465764Y-84101309D01*
X181547818Y-84371808D01*
X181681068Y-84621101D01*
X181860392Y-84839608D01*
X182078899Y-85018932D01*
X182328192Y-85152182D01*
X182598691Y-85234236D01*
X182809508Y-85255000D01*
X182950492Y-85255000D01*
X183161309Y-85234236D01*
X183431808Y-85152182D01*
X183681101Y-85018932D01*
X183899608Y-84839608D01*
X183953443Y-84774010D01*
X184862063Y-85682632D01*
X184888209Y-85714491D01*
X185015354Y-85818836D01*
X185160413Y-85896372D01*
X185317811Y-85944118D01*
X185440481Y-85956200D01*
X185440482Y-85956200D01*
X185481500Y-85960240D01*
X185522518Y-85956200D01*
X200557482Y-85956200D01*
X200598500Y-85960240D01*
X200639518Y-85956200D01*
X200639519Y-85956200D01*
X200762189Y-85944118D01*
X200919587Y-85896372D01*
X201064646Y-85818836D01*
X201191791Y-85714491D01*
X201217946Y-85682622D01*
X202126558Y-84774011D01*
X202180392Y-84839608D01*
X202398899Y-85018932D01*
X202648192Y-85152182D01*
X202918691Y-85234236D01*
X203129508Y-85255000D01*
X203270492Y-85255000D01*
X203481309Y-85234236D01*
X203751808Y-85152182D01*
X204001101Y-85018932D01*
X204219608Y-84839608D01*
X204273443Y-84774010D01*
X205200958Y-85701526D01*
X205227109Y-85733391D01*
X205354254Y-85837736D01*
X205499313Y-85915272D01*
X205656711Y-85963018D01*
X205779381Y-85975100D01*
X205779391Y-85975100D01*
X205820399Y-85979139D01*
X205861407Y-85975100D01*
X213238582Y-85975100D01*
X213279600Y-85979140D01*
X213320618Y-85975100D01*
X213320619Y-85975100D01*
X213443289Y-85963018D01*
X213600687Y-85915272D01*
X213745746Y-85837736D01*
X213872891Y-85733391D01*
X213899046Y-85701521D01*
X214826557Y-84774010D01*
X214880392Y-84839608D01*
X215098899Y-85018932D01*
X215348192Y-85152182D01*
X215618691Y-85234236D01*
X215829508Y-85255000D01*
X215970492Y-85255000D01*
X216181309Y-85234236D01*
X216451808Y-85152182D01*
X216701101Y-85018932D01*
X216919608Y-84839608D01*
X217071112Y-84655000D01*
X229968888Y-84655000D01*
X230120392Y-84839608D01*
X230338899Y-85018932D01*
X230588192Y-85152182D01*
X230858691Y-85234236D01*
X231069508Y-85255000D01*
X231210492Y-85255000D01*
X231421309Y-85234236D01*
X231691808Y-85152182D01*
X231941101Y-85018932D01*
X232159608Y-84839608D01*
X232311112Y-84655000D01*
X235048888Y-84655000D01*
X235200392Y-84839608D01*
X235418899Y-85018932D01*
X235668192Y-85152182D01*
X235938691Y-85234236D01*
X236149508Y-85255000D01*
X236290492Y-85255000D01*
X236501309Y-85234236D01*
X236771808Y-85152182D01*
X237021101Y-85018932D01*
X237239608Y-84839608D01*
X237418932Y-84621101D01*
X237552182Y-84371808D01*
X237634236Y-84101309D01*
X237661943Y-83820000D01*
X237634236Y-83538691D01*
X237552182Y-83268192D01*
X237418932Y-83018899D01*
X237239608Y-82800392D01*
X237021101Y-82621068D01*
X236888142Y-82550000D01*
X237021101Y-82478932D01*
X237239608Y-82299608D01*
X237418932Y-82081101D01*
X237552182Y-81831808D01*
X237634236Y-81561309D01*
X237661943Y-81280000D01*
X237634236Y-80998691D01*
X237552182Y-80728192D01*
X237418932Y-80478899D01*
X237239608Y-80260392D01*
X237021101Y-80081068D01*
X236888142Y-80010000D01*
X237021101Y-79938932D01*
X237239608Y-79759608D01*
X237418932Y-79541101D01*
X237552182Y-79291808D01*
X237634236Y-79021309D01*
X237661943Y-78740000D01*
X237634236Y-78458691D01*
X237552182Y-78188192D01*
X237418932Y-77938899D01*
X237239608Y-77720392D01*
X237021101Y-77541068D01*
X236888142Y-77470000D01*
X237021101Y-77398932D01*
X237239608Y-77219608D01*
X237418932Y-77001101D01*
X237552182Y-76751808D01*
X237634236Y-76481309D01*
X237661943Y-76200000D01*
X237634236Y-75918691D01*
X237552182Y-75648192D01*
X237418932Y-75398899D01*
X237239608Y-75180392D01*
X237021101Y-75001068D01*
X236888142Y-74930000D01*
X237021101Y-74858932D01*
X237239608Y-74679608D01*
X237418932Y-74461101D01*
X237552182Y-74211808D01*
X237634236Y-73941309D01*
X237661943Y-73660000D01*
X237634236Y-73378691D01*
X237552182Y-73108192D01*
X237418932Y-72858899D01*
X237239608Y-72640392D01*
X237021101Y-72461068D01*
X236888142Y-72390000D01*
X237021101Y-72318932D01*
X237239608Y-72139608D01*
X237418932Y-71921101D01*
X237552182Y-71671808D01*
X237634236Y-71401309D01*
X237661943Y-71120000D01*
X237634236Y-70838691D01*
X237552182Y-70568192D01*
X237418932Y-70318899D01*
X237239608Y-70100392D01*
X237021101Y-69921068D01*
X236888142Y-69850000D01*
X237021101Y-69778932D01*
X237239608Y-69599608D01*
X237418932Y-69381101D01*
X237552182Y-69131808D01*
X237634236Y-68861309D01*
X237661943Y-68580000D01*
X237634236Y-68298691D01*
X237597656Y-68178100D01*
X238697999Y-68178100D01*
X249770900Y-79251002D01*
X249794699Y-79280001D01*
X249823697Y-79303799D01*
X249910424Y-79374974D01*
X250042453Y-79445546D01*
X250185714Y-79489003D01*
X250235861Y-79493942D01*
X250261068Y-79541101D01*
X250440392Y-79759608D01*
X250658899Y-79938932D01*
X250721160Y-79972211D01*
X250710997Y-80005714D01*
X250706058Y-80055861D01*
X250658899Y-80081068D01*
X250440392Y-80260392D01*
X250261068Y-80478899D01*
X250127818Y-80728192D01*
X250045764Y-80998691D01*
X250018057Y-81280000D01*
X250045764Y-81561309D01*
X250127818Y-81831808D01*
X250261068Y-82081101D01*
X250440392Y-82299608D01*
X250658899Y-82478932D01*
X250721160Y-82512211D01*
X250710997Y-82545714D01*
X250706058Y-82595861D01*
X250658899Y-82621068D01*
X250440392Y-82800392D01*
X250261068Y-83018899D01*
X250127818Y-83268192D01*
X250045764Y-83538691D01*
X250018057Y-83820000D01*
X250045764Y-84101309D01*
X250127818Y-84371808D01*
X250261068Y-84621101D01*
X250440392Y-84839608D01*
X250658899Y-85018932D01*
X250908192Y-85152182D01*
X251178691Y-85234236D01*
X251389508Y-85255000D01*
X251530492Y-85255000D01*
X251741309Y-85234236D01*
X252011808Y-85152182D01*
X252261101Y-85018932D01*
X252479608Y-84839608D01*
X252658932Y-84621101D01*
X252792182Y-84371808D01*
X252874236Y-84101309D01*
X252901943Y-83820000D01*
X252874236Y-83538691D01*
X252792182Y-83268192D01*
X252658932Y-83018899D01*
X252583643Y-82927159D01*
X253596703Y-81914099D01*
X253625701Y-81890301D01*
X253720674Y-81774576D01*
X253791246Y-81642547D01*
X253834703Y-81499286D01*
X253845700Y-81387633D01*
X253845700Y-81387625D01*
X253849376Y-81350300D01*
X253845700Y-81312975D01*
X253845700Y-76200722D01*
X253849376Y-76163399D01*
X253845700Y-76126076D01*
X253845700Y-76126067D01*
X253834703Y-76014414D01*
X253791246Y-75871153D01*
X253720674Y-75739124D01*
X253625701Y-75623399D01*
X253596704Y-75599602D01*
X252568452Y-74571351D01*
X252658932Y-74461101D01*
X252792182Y-74211808D01*
X252874236Y-73941309D01*
X252901943Y-73660000D01*
X252874236Y-73378691D01*
X252848758Y-73294700D01*
X253974599Y-73294700D01*
X254850900Y-74171002D01*
X254874699Y-74200001D01*
X254990424Y-74294974D01*
X255122453Y-74365546D01*
X255265714Y-74409003D01*
X255315861Y-74413942D01*
X255341068Y-74461101D01*
X255520392Y-74679608D01*
X255738899Y-74858932D01*
X255871858Y-74930000D01*
X255738899Y-75001068D01*
X255520392Y-75180392D01*
X255341068Y-75398899D01*
X255207818Y-75648192D01*
X255125764Y-75918691D01*
X255098057Y-76200000D01*
X255125764Y-76481309D01*
X255207818Y-76751808D01*
X255341068Y-77001101D01*
X255520392Y-77219608D01*
X255738899Y-77398932D01*
X255871858Y-77470000D01*
X255738899Y-77541068D01*
X255520392Y-77720392D01*
X255341068Y-77938899D01*
X255207818Y-78188192D01*
X255125764Y-78458691D01*
X255098057Y-78740000D01*
X255125764Y-79021309D01*
X255207818Y-79291808D01*
X255341068Y-79541101D01*
X255520392Y-79759608D01*
X255738899Y-79938932D01*
X255871858Y-80010000D01*
X255738899Y-80081068D01*
X255520392Y-80260392D01*
X255341068Y-80478899D01*
X255207818Y-80728192D01*
X255125764Y-80998691D01*
X255098057Y-81280000D01*
X255125764Y-81561309D01*
X255207818Y-81831808D01*
X255341068Y-82081101D01*
X255520392Y-82299608D01*
X255738899Y-82478932D01*
X255871858Y-82550000D01*
X255738899Y-82621068D01*
X255520392Y-82800392D01*
X255341068Y-83018899D01*
X255207818Y-83268192D01*
X255125764Y-83538691D01*
X255098057Y-83820000D01*
X255125764Y-84101309D01*
X255207818Y-84371808D01*
X255341068Y-84621101D01*
X255520392Y-84839608D01*
X255738899Y-85018932D01*
X255988192Y-85152182D01*
X256258691Y-85234236D01*
X256469508Y-85255000D01*
X256610492Y-85255000D01*
X256821309Y-85234236D01*
X257091808Y-85152182D01*
X257341101Y-85018932D01*
X257559608Y-84839608D01*
X257738932Y-84621101D01*
X257872182Y-84371808D01*
X257954236Y-84101309D01*
X257981943Y-83820000D01*
X257954236Y-83538691D01*
X257872182Y-83268192D01*
X257738932Y-83018899D01*
X257559608Y-82800392D01*
X257341101Y-82621068D01*
X257208142Y-82550000D01*
X257341101Y-82478932D01*
X257559608Y-82299608D01*
X257738932Y-82081101D01*
X257764139Y-82033942D01*
X257814286Y-82029003D01*
X257957547Y-81985546D01*
X258089576Y-81914974D01*
X258205301Y-81820001D01*
X258229104Y-81790997D01*
X259155402Y-80864700D01*
X262786409Y-80864700D01*
X262745764Y-80998691D01*
X262718057Y-81280000D01*
X262745764Y-81561309D01*
X262827818Y-81831808D01*
X262961068Y-82081101D01*
X263140392Y-82299608D01*
X263358899Y-82478932D01*
X263491858Y-82550000D01*
X263358899Y-82621068D01*
X263140392Y-82800392D01*
X262961068Y-83018899D01*
X262827818Y-83268192D01*
X262745764Y-83538691D01*
X262718057Y-83820000D01*
X262745764Y-84101309D01*
X262827818Y-84371808D01*
X262961068Y-84621101D01*
X263140392Y-84839608D01*
X263358899Y-85018932D01*
X263608192Y-85152182D01*
X263878691Y-85234236D01*
X264089508Y-85255000D01*
X264230492Y-85255000D01*
X264441309Y-85234236D01*
X264711808Y-85152182D01*
X264961101Y-85018932D01*
X265179608Y-84839608D01*
X265358932Y-84621101D01*
X265380901Y-84580000D01*
X267751928Y-84580000D01*
X267751928Y-84670000D01*
X267764188Y-84794482D01*
X267800498Y-84914180D01*
X267859463Y-85024494D01*
X267938815Y-85121185D01*
X268035506Y-85200537D01*
X268145820Y-85259502D01*
X268265518Y-85295812D01*
X268390000Y-85308072D01*
X270090000Y-85308072D01*
X270214482Y-85295812D01*
X270334180Y-85259502D01*
X270444494Y-85200537D01*
X270541185Y-85121185D01*
X270620537Y-85024494D01*
X270679502Y-84914180D01*
X270715812Y-84794482D01*
X270728072Y-84670000D01*
X270728072Y-82970000D01*
X270715812Y-82845518D01*
X270679502Y-82725820D01*
X270620537Y-82615506D01*
X270541185Y-82518815D01*
X270444494Y-82439463D01*
X270334180Y-82380498D01*
X270265313Y-82359607D01*
X270295134Y-82335134D01*
X270480706Y-82109014D01*
X270618599Y-81851034D01*
X270703513Y-81571111D01*
X270732185Y-81280000D01*
X270703513Y-80988889D01*
X270618599Y-80708966D01*
X270480706Y-80450986D01*
X270295134Y-80224866D01*
X270069014Y-80039294D01*
X270014209Y-80010000D01*
X270069014Y-79980706D01*
X270295134Y-79795134D01*
X270480706Y-79569014D01*
X270618599Y-79311034D01*
X270703513Y-79031111D01*
X270732185Y-78740000D01*
X270703513Y-78448889D01*
X270618599Y-78168966D01*
X270480706Y-77910986D01*
X270295134Y-77684866D01*
X270069014Y-77499294D01*
X270014209Y-77470000D01*
X270069014Y-77440706D01*
X270295134Y-77255134D01*
X270480706Y-77029014D01*
X270618599Y-76771034D01*
X270703513Y-76491111D01*
X270732185Y-76200000D01*
X270703513Y-75908889D01*
X270618599Y-75628966D01*
X270480706Y-75370986D01*
X270295134Y-75144866D01*
X270069014Y-74959294D01*
X270014209Y-74930000D01*
X270069014Y-74900706D01*
X270295134Y-74715134D01*
X270480706Y-74489014D01*
X270618599Y-74231034D01*
X270703513Y-73951111D01*
X270732185Y-73660000D01*
X270703513Y-73368889D01*
X270618599Y-73088966D01*
X270480706Y-72830986D01*
X270295134Y-72604866D01*
X270069014Y-72419294D01*
X270014209Y-72390000D01*
X270069014Y-72360706D01*
X270295134Y-72175134D01*
X270480706Y-71949014D01*
X270618599Y-71691034D01*
X270703513Y-71411111D01*
X270732185Y-71120000D01*
X270703513Y-70828889D01*
X270618599Y-70548966D01*
X270480706Y-70290986D01*
X270295134Y-70064866D01*
X270069014Y-69879294D01*
X270014209Y-69850000D01*
X270069014Y-69820706D01*
X270295134Y-69635134D01*
X270480706Y-69409014D01*
X270618599Y-69151034D01*
X270703513Y-68871111D01*
X270732185Y-68580000D01*
X270703513Y-68288889D01*
X270618599Y-68008966D01*
X270480706Y-67750986D01*
X270295134Y-67524866D01*
X270069014Y-67339294D01*
X270014209Y-67310000D01*
X270069014Y-67280706D01*
X270295134Y-67095134D01*
X270480706Y-66869014D01*
X270618599Y-66611034D01*
X270703513Y-66331111D01*
X270732185Y-66040000D01*
X270703513Y-65748889D01*
X270618599Y-65468966D01*
X270480706Y-65210986D01*
X270295134Y-64984866D01*
X270069014Y-64799294D01*
X269811034Y-64661401D01*
X269531111Y-64576487D01*
X269312950Y-64555000D01*
X269167050Y-64555000D01*
X268948889Y-64576487D01*
X268668966Y-64661401D01*
X268410986Y-64799294D01*
X268291036Y-64897734D01*
X258762304Y-55369003D01*
X258738501Y-55339999D01*
X258622776Y-55245026D01*
X258585872Y-55225300D01*
X261305199Y-55225300D01*
X262470900Y-56391002D01*
X262494699Y-56420001D01*
X262523697Y-56443799D01*
X262610423Y-56514974D01*
X262716089Y-56571454D01*
X262742453Y-56585546D01*
X262885714Y-56629003D01*
X262935861Y-56633942D01*
X262961068Y-56681101D01*
X263140392Y-56899608D01*
X263358899Y-57078932D01*
X263491858Y-57150000D01*
X263358899Y-57221068D01*
X263140392Y-57400392D01*
X262961068Y-57618899D01*
X262827818Y-57868192D01*
X262745764Y-58138691D01*
X262718057Y-58420000D01*
X262745764Y-58701309D01*
X262827818Y-58971808D01*
X262961068Y-59221101D01*
X263140392Y-59439608D01*
X263358899Y-59618932D01*
X263608192Y-59752182D01*
X263878691Y-59834236D01*
X264089508Y-59855000D01*
X264230492Y-59855000D01*
X264441309Y-59834236D01*
X264711808Y-59752182D01*
X264961101Y-59618932D01*
X265179608Y-59439608D01*
X265358932Y-59221101D01*
X265492182Y-58971808D01*
X265574236Y-58701309D01*
X265601943Y-58420000D01*
X265574236Y-58138691D01*
X265492182Y-57868192D01*
X265358932Y-57618899D01*
X265179608Y-57400392D01*
X264961101Y-57221068D01*
X264828142Y-57150000D01*
X264961101Y-57078932D01*
X265179608Y-56899608D01*
X265358932Y-56681101D01*
X265492182Y-56431808D01*
X265574236Y-56161309D01*
X265601943Y-55880000D01*
X265574236Y-55598691D01*
X265492182Y-55328192D01*
X265358932Y-55078899D01*
X265179608Y-54860392D01*
X264961101Y-54681068D01*
X264828142Y-54610000D01*
X264961101Y-54538932D01*
X265179608Y-54359608D01*
X265358932Y-54141101D01*
X265492182Y-53891808D01*
X265574236Y-53621309D01*
X265601943Y-53340000D01*
X265574236Y-53058691D01*
X265492182Y-52788192D01*
X265358932Y-52538899D01*
X265179608Y-52320392D01*
X264961101Y-52141068D01*
X264828142Y-52070000D01*
X264961101Y-51998932D01*
X265179608Y-51819608D01*
X265358932Y-51601101D01*
X265492182Y-51351808D01*
X265574236Y-51081309D01*
X265601943Y-50800000D01*
X265574236Y-50518691D01*
X265533591Y-50384700D01*
X266574599Y-50384700D01*
X267500900Y-51311002D01*
X267524699Y-51340001D01*
X267640424Y-51434974D01*
X267772453Y-51505546D01*
X267915714Y-51549003D01*
X267958795Y-51553246D01*
X267999294Y-51629014D01*
X268184866Y-51855134D01*
X268410986Y-52040706D01*
X268465791Y-52070000D01*
X268410986Y-52099294D01*
X268184866Y-52284866D01*
X267999294Y-52510986D01*
X267861401Y-52768966D01*
X267776487Y-53048889D01*
X267747815Y-53340000D01*
X267776487Y-53631111D01*
X267861401Y-53911034D01*
X267999294Y-54169014D01*
X268184866Y-54395134D01*
X268410986Y-54580706D01*
X268668966Y-54718599D01*
X268948889Y-54803513D01*
X269167050Y-54825000D01*
X269312950Y-54825000D01*
X269531111Y-54803513D01*
X269811034Y-54718599D01*
X270069014Y-54580706D01*
X270295134Y-54395134D01*
X270480706Y-54169014D01*
X270618599Y-53911034D01*
X270703513Y-53631111D01*
X270732185Y-53340000D01*
X270703513Y-53048889D01*
X270618599Y-52768966D01*
X270480706Y-52510986D01*
X270295134Y-52284866D01*
X270069014Y-52099294D01*
X270014209Y-52070000D01*
X270069014Y-52040706D01*
X270295134Y-51855134D01*
X270480706Y-51629014D01*
X270618599Y-51371034D01*
X270703513Y-51091111D01*
X270732185Y-50800000D01*
X270703513Y-50508889D01*
X270618599Y-50228966D01*
X270480706Y-49970986D01*
X270295134Y-49744866D01*
X270069014Y-49559294D01*
X270014209Y-49530000D01*
X270069014Y-49500706D01*
X270295134Y-49315134D01*
X270480706Y-49089014D01*
X270618599Y-48831034D01*
X270703513Y-48551111D01*
X270732185Y-48260000D01*
X270703513Y-47968889D01*
X270618599Y-47688966D01*
X270480706Y-47430986D01*
X270295134Y-47204866D01*
X270069014Y-47019294D01*
X270014209Y-46990000D01*
X270069014Y-46960706D01*
X270295134Y-46775134D01*
X270480706Y-46549014D01*
X270618599Y-46291034D01*
X270703513Y-46011111D01*
X270732185Y-45720000D01*
X270703513Y-45428889D01*
X270618599Y-45148966D01*
X270480706Y-44890986D01*
X270295134Y-44664866D01*
X270265313Y-44640393D01*
X270334180Y-44619502D01*
X270444494Y-44560537D01*
X270541185Y-44481185D01*
X270620537Y-44384494D01*
X270679502Y-44274180D01*
X270715812Y-44154482D01*
X270728072Y-44030000D01*
X270728072Y-42330000D01*
X270715812Y-42205518D01*
X270679502Y-42085820D01*
X270620537Y-41975506D01*
X270541185Y-41878815D01*
X270444494Y-41799463D01*
X270334180Y-41740498D01*
X270214482Y-41704188D01*
X270090000Y-41691928D01*
X268390000Y-41691928D01*
X268265518Y-41704188D01*
X268145820Y-41740498D01*
X268035506Y-41799463D01*
X267938815Y-41878815D01*
X267859463Y-41975506D01*
X267800498Y-42085820D01*
X267764188Y-42205518D01*
X267751928Y-42330000D01*
X267751928Y-42420000D01*
X266476402Y-42420000D01*
X263447745Y-39391344D01*
X263661426Y-39479853D01*
X263938665Y-39535000D01*
X264221335Y-39535000D01*
X264498574Y-39479853D01*
X264759727Y-39371680D01*
X264994759Y-39214637D01*
X265194637Y-39014759D01*
X265351680Y-38779727D01*
X265459853Y-38518574D01*
X265515000Y-38241335D01*
X265515000Y-37958665D01*
X265459853Y-37681426D01*
X265351680Y-37420273D01*
X265194637Y-37185241D01*
X264994759Y-36985363D01*
X264759727Y-36828320D01*
X264498574Y-36720147D01*
X264221335Y-36665000D01*
X263938665Y-36665000D01*
X263661426Y-36720147D01*
X263400273Y-36828320D01*
X263165241Y-36985363D01*
X262965363Y-37185241D01*
X262808320Y-37420273D01*
X262700147Y-37681426D01*
X262645000Y-37958665D01*
X262645000Y-38241335D01*
X262700147Y-38518574D01*
X262788657Y-38732255D01*
X260416004Y-36359603D01*
X260392201Y-36330599D01*
X260276476Y-36235626D01*
X260144447Y-36165054D01*
X260001186Y-36121597D01*
X259889533Y-36110600D01*
X259889522Y-36110600D01*
X259852200Y-36106924D01*
X259814878Y-36110600D01*
X256392033Y-36110600D01*
X256354700Y-36106923D01*
X256317367Y-36110600D01*
X256205714Y-36121597D01*
X256062453Y-36165054D01*
X255930424Y-36235626D01*
X255814699Y-36330599D01*
X255790901Y-36359597D01*
X252502371Y-39648128D01*
X252479608Y-39620392D01*
X252261101Y-39441068D01*
X252128142Y-39370000D01*
X252261101Y-39298932D01*
X252479608Y-39119608D01*
X252658932Y-38901101D01*
X252792182Y-38651808D01*
X252874236Y-38381309D01*
X252901943Y-38100000D01*
X252874236Y-37818691D01*
X252792182Y-37548192D01*
X252658932Y-37298899D01*
X252479608Y-37080392D01*
X252261101Y-36901068D01*
X252123318Y-36827421D01*
X252315131Y-36712385D01*
X252523519Y-36523414D01*
X252691037Y-36297420D01*
X252811246Y-36043087D01*
X252851904Y-35909039D01*
X252729915Y-35687000D01*
X251587000Y-35687000D01*
X251587000Y-35707000D01*
X251333000Y-35707000D01*
X251333000Y-35687000D01*
X250190085Y-35687000D01*
X250068096Y-35909039D01*
X250108754Y-36043087D01*
X250228963Y-36297420D01*
X250396481Y-36523414D01*
X250604869Y-36712385D01*
X250796682Y-36827421D01*
X250658899Y-36901068D01*
X250440392Y-37080392D01*
X250261068Y-37298899D01*
X250235861Y-37346058D01*
X250185714Y-37350997D01*
X250042453Y-37394454D01*
X249910423Y-37465026D01*
X249861016Y-37505574D01*
X249794699Y-37559999D01*
X249770901Y-37588997D01*
X246242099Y-41117800D01*
X237574632Y-41117800D01*
X237634236Y-40921309D01*
X237661943Y-40640000D01*
X237634236Y-40358691D01*
X237552182Y-40088192D01*
X237418932Y-39838899D01*
X237239608Y-39620392D01*
X237021101Y-39441068D01*
X236888142Y-39370000D01*
X237021101Y-39298932D01*
X237239608Y-39119608D01*
X237418932Y-38901101D01*
X237552182Y-38651808D01*
X237634236Y-38381309D01*
X237661943Y-38100000D01*
X237634236Y-37818691D01*
X237552182Y-37548192D01*
X237418932Y-37298899D01*
X237239608Y-37080392D01*
X237126518Y-36987581D01*
X237144482Y-36985812D01*
X237264180Y-36949502D01*
X237374494Y-36890537D01*
X237471185Y-36811185D01*
X237550537Y-36714494D01*
X237609502Y-36604180D01*
X237645812Y-36484482D01*
X237658072Y-36360000D01*
X237658072Y-35210961D01*
X250068096Y-35210961D01*
X250190085Y-35433000D01*
X251333000Y-35433000D01*
X251333000Y-34289376D01*
X251587000Y-34289376D01*
X251587000Y-35433000D01*
X252729915Y-35433000D01*
X252851904Y-35210961D01*
X252811246Y-35076913D01*
X252691037Y-34822580D01*
X252523519Y-34596586D01*
X252315131Y-34407615D01*
X252119018Y-34290000D01*
X267747815Y-34290000D01*
X267776487Y-34581111D01*
X267861401Y-34861034D01*
X267999294Y-35119014D01*
X268184866Y-35345134D01*
X268410986Y-35530706D01*
X268465791Y-35560000D01*
X268410986Y-35589294D01*
X268184866Y-35774866D01*
X267999294Y-36000986D01*
X267861401Y-36258966D01*
X267776487Y-36538889D01*
X267747815Y-36830000D01*
X267776487Y-37121111D01*
X267861401Y-37401034D01*
X267999294Y-37659014D01*
X268184866Y-37885134D01*
X268410986Y-38070706D01*
X268465791Y-38100000D01*
X268410986Y-38129294D01*
X268184866Y-38314866D01*
X267999294Y-38540986D01*
X267861401Y-38798966D01*
X267776487Y-39078889D01*
X267747815Y-39370000D01*
X267776487Y-39661111D01*
X267861401Y-39941034D01*
X267999294Y-40199014D01*
X268184866Y-40425134D01*
X268410986Y-40610706D01*
X268668966Y-40748599D01*
X268948889Y-40833513D01*
X269167050Y-40855000D01*
X269312950Y-40855000D01*
X269531111Y-40833513D01*
X269811034Y-40748599D01*
X270069014Y-40610706D01*
X270295134Y-40425134D01*
X270480706Y-40199014D01*
X270618599Y-39941034D01*
X270703513Y-39661111D01*
X270732185Y-39370000D01*
X270703513Y-39078889D01*
X270618599Y-38798966D01*
X270480706Y-38540986D01*
X270295134Y-38314866D01*
X270069014Y-38129294D01*
X270014209Y-38100000D01*
X270069014Y-38070706D01*
X270295134Y-37885134D01*
X270480706Y-37659014D01*
X270618599Y-37401034D01*
X270703513Y-37121111D01*
X270732185Y-36830000D01*
X270703513Y-36538889D01*
X270618599Y-36258966D01*
X270480706Y-36000986D01*
X270295134Y-35774866D01*
X270069014Y-35589294D01*
X270014209Y-35560000D01*
X270069014Y-35530706D01*
X270295134Y-35345134D01*
X270480706Y-35119014D01*
X270618599Y-34861034D01*
X270703513Y-34581111D01*
X270732185Y-34290000D01*
X270703513Y-33998889D01*
X270618599Y-33718966D01*
X270480706Y-33460986D01*
X270295134Y-33234866D01*
X270265313Y-33210393D01*
X270334180Y-33189502D01*
X270444494Y-33130537D01*
X270541185Y-33051185D01*
X270620537Y-32954494D01*
X270679502Y-32844180D01*
X270715812Y-32724482D01*
X270728072Y-32600000D01*
X270728072Y-30900000D01*
X270715812Y-30775518D01*
X270679502Y-30655820D01*
X270620537Y-30545506D01*
X270541185Y-30448815D01*
X270444494Y-30369463D01*
X270334180Y-30310498D01*
X270214482Y-30274188D01*
X270090000Y-30261928D01*
X268390000Y-30261928D01*
X268265518Y-30274188D01*
X268145820Y-30310498D01*
X268035506Y-30369463D01*
X267938815Y-30448815D01*
X267859463Y-30545506D01*
X267800498Y-30655820D01*
X267764188Y-30775518D01*
X267751928Y-30900000D01*
X267751928Y-32600000D01*
X267764188Y-32724482D01*
X267800498Y-32844180D01*
X267859463Y-32954494D01*
X267938815Y-33051185D01*
X268035506Y-33130537D01*
X268145820Y-33189502D01*
X268214687Y-33210393D01*
X268184866Y-33234866D01*
X267999294Y-33460986D01*
X267861401Y-33718966D01*
X267776487Y-33998889D01*
X267747815Y-34290000D01*
X252119018Y-34290000D01*
X252073881Y-34262930D01*
X251809040Y-34168091D01*
X251587000Y-34289376D01*
X251333000Y-34289376D01*
X251110960Y-34168091D01*
X250846119Y-34262930D01*
X250604869Y-34407615D01*
X250396481Y-34596586D01*
X250228963Y-34822580D01*
X250108754Y-35076913D01*
X250068096Y-35210961D01*
X237658072Y-35210961D01*
X237658072Y-34760000D01*
X237645812Y-34635518D01*
X237609502Y-34515820D01*
X237550537Y-34405506D01*
X237471185Y-34308815D01*
X237374494Y-34229463D01*
X237264180Y-34170498D01*
X237144482Y-34134188D01*
X237020000Y-34121928D01*
X235764374Y-34121928D01*
X236731003Y-33155299D01*
X236760001Y-33131501D01*
X236854974Y-33015776D01*
X236925546Y-32883747D01*
X236969003Y-32740486D01*
X236980000Y-32628833D01*
X236980000Y-32628825D01*
X236983676Y-32591500D01*
X236980000Y-32554175D01*
X236980000Y-30338665D01*
X239945000Y-30338665D01*
X239945000Y-30621335D01*
X240000147Y-30898574D01*
X240108320Y-31159727D01*
X240265363Y-31394759D01*
X240465241Y-31594637D01*
X240700273Y-31751680D01*
X240961426Y-31859853D01*
X241238665Y-31915000D01*
X241521335Y-31915000D01*
X241798574Y-31859853D01*
X242059727Y-31751680D01*
X242294759Y-31594637D01*
X242416694Y-31472702D01*
X245566903Y-31472702D01*
X245638486Y-31716671D01*
X245893996Y-31837571D01*
X246168184Y-31906300D01*
X246450512Y-31920217D01*
X246730130Y-31878787D01*
X246996292Y-31783603D01*
X247121514Y-31716671D01*
X247193097Y-31472702D01*
X246380000Y-30659605D01*
X245566903Y-31472702D01*
X242416694Y-31472702D01*
X242494637Y-31394759D01*
X242651680Y-31159727D01*
X242759853Y-30898574D01*
X242815000Y-30621335D01*
X242815000Y-30550512D01*
X244939783Y-30550512D01*
X244981213Y-30830130D01*
X245076397Y-31096292D01*
X245143329Y-31221514D01*
X245387298Y-31293097D01*
X246200395Y-30480000D01*
X246559605Y-30480000D01*
X247372702Y-31293097D01*
X247616671Y-31221514D01*
X247737571Y-30966004D01*
X247806300Y-30691816D01*
X247820217Y-30409488D01*
X247778787Y-30129870D01*
X247683603Y-29863708D01*
X247616671Y-29738486D01*
X247372702Y-29666903D01*
X246559605Y-30480000D01*
X246200395Y-30480000D01*
X245387298Y-29666903D01*
X245143329Y-29738486D01*
X245022429Y-29993996D01*
X244953700Y-30268184D01*
X244939783Y-30550512D01*
X242815000Y-30550512D01*
X242815000Y-30338665D01*
X242759853Y-30061426D01*
X242651680Y-29800273D01*
X242494637Y-29565241D01*
X242416694Y-29487298D01*
X245566903Y-29487298D01*
X246380000Y-30300395D01*
X247193097Y-29487298D01*
X247121514Y-29243329D01*
X246866004Y-29122429D01*
X246591816Y-29053700D01*
X246309488Y-29039783D01*
X246029870Y-29081213D01*
X245763708Y-29176397D01*
X245638486Y-29243329D01*
X245566903Y-29487298D01*
X242416694Y-29487298D01*
X242294759Y-29365363D01*
X242059727Y-29208320D01*
X241798574Y-29100147D01*
X241521335Y-29045000D01*
X241238665Y-29045000D01*
X240961426Y-29100147D01*
X240700273Y-29208320D01*
X240465241Y-29365363D01*
X240265363Y-29565241D01*
X240108320Y-29800273D01*
X240000147Y-30061426D01*
X239945000Y-30338665D01*
X236980000Y-30338665D01*
X236980000Y-26274909D01*
X236994463Y-26268918D01*
X237262252Y-26089987D01*
X237489987Y-25862252D01*
X237668918Y-25594463D01*
X237674909Y-25580000D01*
X241265091Y-25580000D01*
X241271082Y-25594463D01*
X241450013Y-25862252D01*
X241677748Y-26089987D01*
X241945537Y-26268918D01*
X242243088Y-26392168D01*
X242558967Y-26455000D01*
X242881033Y-26455000D01*
X243196912Y-26392168D01*
X243494463Y-26268918D01*
X243762252Y-26089987D01*
X243989987Y-25862252D01*
X244168918Y-25594463D01*
X244292168Y-25296912D01*
X244355000Y-24981033D01*
X244355000Y-24730967D01*
X249929000Y-24730967D01*
X249929000Y-25053033D01*
X249991832Y-25368912D01*
X250115082Y-25666463D01*
X250294013Y-25934252D01*
X250521748Y-26161987D01*
X250789537Y-26340918D01*
X251087088Y-26464168D01*
X251402967Y-26527000D01*
X251725033Y-26527000D01*
X252040912Y-26464168D01*
X252338463Y-26340918D01*
X252606252Y-26161987D01*
X252833987Y-25934252D01*
X253012918Y-25666463D01*
X253018909Y-25652000D01*
X256609091Y-25652000D01*
X256615082Y-25666463D01*
X256794013Y-25934252D01*
X257021748Y-26161987D01*
X257289537Y-26340918D01*
X257587088Y-26464168D01*
X257902967Y-26527000D01*
X258225033Y-26527000D01*
X258540912Y-26464168D01*
X258838463Y-26340918D01*
X259106252Y-26161987D01*
X259333987Y-25934252D01*
X259512918Y-25666463D01*
X259636168Y-25368912D01*
X259699000Y-25053033D01*
X259699000Y-24730967D01*
X259636168Y-24415088D01*
X259512918Y-24117537D01*
X259333987Y-23849748D01*
X259106252Y-23622013D01*
X258838463Y-23443082D01*
X258540912Y-23319832D01*
X258225033Y-23257000D01*
X257902967Y-23257000D01*
X257587088Y-23319832D01*
X257289537Y-23443082D01*
X257021748Y-23622013D01*
X256794013Y-23849748D01*
X256615082Y-24117537D01*
X256609091Y-24132000D01*
X253018909Y-24132000D01*
X253012918Y-24117537D01*
X252833987Y-23849748D01*
X252606252Y-23622013D01*
X252338463Y-23443082D01*
X252040912Y-23319832D01*
X251725033Y-23257000D01*
X251402967Y-23257000D01*
X251087088Y-23319832D01*
X250789537Y-23443082D01*
X250521748Y-23622013D01*
X250294013Y-23849748D01*
X250115082Y-24117537D01*
X249991832Y-24415088D01*
X249929000Y-24730967D01*
X244355000Y-24730967D01*
X244355000Y-24658967D01*
X244292168Y-24343088D01*
X244168918Y-24045537D01*
X243989987Y-23777748D01*
X243762252Y-23550013D01*
X243494463Y-23371082D01*
X243196912Y-23247832D01*
X242881033Y-23185000D01*
X242558967Y-23185000D01*
X242243088Y-23247832D01*
X241945537Y-23371082D01*
X241677748Y-23550013D01*
X241450013Y-23777748D01*
X241271082Y-24045537D01*
X241265091Y-24060000D01*
X237674909Y-24060000D01*
X237668918Y-24045537D01*
X237489987Y-23777748D01*
X237262252Y-23550013D01*
X236994463Y-23371082D01*
X236696912Y-23247832D01*
X236381033Y-23185000D01*
X236058967Y-23185000D01*
X235743088Y-23247832D01*
X235445537Y-23371082D01*
X235177748Y-23550013D01*
X234950013Y-23777748D01*
X234771082Y-24045537D01*
X234647832Y-24343088D01*
X234585000Y-24658967D01*
X234585000Y-24981033D01*
X234647832Y-25296912D01*
X234771082Y-25594463D01*
X234950013Y-25862252D01*
X235177748Y-26089987D01*
X235445537Y-26268918D01*
X235460000Y-26274909D01*
X235460001Y-32276697D01*
X233858299Y-33878400D01*
X220524225Y-33878400D01*
X220486900Y-33874724D01*
X220449575Y-33878400D01*
X220449567Y-33878400D01*
X220337914Y-33889397D01*
X220194653Y-33932854D01*
X220062624Y-34003426D01*
X219946899Y-34098399D01*
X219923101Y-34127397D01*
X216942371Y-37108128D01*
X216919608Y-37080392D01*
X216806518Y-36987581D01*
X216824482Y-36985812D01*
X216944180Y-36949502D01*
X217054494Y-36890537D01*
X217151185Y-36811185D01*
X217230537Y-36714494D01*
X217289502Y-36604180D01*
X217325812Y-36484482D01*
X217338072Y-36360000D01*
X217335000Y-35845750D01*
X217176250Y-35687000D01*
X216027000Y-35687000D01*
X216027000Y-35707000D01*
X215773000Y-35707000D01*
X215773000Y-35687000D01*
X214623750Y-35687000D01*
X214465000Y-35845750D01*
X214461928Y-36360000D01*
X214474188Y-36484482D01*
X214510498Y-36604180D01*
X214569463Y-36714494D01*
X214648815Y-36811185D01*
X214745506Y-36890537D01*
X214855820Y-36949502D01*
X214975518Y-36985812D01*
X214993482Y-36987581D01*
X214880392Y-37080392D01*
X214701068Y-37298899D01*
X214567818Y-37548192D01*
X214485764Y-37818691D01*
X214458057Y-38100000D01*
X214485764Y-38381309D01*
X214567818Y-38651808D01*
X214701068Y-38901101D01*
X214880392Y-39119608D01*
X215098899Y-39298932D01*
X215231858Y-39370000D01*
X215098899Y-39441068D01*
X214880392Y-39620392D01*
X214701068Y-39838899D01*
X214567818Y-40088192D01*
X214485764Y-40358691D01*
X214458057Y-40640000D01*
X214485764Y-40921309D01*
X214567818Y-41191808D01*
X214701068Y-41441101D01*
X214880392Y-41659608D01*
X215098899Y-41838932D01*
X215231858Y-41910000D01*
X215098899Y-41981068D01*
X214880392Y-42160392D01*
X214701068Y-42378899D01*
X214567818Y-42628192D01*
X214485764Y-42898691D01*
X214458057Y-43180000D01*
X214485764Y-43461309D01*
X214567818Y-43731808D01*
X214701068Y-43981101D01*
X214880392Y-44199608D01*
X215098899Y-44378932D01*
X215231858Y-44450000D01*
X215098899Y-44521068D01*
X214880392Y-44700392D01*
X214701068Y-44918899D01*
X214679099Y-44960000D01*
X214572622Y-44960000D01*
X214535299Y-44956324D01*
X214497976Y-44960000D01*
X214497967Y-44960000D01*
X214386314Y-44970997D01*
X214243053Y-45014454D01*
X214111024Y-45085026D01*
X214111022Y-45085027D01*
X214111023Y-45085027D01*
X214024296Y-45156201D01*
X214024292Y-45156205D01*
X213995299Y-45179999D01*
X213971505Y-45208992D01*
X212166485Y-47014013D01*
X212121185Y-46958815D01*
X212024494Y-46879463D01*
X211914180Y-46820498D01*
X211794482Y-46784188D01*
X211670000Y-46771928D01*
X209970000Y-46771928D01*
X209845518Y-46784188D01*
X209725820Y-46820498D01*
X209615506Y-46879463D01*
X209518815Y-46958815D01*
X209439463Y-47055506D01*
X209380498Y-47165820D01*
X209344188Y-47285518D01*
X209331928Y-47410000D01*
X209331928Y-48745000D01*
X209220825Y-48745000D01*
X209183500Y-48741324D01*
X209146175Y-48745000D01*
X209146167Y-48745000D01*
X209034514Y-48755997D01*
X208891253Y-48799454D01*
X208759224Y-48870026D01*
X208643499Y-48964999D01*
X208619701Y-48993997D01*
X206303699Y-51310000D01*
X199458526Y-51310000D01*
X199471246Y-51283087D01*
X199511904Y-51149039D01*
X199389915Y-50927000D01*
X198247000Y-50927000D01*
X198247000Y-50947000D01*
X197993000Y-50947000D01*
X197993000Y-50927000D01*
X196850085Y-50927000D01*
X196728096Y-51149039D01*
X196768754Y-51283087D01*
X196888963Y-51537420D01*
X196957379Y-51629719D01*
X196359198Y-52227901D01*
X196330200Y-52251699D01*
X196306402Y-52280697D01*
X196306401Y-52280698D01*
X196235226Y-52367424D01*
X196164654Y-52499454D01*
X196136886Y-52590997D01*
X196123903Y-52633799D01*
X196121198Y-52642715D01*
X196106524Y-52791700D01*
X196110201Y-52829032D01*
X196110200Y-64049578D01*
X196106524Y-64086900D01*
X196110200Y-64124222D01*
X196110200Y-64124232D01*
X196121197Y-64235885D01*
X196151263Y-64335000D01*
X196164654Y-64379146D01*
X196235226Y-64511176D01*
X196267909Y-64551000D01*
X196330199Y-64626901D01*
X196359202Y-64650703D01*
X196932936Y-65224438D01*
X196921068Y-65238899D01*
X196787818Y-65488192D01*
X196705764Y-65758691D01*
X196678057Y-66040000D01*
X196705764Y-66321309D01*
X196731242Y-66405300D01*
X193743711Y-66405300D01*
X193699774Y-66361363D01*
X193530256Y-66248095D01*
X193341898Y-66170074D01*
X193141939Y-66130300D01*
X192938061Y-66130300D01*
X192738102Y-66170074D01*
X192549744Y-66248095D01*
X192380226Y-66361363D01*
X192236063Y-66505526D01*
X192122795Y-66675044D01*
X192044774Y-66863402D01*
X192005000Y-67063361D01*
X192005000Y-67267239D01*
X192044774Y-67467198D01*
X192122795Y-67655556D01*
X192236063Y-67825074D01*
X192380226Y-67969237D01*
X192549744Y-68082505D01*
X192738102Y-68160526D01*
X192938061Y-68200300D01*
X193141939Y-68200300D01*
X193341898Y-68160526D01*
X193530256Y-68082505D01*
X193699774Y-67969237D01*
X193743711Y-67925300D01*
X196842815Y-67925300D01*
X196787818Y-68028192D01*
X196705764Y-68298691D01*
X196678057Y-68580000D01*
X196705764Y-68861309D01*
X196753689Y-69019300D01*
X188059402Y-69019300D01*
X184569104Y-65529003D01*
X184545301Y-65499999D01*
X184429576Y-65405026D01*
X184297547Y-65334454D01*
X184154286Y-65290997D01*
X184104139Y-65286058D01*
X184078932Y-65238899D01*
X183899608Y-65020392D01*
X183681101Y-64841068D01*
X183618840Y-64807789D01*
X183629003Y-64774286D01*
X183633942Y-64724139D01*
X183681101Y-64698932D01*
X183899608Y-64519608D01*
X184078932Y-64301101D01*
X184212182Y-64051808D01*
X184294236Y-63781309D01*
X184321943Y-63500000D01*
X184294236Y-63218691D01*
X184212182Y-62948192D01*
X184078932Y-62698899D01*
X183899608Y-62480392D01*
X183681101Y-62301068D01*
X183548142Y-62230000D01*
X183681101Y-62158932D01*
X183899608Y-61979608D01*
X184078932Y-61761101D01*
X184212182Y-61511808D01*
X184294236Y-61241309D01*
X184321943Y-60960000D01*
X184294236Y-60678691D01*
X184212182Y-60408192D01*
X184078932Y-60158899D01*
X183899608Y-59940392D01*
X183681101Y-59761068D01*
X183618840Y-59727789D01*
X183629003Y-59694286D01*
X183633942Y-59644139D01*
X183681101Y-59618932D01*
X183899608Y-59439608D01*
X184078932Y-59221101D01*
X184212182Y-58971808D01*
X184294236Y-58701309D01*
X184321943Y-58420000D01*
X184294236Y-58138691D01*
X184212182Y-57868192D01*
X184078932Y-57618899D01*
X183899608Y-57400392D01*
X183681101Y-57221068D01*
X183618840Y-57187789D01*
X183629003Y-57154286D01*
X183633942Y-57104139D01*
X183681101Y-57078932D01*
X183899608Y-56899608D01*
X184078932Y-56681101D01*
X184212182Y-56431808D01*
X184294236Y-56161309D01*
X184321943Y-55880000D01*
X184294236Y-55598691D01*
X184212182Y-55328192D01*
X184078932Y-55078899D01*
X183899608Y-54860392D01*
X183681101Y-54681068D01*
X183548142Y-54610000D01*
X183681101Y-54538932D01*
X183899608Y-54359608D01*
X184078932Y-54141101D01*
X184212182Y-53891808D01*
X184294236Y-53621309D01*
X184321943Y-53340000D01*
X184294236Y-53058691D01*
X184212182Y-52788192D01*
X184078932Y-52538899D01*
X183899608Y-52320392D01*
X183786518Y-52227581D01*
X183804482Y-52225812D01*
X183924180Y-52189502D01*
X184034494Y-52130537D01*
X184131185Y-52051185D01*
X184210537Y-51954494D01*
X184269502Y-51844180D01*
X184305812Y-51724482D01*
X184318072Y-51600000D01*
X184315000Y-51085750D01*
X184156250Y-50927000D01*
X183007000Y-50927000D01*
X183007000Y-50947000D01*
X182753000Y-50947000D01*
X182753000Y-50927000D01*
X181603750Y-50927000D01*
X181445000Y-51085750D01*
X181441928Y-51600000D01*
X181454188Y-51724482D01*
X181490498Y-51844180D01*
X181549463Y-51954494D01*
X181628815Y-52051185D01*
X181725506Y-52130537D01*
X181835820Y-52189502D01*
X181955518Y-52225812D01*
X181973482Y-52227581D01*
X181860392Y-52320392D01*
X181681068Y-52538899D01*
X181547818Y-52788192D01*
X181465764Y-53058691D01*
X181438057Y-53340000D01*
X181465764Y-53621309D01*
X181547818Y-53891808D01*
X181681068Y-54141101D01*
X181860392Y-54359608D01*
X182078899Y-54538932D01*
X182211858Y-54610000D01*
X182078899Y-54681068D01*
X181860392Y-54860392D01*
X181681068Y-55078899D01*
X181547818Y-55328192D01*
X181465764Y-55598691D01*
X181438057Y-55880000D01*
X181465764Y-56161309D01*
X181547818Y-56431808D01*
X181681068Y-56681101D01*
X181756357Y-56772841D01*
X180315198Y-58214001D01*
X180286200Y-58237799D01*
X180262402Y-58266797D01*
X180262401Y-58266798D01*
X180191226Y-58353524D01*
X180120654Y-58485554D01*
X180095347Y-58568985D01*
X180077198Y-58628814D01*
X180066201Y-58740467D01*
X180062524Y-58777800D01*
X177927000Y-58777800D01*
X177927000Y-50000000D01*
X181441928Y-50000000D01*
X181445000Y-50514250D01*
X181603750Y-50673000D01*
X182753000Y-50673000D01*
X182753000Y-49523750D01*
X183007000Y-49523750D01*
X183007000Y-50673000D01*
X184156250Y-50673000D01*
X184315000Y-50514250D01*
X184315378Y-50450961D01*
X196728096Y-50450961D01*
X196850085Y-50673000D01*
X197993000Y-50673000D01*
X197993000Y-49529376D01*
X198247000Y-49529376D01*
X198247000Y-50673000D01*
X199389915Y-50673000D01*
X199511904Y-50450961D01*
X199471246Y-50316913D01*
X199351037Y-50062580D01*
X199183519Y-49836586D01*
X198975131Y-49647615D01*
X198733881Y-49502930D01*
X198469040Y-49408091D01*
X198247000Y-49529376D01*
X197993000Y-49529376D01*
X197770960Y-49408091D01*
X197506119Y-49502930D01*
X197264869Y-49647615D01*
X197056481Y-49836586D01*
X196888963Y-50062580D01*
X196768754Y-50316913D01*
X196728096Y-50450961D01*
X184315378Y-50450961D01*
X184318072Y-50000000D01*
X184305812Y-49875518D01*
X184269502Y-49755820D01*
X184210537Y-49645506D01*
X184131185Y-49548815D01*
X184034494Y-49469463D01*
X183924180Y-49410498D01*
X183804482Y-49374188D01*
X183680000Y-49361928D01*
X183165750Y-49365000D01*
X183007000Y-49523750D01*
X182753000Y-49523750D01*
X182594250Y-49365000D01*
X182080000Y-49361928D01*
X181955518Y-49374188D01*
X181835820Y-49410498D01*
X181725506Y-49469463D01*
X181628815Y-49548815D01*
X181549463Y-49645506D01*
X181490498Y-49755820D01*
X181454188Y-49875518D01*
X181441928Y-50000000D01*
X177927000Y-50000000D01*
X177927000Y-45578665D01*
X186605000Y-45578665D01*
X186605000Y-45861335D01*
X186660147Y-46138574D01*
X186768320Y-46399727D01*
X186925363Y-46634759D01*
X187125241Y-46834637D01*
X187360273Y-46991680D01*
X187621426Y-47099853D01*
X187898665Y-47155000D01*
X188181335Y-47155000D01*
X188458574Y-47099853D01*
X188719727Y-46991680D01*
X188954759Y-46834637D01*
X189076694Y-46712702D01*
X192226903Y-46712702D01*
X192298486Y-46956671D01*
X192553996Y-47077571D01*
X192828184Y-47146300D01*
X193110512Y-47160217D01*
X193390130Y-47118787D01*
X193656292Y-47023603D01*
X193781514Y-46956671D01*
X193853097Y-46712702D01*
X193040000Y-45899605D01*
X192226903Y-46712702D01*
X189076694Y-46712702D01*
X189154637Y-46634759D01*
X189311680Y-46399727D01*
X189419853Y-46138574D01*
X189475000Y-45861335D01*
X189475000Y-45790512D01*
X191599783Y-45790512D01*
X191641213Y-46070130D01*
X191736397Y-46336292D01*
X191803329Y-46461514D01*
X192047298Y-46533097D01*
X192860395Y-45720000D01*
X193219605Y-45720000D01*
X194032702Y-46533097D01*
X194276671Y-46461514D01*
X194397571Y-46206004D01*
X194466300Y-45931816D01*
X194480217Y-45649488D01*
X194438787Y-45369870D01*
X194343603Y-45103708D01*
X194276671Y-44978486D01*
X194032702Y-44906903D01*
X193219605Y-45720000D01*
X192860395Y-45720000D01*
X192047298Y-44906903D01*
X191803329Y-44978486D01*
X191682429Y-45233996D01*
X191613700Y-45508184D01*
X191599783Y-45790512D01*
X189475000Y-45790512D01*
X189475000Y-45578665D01*
X189456285Y-45484582D01*
X190213569Y-44727298D01*
X192226903Y-44727298D01*
X193040000Y-45540395D01*
X193853097Y-44727298D01*
X193781514Y-44483329D01*
X193526004Y-44362429D01*
X193251816Y-44293700D01*
X192969488Y-44279783D01*
X192689870Y-44321213D01*
X192423708Y-44416397D01*
X192298486Y-44483329D01*
X192226903Y-44727298D01*
X190213569Y-44727298D01*
X193465869Y-41475000D01*
X207157773Y-41475000D01*
X207194880Y-41530535D01*
X207389465Y-41725120D01*
X207618273Y-41878005D01*
X207872510Y-41983314D01*
X208142408Y-42037000D01*
X208417592Y-42037000D01*
X208687490Y-41983314D01*
X208941727Y-41878005D01*
X209170535Y-41725120D01*
X209365120Y-41530535D01*
X209518005Y-41301727D01*
X209623314Y-41047490D01*
X209677000Y-40777592D01*
X209677000Y-40502408D01*
X209623314Y-40232510D01*
X209518005Y-39978273D01*
X209365120Y-39749465D01*
X209170535Y-39554880D01*
X208941727Y-39401995D01*
X208687490Y-39296686D01*
X208417592Y-39243000D01*
X208142408Y-39243000D01*
X207872510Y-39296686D01*
X207618273Y-39401995D01*
X207389465Y-39554880D01*
X207194880Y-39749465D01*
X207157773Y-39805000D01*
X193161018Y-39805000D01*
X193120000Y-39800960D01*
X192956311Y-39817082D01*
X192798913Y-39864828D01*
X192653854Y-39942364D01*
X192603173Y-39983957D01*
X192526709Y-40046709D01*
X192500563Y-40078568D01*
X188275418Y-44303715D01*
X188181335Y-44285000D01*
X187898665Y-44285000D01*
X187621426Y-44340147D01*
X187360273Y-44448320D01*
X187125241Y-44605363D01*
X186925363Y-44805241D01*
X186768320Y-45040273D01*
X186660147Y-45301426D01*
X186605000Y-45578665D01*
X177927000Y-45578665D01*
X177927000Y-40502408D01*
X181483000Y-40502408D01*
X181483000Y-40777592D01*
X181536686Y-41047490D01*
X181641995Y-41301727D01*
X181794880Y-41530535D01*
X181989465Y-41725120D01*
X182218273Y-41878005D01*
X182472510Y-41983314D01*
X182742408Y-42037000D01*
X183017592Y-42037000D01*
X183287490Y-41983314D01*
X183541727Y-41878005D01*
X183770535Y-41725120D01*
X183965120Y-41530535D01*
X184118005Y-41301727D01*
X184223314Y-41047490D01*
X184277000Y-40777592D01*
X184277000Y-40502408D01*
X184223314Y-40232510D01*
X184118005Y-39978273D01*
X183965120Y-39749465D01*
X183770535Y-39554880D01*
X183541727Y-39401995D01*
X183287490Y-39296686D01*
X183017592Y-39243000D01*
X182742408Y-39243000D01*
X182472510Y-39296686D01*
X182218273Y-39401995D01*
X181989465Y-39554880D01*
X181794880Y-39749465D01*
X181641995Y-39978273D01*
X181536686Y-40232510D01*
X181483000Y-40502408D01*
X177927000Y-40502408D01*
X177927000Y-34760000D01*
X214461928Y-34760000D01*
X214465000Y-35274250D01*
X214623750Y-35433000D01*
X215773000Y-35433000D01*
X215773000Y-34283750D01*
X216027000Y-34283750D01*
X216027000Y-35433000D01*
X217176250Y-35433000D01*
X217335000Y-35274250D01*
X217338072Y-34760000D01*
X217325812Y-34635518D01*
X217289502Y-34515820D01*
X217230537Y-34405506D01*
X217151185Y-34308815D01*
X217054494Y-34229463D01*
X216944180Y-34170498D01*
X216824482Y-34134188D01*
X216700000Y-34121928D01*
X216185750Y-34125000D01*
X216027000Y-34283750D01*
X215773000Y-34283750D01*
X215614250Y-34125000D01*
X215100000Y-34121928D01*
X214975518Y-34134188D01*
X214855820Y-34170498D01*
X214745506Y-34229463D01*
X214648815Y-34308815D01*
X214569463Y-34405506D01*
X214510498Y-34515820D01*
X214474188Y-34635518D01*
X214461928Y-34760000D01*
X177927000Y-34760000D01*
X177927000Y-26365565D01*
X182094040Y-26365565D01*
X182161020Y-26605656D01*
X182410048Y-26722756D01*
X182677135Y-26789023D01*
X182952017Y-26801910D01*
X183224133Y-26760922D01*
X183483023Y-26667636D01*
X183598980Y-26605656D01*
X183665960Y-26365565D01*
X182880000Y-25579605D01*
X182094040Y-26365565D01*
X177927000Y-26365565D01*
X177927000Y-25472017D01*
X181478090Y-25472017D01*
X181519078Y-25744133D01*
X181612364Y-26003023D01*
X181674344Y-26118980D01*
X181914435Y-26185960D01*
X182700395Y-25400000D01*
X183059605Y-25400000D01*
X183845565Y-26185960D01*
X184085656Y-26118980D01*
X184202756Y-25869952D01*
X184269023Y-25602865D01*
X184281910Y-25327983D01*
X184272033Y-25262408D01*
X206883000Y-25262408D01*
X206883000Y-25537592D01*
X206936686Y-25807490D01*
X207041995Y-26061727D01*
X207194880Y-26290535D01*
X207389465Y-26485120D01*
X207618273Y-26638005D01*
X207872510Y-26743314D01*
X208142408Y-26797000D01*
X208417592Y-26797000D01*
X208687490Y-26743314D01*
X208941727Y-26638005D01*
X209170535Y-26485120D01*
X209365120Y-26290535D01*
X209402227Y-26235000D01*
X214664207Y-26235000D01*
X214844866Y-26455134D01*
X215070986Y-26640706D01*
X215328966Y-26778599D01*
X215608889Y-26863513D01*
X215827050Y-26885000D01*
X215972950Y-26885000D01*
X216191111Y-26863513D01*
X216471034Y-26778599D01*
X216729014Y-26640706D01*
X216955134Y-26455134D01*
X217140706Y-26229014D01*
X217170000Y-26174209D01*
X217199294Y-26229014D01*
X217384866Y-26455134D01*
X217610986Y-26640706D01*
X217868966Y-26778599D01*
X218148889Y-26863513D01*
X218367050Y-26885000D01*
X218512950Y-26885000D01*
X218731111Y-26863513D01*
X219011034Y-26778599D01*
X219269014Y-26640706D01*
X219495134Y-26455134D01*
X219519607Y-26425313D01*
X219540498Y-26494180D01*
X219599463Y-26604494D01*
X219678815Y-26701185D01*
X219775506Y-26780537D01*
X219885820Y-26839502D01*
X220005518Y-26875812D01*
X220130000Y-26888072D01*
X220694250Y-26885000D01*
X220853000Y-26726250D01*
X220853000Y-25527000D01*
X221107000Y-25527000D01*
X221107000Y-26726250D01*
X221265750Y-26885000D01*
X221830000Y-26888072D01*
X221954482Y-26875812D01*
X222074180Y-26839502D01*
X222184494Y-26780537D01*
X222281185Y-26701185D01*
X222360537Y-26604494D01*
X222419502Y-26494180D01*
X222455812Y-26374482D01*
X222468072Y-26250000D01*
X222465000Y-25685750D01*
X222306250Y-25527000D01*
X221107000Y-25527000D01*
X220853000Y-25527000D01*
X220833000Y-25527000D01*
X220833000Y-25273000D01*
X220853000Y-25273000D01*
X220853000Y-24073750D01*
X221107000Y-24073750D01*
X221107000Y-25273000D01*
X222306250Y-25273000D01*
X222465000Y-25114250D01*
X222468072Y-24550000D01*
X222455812Y-24425518D01*
X222419502Y-24305820D01*
X222360537Y-24195506D01*
X222281185Y-24098815D01*
X222184494Y-24019463D01*
X222074180Y-23960498D01*
X221954482Y-23924188D01*
X221830000Y-23911928D01*
X221265750Y-23915000D01*
X221107000Y-24073750D01*
X220853000Y-24073750D01*
X220694250Y-23915000D01*
X220130000Y-23911928D01*
X220005518Y-23924188D01*
X219885820Y-23960498D01*
X219775506Y-24019463D01*
X219678815Y-24098815D01*
X219599463Y-24195506D01*
X219540498Y-24305820D01*
X219519607Y-24374687D01*
X219495134Y-24344866D01*
X219269014Y-24159294D01*
X219011034Y-24021401D01*
X218731111Y-23936487D01*
X218512950Y-23915000D01*
X218367050Y-23915000D01*
X218148889Y-23936487D01*
X217868966Y-24021401D01*
X217610986Y-24159294D01*
X217384866Y-24344866D01*
X217199294Y-24570986D01*
X217170000Y-24625791D01*
X217140706Y-24570986D01*
X216955134Y-24344866D01*
X216729014Y-24159294D01*
X216471034Y-24021401D01*
X216191111Y-23936487D01*
X215972950Y-23915000D01*
X215827050Y-23915000D01*
X215608889Y-23936487D01*
X215328966Y-24021401D01*
X215070986Y-24159294D01*
X214844866Y-24344866D01*
X214664207Y-24565000D01*
X209402227Y-24565000D01*
X209365120Y-24509465D01*
X209170535Y-24314880D01*
X208941727Y-24161995D01*
X208687490Y-24056686D01*
X208417592Y-24003000D01*
X208142408Y-24003000D01*
X207872510Y-24056686D01*
X207618273Y-24161995D01*
X207389465Y-24314880D01*
X207194880Y-24509465D01*
X207041995Y-24738273D01*
X206936686Y-24992510D01*
X206883000Y-25262408D01*
X184272033Y-25262408D01*
X184240922Y-25055867D01*
X184147636Y-24796977D01*
X184085656Y-24681020D01*
X183845565Y-24614040D01*
X183059605Y-25400000D01*
X182700395Y-25400000D01*
X181914435Y-24614040D01*
X181674344Y-24681020D01*
X181557244Y-24930048D01*
X181490977Y-25197135D01*
X181478090Y-25472017D01*
X177927000Y-25472017D01*
X177927000Y-24434435D01*
X182094040Y-24434435D01*
X182880000Y-25220395D01*
X183665960Y-24434435D01*
X183598980Y-24194344D01*
X183349952Y-24077244D01*
X183082865Y-24010977D01*
X182807983Y-23998090D01*
X182535867Y-24039078D01*
X182276977Y-24132364D01*
X182161020Y-24194344D01*
X182094040Y-24434435D01*
X177927000Y-24434435D01*
X177927000Y-22987000D01*
X185420000Y-22987000D01*
X185444776Y-22984560D01*
X185468601Y-22977333D01*
X185490557Y-22965597D01*
X185509803Y-22949803D01*
X185525597Y-22930557D01*
X185537333Y-22908601D01*
X185544560Y-22884776D01*
X185547000Y-22860000D01*
X185547000Y-20158967D01*
X234585000Y-20158967D01*
X234585000Y-20481033D01*
X234647832Y-20796912D01*
X234771082Y-21094463D01*
X234950013Y-21362252D01*
X235177748Y-21589987D01*
X235445537Y-21768918D01*
X235743088Y-21892168D01*
X236058967Y-21955000D01*
X236381033Y-21955000D01*
X236696912Y-21892168D01*
X236994463Y-21768918D01*
X237262252Y-21589987D01*
X237489987Y-21362252D01*
X237668918Y-21094463D01*
X237792168Y-20796912D01*
X237855000Y-20481033D01*
X237855000Y-20158967D01*
X241085000Y-20158967D01*
X241085000Y-20481033D01*
X241147832Y-20796912D01*
X241271082Y-21094463D01*
X241450013Y-21362252D01*
X241677748Y-21589987D01*
X241945537Y-21768918D01*
X242243088Y-21892168D01*
X242558967Y-21955000D01*
X242881033Y-21955000D01*
X243196912Y-21892168D01*
X243494463Y-21768918D01*
X243762252Y-21589987D01*
X243989987Y-21362252D01*
X244080360Y-21227000D01*
X250155532Y-21227000D01*
X250294013Y-21434252D01*
X250521748Y-21661987D01*
X250789537Y-21840918D01*
X251087088Y-21964168D01*
X251402967Y-22027000D01*
X251725033Y-22027000D01*
X252040912Y-21964168D01*
X252338463Y-21840918D01*
X252606252Y-21661987D01*
X252833987Y-21434252D01*
X252972468Y-21227000D01*
X256655532Y-21227000D01*
X256794013Y-21434252D01*
X257021748Y-21661987D01*
X257289537Y-21840918D01*
X257587088Y-21964168D01*
X257902967Y-22027000D01*
X258225033Y-22027000D01*
X258540912Y-21964168D01*
X258838463Y-21840918D01*
X259106252Y-21661987D01*
X259333987Y-21434252D01*
X259512918Y-21166463D01*
X259636168Y-20868912D01*
X259699000Y-20553033D01*
X259699000Y-20230967D01*
X259636168Y-19915088D01*
X259512918Y-19617537D01*
X259333987Y-19349748D01*
X259106252Y-19122013D01*
X258838463Y-18943082D01*
X258540912Y-18819832D01*
X258225033Y-18757000D01*
X257902967Y-18757000D01*
X257587088Y-18819832D01*
X257289537Y-18943082D01*
X257021748Y-19122013D01*
X256794013Y-19349748D01*
X256655532Y-19557000D01*
X252972468Y-19557000D01*
X252833987Y-19349748D01*
X252606252Y-19122013D01*
X252338463Y-18943082D01*
X252040912Y-18819832D01*
X251725033Y-18757000D01*
X251402967Y-18757000D01*
X251087088Y-18819832D01*
X250789537Y-18943082D01*
X250521748Y-19122013D01*
X250294013Y-19349748D01*
X250155532Y-19557000D01*
X244173666Y-19557000D01*
X244168918Y-19545537D01*
X243989987Y-19277748D01*
X243762252Y-19050013D01*
X243494463Y-18871082D01*
X243196912Y-18747832D01*
X242881033Y-18685000D01*
X242558967Y-18685000D01*
X242243088Y-18747832D01*
X241945537Y-18871082D01*
X241677748Y-19050013D01*
X241450013Y-19277748D01*
X241271082Y-19545537D01*
X241147832Y-19843088D01*
X241085000Y-20158967D01*
X237855000Y-20158967D01*
X237792168Y-19843088D01*
X237668918Y-19545537D01*
X237489987Y-19277748D01*
X237262252Y-19050013D01*
X236994463Y-18871082D01*
X236696912Y-18747832D01*
X236381033Y-18685000D01*
X236058967Y-18685000D01*
X235743088Y-18747832D01*
X235445537Y-18871082D01*
X235177748Y-19050013D01*
X234950013Y-19277748D01*
X234771082Y-19545537D01*
X234647832Y-19843088D01*
X234585000Y-20158967D01*
X185547000Y-20158967D01*
X185547000Y-15367000D01*
X264033000Y-15367000D01*
X264033000Y-22860000D01*
X264033000Y-22860000D01*
G37*
X264033000Y-22860000D02*
X264035440Y-22884776D01*
X264042667Y-22908601D01*
X264054403Y-22930557D01*
X264070197Y-22949803D01*
X264089443Y-22965597D01*
X264111399Y-22977333D01*
X264135224Y-22984560D01*
X264160000Y-22987000D01*
X271653000Y-22987000D01*
X271653000Y-86233000D01*
X264160000Y-86233000D01*
X264135224Y-86235440D01*
X264111399Y-86242667D01*
X264089443Y-86254403D01*
X264070197Y-86270197D01*
X264054403Y-86289443D01*
X264042667Y-86311399D01*
X264035440Y-86335224D01*
X264033000Y-86360000D01*
X264033000Y-93853000D01*
X185547000Y-93853000D01*
X185547000Y-86360000D01*
X185544560Y-86335224D01*
X185537333Y-86311399D01*
X185525597Y-86289443D01*
X185509803Y-86270197D01*
X185490557Y-86254403D01*
X185468601Y-86242667D01*
X185444776Y-86235440D01*
X185420000Y-86233000D01*
X177927000Y-86233000D01*
X177927000Y-58777800D01*
X180062524Y-58777800D01*
X180066201Y-58815132D01*
X180066200Y-73165778D01*
X180062524Y-73203100D01*
X180066200Y-73240422D01*
X180066200Y-73240432D01*
X180077197Y-73352085D01*
X180107195Y-73450976D01*
X180120654Y-73495346D01*
X180191226Y-73627376D01*
X180218000Y-73660000D01*
X180286199Y-73743101D01*
X180315202Y-73766903D01*
X181801026Y-75252729D01*
X181681068Y-75398899D01*
X181547818Y-75648192D01*
X181465764Y-75918691D01*
X181438057Y-76200000D01*
X181465764Y-76481309D01*
X181547818Y-76751808D01*
X181681068Y-77001101D01*
X181860392Y-77219608D01*
X182078899Y-77398932D01*
X182211858Y-77470000D01*
X182078899Y-77541068D01*
X181860392Y-77720392D01*
X181681068Y-77938899D01*
X181547818Y-78188192D01*
X181465764Y-78458691D01*
X181438057Y-78740000D01*
X181465764Y-79021309D01*
X181547818Y-79291808D01*
X181681068Y-79541101D01*
X181860392Y-79759608D01*
X182078899Y-79938932D01*
X182211858Y-80010000D01*
X182078899Y-80081068D01*
X181860392Y-80260392D01*
X181681068Y-80478899D01*
X181547818Y-80728192D01*
X181465764Y-80998691D01*
X181438057Y-81280000D01*
X181465764Y-81561309D01*
X181547818Y-81831808D01*
X181681068Y-82081101D01*
X181860392Y-82299608D01*
X182078899Y-82478932D01*
X182211858Y-82550000D01*
X182078899Y-82621068D01*
X181860392Y-82800392D01*
X181681068Y-83018899D01*
X181547818Y-83268192D01*
X181465764Y-83538691D01*
X181438057Y-83820000D01*
X181465764Y-84101309D01*
X181547818Y-84371808D01*
X181681068Y-84621101D01*
X181860392Y-84839608D01*
X182078899Y-85018932D01*
X182328192Y-85152182D01*
X182598691Y-85234236D01*
X182809508Y-85255000D01*
X182950492Y-85255000D01*
X183161309Y-85234236D01*
X183431808Y-85152182D01*
X183681101Y-85018932D01*
X183899608Y-84839608D01*
X183953443Y-84774010D01*
X184862063Y-85682632D01*
X184888209Y-85714491D01*
X185015354Y-85818836D01*
X185160413Y-85896372D01*
X185317811Y-85944118D01*
X185440481Y-85956200D01*
X185440482Y-85956200D01*
X185481500Y-85960240D01*
X185522518Y-85956200D01*
X200557482Y-85956200D01*
X200598500Y-85960240D01*
X200639518Y-85956200D01*
X200639519Y-85956200D01*
X200762189Y-85944118D01*
X200919587Y-85896372D01*
X201064646Y-85818836D01*
X201191791Y-85714491D01*
X201217946Y-85682622D01*
X202126558Y-84774011D01*
X202180392Y-84839608D01*
X202398899Y-85018932D01*
X202648192Y-85152182D01*
X202918691Y-85234236D01*
X203129508Y-85255000D01*
X203270492Y-85255000D01*
X203481309Y-85234236D01*
X203751808Y-85152182D01*
X204001101Y-85018932D01*
X204219608Y-84839608D01*
X204273443Y-84774010D01*
X205200958Y-85701526D01*
X205227109Y-85733391D01*
X205354254Y-85837736D01*
X205499313Y-85915272D01*
X205656711Y-85963018D01*
X205779381Y-85975100D01*
X205779391Y-85975100D01*
X205820399Y-85979139D01*
X205861407Y-85975100D01*
X213238582Y-85975100D01*
X213279600Y-85979140D01*
X213320618Y-85975100D01*
X213320619Y-85975100D01*
X213443289Y-85963018D01*
X213600687Y-85915272D01*
X213745746Y-85837736D01*
X213872891Y-85733391D01*
X213899046Y-85701521D01*
X214826557Y-84774010D01*
X214880392Y-84839608D01*
X215098899Y-85018932D01*
X215348192Y-85152182D01*
X215618691Y-85234236D01*
X215829508Y-85255000D01*
X215970492Y-85255000D01*
X216181309Y-85234236D01*
X216451808Y-85152182D01*
X216701101Y-85018932D01*
X216919608Y-84839608D01*
X217071112Y-84655000D01*
X229968888Y-84655000D01*
X230120392Y-84839608D01*
X230338899Y-85018932D01*
X230588192Y-85152182D01*
X230858691Y-85234236D01*
X231069508Y-85255000D01*
X231210492Y-85255000D01*
X231421309Y-85234236D01*
X231691808Y-85152182D01*
X231941101Y-85018932D01*
X232159608Y-84839608D01*
X232311112Y-84655000D01*
X235048888Y-84655000D01*
X235200392Y-84839608D01*
X235418899Y-85018932D01*
X235668192Y-85152182D01*
X235938691Y-85234236D01*
X236149508Y-85255000D01*
X236290492Y-85255000D01*
X236501309Y-85234236D01*
X236771808Y-85152182D01*
X237021101Y-85018932D01*
X237239608Y-84839608D01*
X237418932Y-84621101D01*
X237552182Y-84371808D01*
X237634236Y-84101309D01*
X237661943Y-83820000D01*
X237634236Y-83538691D01*
X237552182Y-83268192D01*
X237418932Y-83018899D01*
X237239608Y-82800392D01*
X237021101Y-82621068D01*
X236888142Y-82550000D01*
X237021101Y-82478932D01*
X237239608Y-82299608D01*
X237418932Y-82081101D01*
X237552182Y-81831808D01*
X237634236Y-81561309D01*
X237661943Y-81280000D01*
X237634236Y-80998691D01*
X237552182Y-80728192D01*
X237418932Y-80478899D01*
X237239608Y-80260392D01*
X237021101Y-80081068D01*
X236888142Y-80010000D01*
X237021101Y-79938932D01*
X237239608Y-79759608D01*
X237418932Y-79541101D01*
X237552182Y-79291808D01*
X237634236Y-79021309D01*
X237661943Y-78740000D01*
X237634236Y-78458691D01*
X237552182Y-78188192D01*
X237418932Y-77938899D01*
X237239608Y-77720392D01*
X237021101Y-77541068D01*
X236888142Y-77470000D01*
X237021101Y-77398932D01*
X237239608Y-77219608D01*
X237418932Y-77001101D01*
X237552182Y-76751808D01*
X237634236Y-76481309D01*
X237661943Y-76200000D01*
X237634236Y-75918691D01*
X237552182Y-75648192D01*
X237418932Y-75398899D01*
X237239608Y-75180392D01*
X237021101Y-75001068D01*
X236888142Y-74930000D01*
X237021101Y-74858932D01*
X237239608Y-74679608D01*
X237418932Y-74461101D01*
X237552182Y-74211808D01*
X237634236Y-73941309D01*
X237661943Y-73660000D01*
X237634236Y-73378691D01*
X237552182Y-73108192D01*
X237418932Y-72858899D01*
X237239608Y-72640392D01*
X237021101Y-72461068D01*
X236888142Y-72390000D01*
X237021101Y-72318932D01*
X237239608Y-72139608D01*
X237418932Y-71921101D01*
X237552182Y-71671808D01*
X237634236Y-71401309D01*
X237661943Y-71120000D01*
X237634236Y-70838691D01*
X237552182Y-70568192D01*
X237418932Y-70318899D01*
X237239608Y-70100392D01*
X237021101Y-69921068D01*
X236888142Y-69850000D01*
X237021101Y-69778932D01*
X237239608Y-69599608D01*
X237418932Y-69381101D01*
X237552182Y-69131808D01*
X237634236Y-68861309D01*
X237661943Y-68580000D01*
X237634236Y-68298691D01*
X237597656Y-68178100D01*
X238697999Y-68178100D01*
X249770900Y-79251002D01*
X249794699Y-79280001D01*
X249823697Y-79303799D01*
X249910424Y-79374974D01*
X250042453Y-79445546D01*
X250185714Y-79489003D01*
X250235861Y-79493942D01*
X250261068Y-79541101D01*
X250440392Y-79759608D01*
X250658899Y-79938932D01*
X250721160Y-79972211D01*
X250710997Y-80005714D01*
X250706058Y-80055861D01*
X250658899Y-80081068D01*
X250440392Y-80260392D01*
X250261068Y-80478899D01*
X250127818Y-80728192D01*
X250045764Y-80998691D01*
X250018057Y-81280000D01*
X250045764Y-81561309D01*
X250127818Y-81831808D01*
X250261068Y-82081101D01*
X250440392Y-82299608D01*
X250658899Y-82478932D01*
X250721160Y-82512211D01*
X250710997Y-82545714D01*
X250706058Y-82595861D01*
X250658899Y-82621068D01*
X250440392Y-82800392D01*
X250261068Y-83018899D01*
X250127818Y-83268192D01*
X250045764Y-83538691D01*
X250018057Y-83820000D01*
X250045764Y-84101309D01*
X250127818Y-84371808D01*
X250261068Y-84621101D01*
X250440392Y-84839608D01*
X250658899Y-85018932D01*
X250908192Y-85152182D01*
X251178691Y-85234236D01*
X251389508Y-85255000D01*
X251530492Y-85255000D01*
X251741309Y-85234236D01*
X252011808Y-85152182D01*
X252261101Y-85018932D01*
X252479608Y-84839608D01*
X252658932Y-84621101D01*
X252792182Y-84371808D01*
X252874236Y-84101309D01*
X252901943Y-83820000D01*
X252874236Y-83538691D01*
X252792182Y-83268192D01*
X252658932Y-83018899D01*
X252583643Y-82927159D01*
X253596703Y-81914099D01*
X253625701Y-81890301D01*
X253720674Y-81774576D01*
X253791246Y-81642547D01*
X253834703Y-81499286D01*
X253845700Y-81387633D01*
X253845700Y-81387625D01*
X253849376Y-81350300D01*
X253845700Y-81312975D01*
X253845700Y-76200722D01*
X253849376Y-76163399D01*
X253845700Y-76126076D01*
X253845700Y-76126067D01*
X253834703Y-76014414D01*
X253791246Y-75871153D01*
X253720674Y-75739124D01*
X253625701Y-75623399D01*
X253596704Y-75599602D01*
X252568452Y-74571351D01*
X252658932Y-74461101D01*
X252792182Y-74211808D01*
X252874236Y-73941309D01*
X252901943Y-73660000D01*
X252874236Y-73378691D01*
X252848758Y-73294700D01*
X253974599Y-73294700D01*
X254850900Y-74171002D01*
X254874699Y-74200001D01*
X254990424Y-74294974D01*
X255122453Y-74365546D01*
X255265714Y-74409003D01*
X255315861Y-74413942D01*
X255341068Y-74461101D01*
X255520392Y-74679608D01*
X255738899Y-74858932D01*
X255871858Y-74930000D01*
X255738899Y-75001068D01*
X255520392Y-75180392D01*
X255341068Y-75398899D01*
X255207818Y-75648192D01*
X255125764Y-75918691D01*
X255098057Y-76200000D01*
X255125764Y-76481309D01*
X255207818Y-76751808D01*
X255341068Y-77001101D01*
X255520392Y-77219608D01*
X255738899Y-77398932D01*
X255871858Y-77470000D01*
X255738899Y-77541068D01*
X255520392Y-77720392D01*
X255341068Y-77938899D01*
X255207818Y-78188192D01*
X255125764Y-78458691D01*
X255098057Y-78740000D01*
X255125764Y-79021309D01*
X255207818Y-79291808D01*
X255341068Y-79541101D01*
X255520392Y-79759608D01*
X255738899Y-79938932D01*
X255871858Y-80010000D01*
X255738899Y-80081068D01*
X255520392Y-80260392D01*
X255341068Y-80478899D01*
X255207818Y-80728192D01*
X255125764Y-80998691D01*
X255098057Y-81280000D01*
X255125764Y-81561309D01*
X255207818Y-81831808D01*
X255341068Y-82081101D01*
X255520392Y-82299608D01*
X255738899Y-82478932D01*
X255871858Y-82550000D01*
X255738899Y-82621068D01*
X255520392Y-82800392D01*
X255341068Y-83018899D01*
X255207818Y-83268192D01*
X255125764Y-83538691D01*
X255098057Y-83820000D01*
X255125764Y-84101309D01*
X255207818Y-84371808D01*
X255341068Y-84621101D01*
X255520392Y-84839608D01*
X255738899Y-85018932D01*
X255988192Y-85152182D01*
X256258691Y-85234236D01*
X256469508Y-85255000D01*
X256610492Y-85255000D01*
X256821309Y-85234236D01*
X257091808Y-85152182D01*
X257341101Y-85018932D01*
X257559608Y-84839608D01*
X257738932Y-84621101D01*
X257872182Y-84371808D01*
X257954236Y-84101309D01*
X257981943Y-83820000D01*
X257954236Y-83538691D01*
X257872182Y-83268192D01*
X257738932Y-83018899D01*
X257559608Y-82800392D01*
X257341101Y-82621068D01*
X257208142Y-82550000D01*
X257341101Y-82478932D01*
X257559608Y-82299608D01*
X257738932Y-82081101D01*
X257764139Y-82033942D01*
X257814286Y-82029003D01*
X257957547Y-81985546D01*
X258089576Y-81914974D01*
X258205301Y-81820001D01*
X258229104Y-81790997D01*
X259155402Y-80864700D01*
X262786409Y-80864700D01*
X262745764Y-80998691D01*
X262718057Y-81280000D01*
X262745764Y-81561309D01*
X262827818Y-81831808D01*
X262961068Y-82081101D01*
X263140392Y-82299608D01*
X263358899Y-82478932D01*
X263491858Y-82550000D01*
X263358899Y-82621068D01*
X263140392Y-82800392D01*
X262961068Y-83018899D01*
X262827818Y-83268192D01*
X262745764Y-83538691D01*
X262718057Y-83820000D01*
X262745764Y-84101309D01*
X262827818Y-84371808D01*
X262961068Y-84621101D01*
X263140392Y-84839608D01*
X263358899Y-85018932D01*
X263608192Y-85152182D01*
X263878691Y-85234236D01*
X264089508Y-85255000D01*
X264230492Y-85255000D01*
X264441309Y-85234236D01*
X264711808Y-85152182D01*
X264961101Y-85018932D01*
X265179608Y-84839608D01*
X265358932Y-84621101D01*
X265380901Y-84580000D01*
X267751928Y-84580000D01*
X267751928Y-84670000D01*
X267764188Y-84794482D01*
X267800498Y-84914180D01*
X267859463Y-85024494D01*
X267938815Y-85121185D01*
X268035506Y-85200537D01*
X268145820Y-85259502D01*
X268265518Y-85295812D01*
X268390000Y-85308072D01*
X270090000Y-85308072D01*
X270214482Y-85295812D01*
X270334180Y-85259502D01*
X270444494Y-85200537D01*
X270541185Y-85121185D01*
X270620537Y-85024494D01*
X270679502Y-84914180D01*
X270715812Y-84794482D01*
X270728072Y-84670000D01*
X270728072Y-82970000D01*
X270715812Y-82845518D01*
X270679502Y-82725820D01*
X270620537Y-82615506D01*
X270541185Y-82518815D01*
X270444494Y-82439463D01*
X270334180Y-82380498D01*
X270265313Y-82359607D01*
X270295134Y-82335134D01*
X270480706Y-82109014D01*
X270618599Y-81851034D01*
X270703513Y-81571111D01*
X270732185Y-81280000D01*
X270703513Y-80988889D01*
X270618599Y-80708966D01*
X270480706Y-80450986D01*
X270295134Y-80224866D01*
X270069014Y-80039294D01*
X270014209Y-80010000D01*
X270069014Y-79980706D01*
X270295134Y-79795134D01*
X270480706Y-79569014D01*
X270618599Y-79311034D01*
X270703513Y-79031111D01*
X270732185Y-78740000D01*
X270703513Y-78448889D01*
X270618599Y-78168966D01*
X270480706Y-77910986D01*
X270295134Y-77684866D01*
X270069014Y-77499294D01*
X270014209Y-77470000D01*
X270069014Y-77440706D01*
X270295134Y-77255134D01*
X270480706Y-77029014D01*
X270618599Y-76771034D01*
X270703513Y-76491111D01*
X270732185Y-76200000D01*
X270703513Y-75908889D01*
X270618599Y-75628966D01*
X270480706Y-75370986D01*
X270295134Y-75144866D01*
X270069014Y-74959294D01*
X270014209Y-74930000D01*
X270069014Y-74900706D01*
X270295134Y-74715134D01*
X270480706Y-74489014D01*
X270618599Y-74231034D01*
X270703513Y-73951111D01*
X270732185Y-73660000D01*
X270703513Y-73368889D01*
X270618599Y-73088966D01*
X270480706Y-72830986D01*
X270295134Y-72604866D01*
X270069014Y-72419294D01*
X270014209Y-72390000D01*
X270069014Y-72360706D01*
X270295134Y-72175134D01*
X270480706Y-71949014D01*
X270618599Y-71691034D01*
X270703513Y-71411111D01*
X270732185Y-71120000D01*
X270703513Y-70828889D01*
X270618599Y-70548966D01*
X270480706Y-70290986D01*
X270295134Y-70064866D01*
X270069014Y-69879294D01*
X270014209Y-69850000D01*
X270069014Y-69820706D01*
X270295134Y-69635134D01*
X270480706Y-69409014D01*
X270618599Y-69151034D01*
X270703513Y-68871111D01*
X270732185Y-68580000D01*
X270703513Y-68288889D01*
X270618599Y-68008966D01*
X270480706Y-67750986D01*
X270295134Y-67524866D01*
X270069014Y-67339294D01*
X270014209Y-67310000D01*
X270069014Y-67280706D01*
X270295134Y-67095134D01*
X270480706Y-66869014D01*
X270618599Y-66611034D01*
X270703513Y-66331111D01*
X270732185Y-66040000D01*
X270703513Y-65748889D01*
X270618599Y-65468966D01*
X270480706Y-65210986D01*
X270295134Y-64984866D01*
X270069014Y-64799294D01*
X269811034Y-64661401D01*
X269531111Y-64576487D01*
X269312950Y-64555000D01*
X269167050Y-64555000D01*
X268948889Y-64576487D01*
X268668966Y-64661401D01*
X268410986Y-64799294D01*
X268291036Y-64897734D01*
X258762304Y-55369003D01*
X258738501Y-55339999D01*
X258622776Y-55245026D01*
X258585872Y-55225300D01*
X261305199Y-55225300D01*
X262470900Y-56391002D01*
X262494699Y-56420001D01*
X262523697Y-56443799D01*
X262610423Y-56514974D01*
X262716089Y-56571454D01*
X262742453Y-56585546D01*
X262885714Y-56629003D01*
X262935861Y-56633942D01*
X262961068Y-56681101D01*
X263140392Y-56899608D01*
X263358899Y-57078932D01*
X263491858Y-57150000D01*
X263358899Y-57221068D01*
X263140392Y-57400392D01*
X262961068Y-57618899D01*
X262827818Y-57868192D01*
X262745764Y-58138691D01*
X262718057Y-58420000D01*
X262745764Y-58701309D01*
X262827818Y-58971808D01*
X262961068Y-59221101D01*
X263140392Y-59439608D01*
X263358899Y-59618932D01*
X263608192Y-59752182D01*
X263878691Y-59834236D01*
X264089508Y-59855000D01*
X264230492Y-59855000D01*
X264441309Y-59834236D01*
X264711808Y-59752182D01*
X264961101Y-59618932D01*
X265179608Y-59439608D01*
X265358932Y-59221101D01*
X265492182Y-58971808D01*
X265574236Y-58701309D01*
X265601943Y-58420000D01*
X265574236Y-58138691D01*
X265492182Y-57868192D01*
X265358932Y-57618899D01*
X265179608Y-57400392D01*
X264961101Y-57221068D01*
X264828142Y-57150000D01*
X264961101Y-57078932D01*
X265179608Y-56899608D01*
X265358932Y-56681101D01*
X265492182Y-56431808D01*
X265574236Y-56161309D01*
X265601943Y-55880000D01*
X265574236Y-55598691D01*
X265492182Y-55328192D01*
X265358932Y-55078899D01*
X265179608Y-54860392D01*
X264961101Y-54681068D01*
X264828142Y-54610000D01*
X264961101Y-54538932D01*
X265179608Y-54359608D01*
X265358932Y-54141101D01*
X265492182Y-53891808D01*
X265574236Y-53621309D01*
X265601943Y-53340000D01*
X265574236Y-53058691D01*
X265492182Y-52788192D01*
X265358932Y-52538899D01*
X265179608Y-52320392D01*
X264961101Y-52141068D01*
X264828142Y-52070000D01*
X264961101Y-51998932D01*
X265179608Y-51819608D01*
X265358932Y-51601101D01*
X265492182Y-51351808D01*
X265574236Y-51081309D01*
X265601943Y-50800000D01*
X265574236Y-50518691D01*
X265533591Y-50384700D01*
X266574599Y-50384700D01*
X267500900Y-51311002D01*
X267524699Y-51340001D01*
X267640424Y-51434974D01*
X267772453Y-51505546D01*
X267915714Y-51549003D01*
X267958795Y-51553246D01*
X267999294Y-51629014D01*
X268184866Y-51855134D01*
X268410986Y-52040706D01*
X268465791Y-52070000D01*
X268410986Y-52099294D01*
X268184866Y-52284866D01*
X267999294Y-52510986D01*
X267861401Y-52768966D01*
X267776487Y-53048889D01*
X267747815Y-53340000D01*
X267776487Y-53631111D01*
X267861401Y-53911034D01*
X267999294Y-54169014D01*
X268184866Y-54395134D01*
X268410986Y-54580706D01*
X268668966Y-54718599D01*
X268948889Y-54803513D01*
X269167050Y-54825000D01*
X269312950Y-54825000D01*
X269531111Y-54803513D01*
X269811034Y-54718599D01*
X270069014Y-54580706D01*
X270295134Y-54395134D01*
X270480706Y-54169014D01*
X270618599Y-53911034D01*
X270703513Y-53631111D01*
X270732185Y-53340000D01*
X270703513Y-53048889D01*
X270618599Y-52768966D01*
X270480706Y-52510986D01*
X270295134Y-52284866D01*
X270069014Y-52099294D01*
X270014209Y-52070000D01*
X270069014Y-52040706D01*
X270295134Y-51855134D01*
X270480706Y-51629014D01*
X270618599Y-51371034D01*
X270703513Y-51091111D01*
X270732185Y-50800000D01*
X270703513Y-50508889D01*
X270618599Y-50228966D01*
X270480706Y-49970986D01*
X270295134Y-49744866D01*
X270069014Y-49559294D01*
X270014209Y-49530000D01*
X270069014Y-49500706D01*
X270295134Y-49315134D01*
X270480706Y-49089014D01*
X270618599Y-48831034D01*
X270703513Y-48551111D01*
X270732185Y-48260000D01*
X270703513Y-47968889D01*
X270618599Y-47688966D01*
X270480706Y-47430986D01*
X270295134Y-47204866D01*
X270069014Y-47019294D01*
X270014209Y-46990000D01*
X270069014Y-46960706D01*
X270295134Y-46775134D01*
X270480706Y-46549014D01*
X270618599Y-46291034D01*
X270703513Y-46011111D01*
X270732185Y-45720000D01*
X270703513Y-45428889D01*
X270618599Y-45148966D01*
X270480706Y-44890986D01*
X270295134Y-44664866D01*
X270265313Y-44640393D01*
X270334180Y-44619502D01*
X270444494Y-44560537D01*
X270541185Y-44481185D01*
X270620537Y-44384494D01*
X270679502Y-44274180D01*
X270715812Y-44154482D01*
X270728072Y-44030000D01*
X270728072Y-42330000D01*
X270715812Y-42205518D01*
X270679502Y-42085820D01*
X270620537Y-41975506D01*
X270541185Y-41878815D01*
X270444494Y-41799463D01*
X270334180Y-41740498D01*
X270214482Y-41704188D01*
X270090000Y-41691928D01*
X268390000Y-41691928D01*
X268265518Y-41704188D01*
X268145820Y-41740498D01*
X268035506Y-41799463D01*
X267938815Y-41878815D01*
X267859463Y-41975506D01*
X267800498Y-42085820D01*
X267764188Y-42205518D01*
X267751928Y-42330000D01*
X267751928Y-42420000D01*
X266476402Y-42420000D01*
X263447745Y-39391344D01*
X263661426Y-39479853D01*
X263938665Y-39535000D01*
X264221335Y-39535000D01*
X264498574Y-39479853D01*
X264759727Y-39371680D01*
X264994759Y-39214637D01*
X265194637Y-39014759D01*
X265351680Y-38779727D01*
X265459853Y-38518574D01*
X265515000Y-38241335D01*
X265515000Y-37958665D01*
X265459853Y-37681426D01*
X265351680Y-37420273D01*
X265194637Y-37185241D01*
X264994759Y-36985363D01*
X264759727Y-36828320D01*
X264498574Y-36720147D01*
X264221335Y-36665000D01*
X263938665Y-36665000D01*
X263661426Y-36720147D01*
X263400273Y-36828320D01*
X263165241Y-36985363D01*
X262965363Y-37185241D01*
X262808320Y-37420273D01*
X262700147Y-37681426D01*
X262645000Y-37958665D01*
X262645000Y-38241335D01*
X262700147Y-38518574D01*
X262788657Y-38732255D01*
X260416004Y-36359603D01*
X260392201Y-36330599D01*
X260276476Y-36235626D01*
X260144447Y-36165054D01*
X260001186Y-36121597D01*
X259889533Y-36110600D01*
X259889522Y-36110600D01*
X259852200Y-36106924D01*
X259814878Y-36110600D01*
X256392033Y-36110600D01*
X256354700Y-36106923D01*
X256317367Y-36110600D01*
X256205714Y-36121597D01*
X256062453Y-36165054D01*
X255930424Y-36235626D01*
X255814699Y-36330599D01*
X255790901Y-36359597D01*
X252502371Y-39648128D01*
X252479608Y-39620392D01*
X252261101Y-39441068D01*
X252128142Y-39370000D01*
X252261101Y-39298932D01*
X252479608Y-39119608D01*
X252658932Y-38901101D01*
X252792182Y-38651808D01*
X252874236Y-38381309D01*
X252901943Y-38100000D01*
X252874236Y-37818691D01*
X252792182Y-37548192D01*
X252658932Y-37298899D01*
X252479608Y-37080392D01*
X252261101Y-36901068D01*
X252123318Y-36827421D01*
X252315131Y-36712385D01*
X252523519Y-36523414D01*
X252691037Y-36297420D01*
X252811246Y-36043087D01*
X252851904Y-35909039D01*
X252729915Y-35687000D01*
X251587000Y-35687000D01*
X251587000Y-35707000D01*
X251333000Y-35707000D01*
X251333000Y-35687000D01*
X250190085Y-35687000D01*
X250068096Y-35909039D01*
X250108754Y-36043087D01*
X250228963Y-36297420D01*
X250396481Y-36523414D01*
X250604869Y-36712385D01*
X250796682Y-36827421D01*
X250658899Y-36901068D01*
X250440392Y-37080392D01*
X250261068Y-37298899D01*
X250235861Y-37346058D01*
X250185714Y-37350997D01*
X250042453Y-37394454D01*
X249910423Y-37465026D01*
X249861016Y-37505574D01*
X249794699Y-37559999D01*
X249770901Y-37588997D01*
X246242099Y-41117800D01*
X237574632Y-41117800D01*
X237634236Y-40921309D01*
X237661943Y-40640000D01*
X237634236Y-40358691D01*
X237552182Y-40088192D01*
X237418932Y-39838899D01*
X237239608Y-39620392D01*
X237021101Y-39441068D01*
X236888142Y-39370000D01*
X237021101Y-39298932D01*
X237239608Y-39119608D01*
X237418932Y-38901101D01*
X237552182Y-38651808D01*
X237634236Y-38381309D01*
X237661943Y-38100000D01*
X237634236Y-37818691D01*
X237552182Y-37548192D01*
X237418932Y-37298899D01*
X237239608Y-37080392D01*
X237126518Y-36987581D01*
X237144482Y-36985812D01*
X237264180Y-36949502D01*
X237374494Y-36890537D01*
X237471185Y-36811185D01*
X237550537Y-36714494D01*
X237609502Y-36604180D01*
X237645812Y-36484482D01*
X237658072Y-36360000D01*
X237658072Y-35210961D01*
X250068096Y-35210961D01*
X250190085Y-35433000D01*
X251333000Y-35433000D01*
X251333000Y-34289376D01*
X251587000Y-34289376D01*
X251587000Y-35433000D01*
X252729915Y-35433000D01*
X252851904Y-35210961D01*
X252811246Y-35076913D01*
X252691037Y-34822580D01*
X252523519Y-34596586D01*
X252315131Y-34407615D01*
X252119018Y-34290000D01*
X267747815Y-34290000D01*
X267776487Y-34581111D01*
X267861401Y-34861034D01*
X267999294Y-35119014D01*
X268184866Y-35345134D01*
X268410986Y-35530706D01*
X268465791Y-35560000D01*
X268410986Y-35589294D01*
X268184866Y-35774866D01*
X267999294Y-36000986D01*
X267861401Y-36258966D01*
X267776487Y-36538889D01*
X267747815Y-36830000D01*
X267776487Y-37121111D01*
X267861401Y-37401034D01*
X267999294Y-37659014D01*
X268184866Y-37885134D01*
X268410986Y-38070706D01*
X268465791Y-38100000D01*
X268410986Y-38129294D01*
X268184866Y-38314866D01*
X267999294Y-38540986D01*
X267861401Y-38798966D01*
X267776487Y-39078889D01*
X267747815Y-39370000D01*
X267776487Y-39661111D01*
X267861401Y-39941034D01*
X267999294Y-40199014D01*
X268184866Y-40425134D01*
X268410986Y-40610706D01*
X268668966Y-40748599D01*
X268948889Y-40833513D01*
X269167050Y-40855000D01*
X269312950Y-40855000D01*
X269531111Y-40833513D01*
X269811034Y-40748599D01*
X270069014Y-40610706D01*
X270295134Y-40425134D01*
X270480706Y-40199014D01*
X270618599Y-39941034D01*
X270703513Y-39661111D01*
X270732185Y-39370000D01*
X270703513Y-39078889D01*
X270618599Y-38798966D01*
X270480706Y-38540986D01*
X270295134Y-38314866D01*
X270069014Y-38129294D01*
X270014209Y-38100000D01*
X270069014Y-38070706D01*
X270295134Y-37885134D01*
X270480706Y-37659014D01*
X270618599Y-37401034D01*
X270703513Y-37121111D01*
X270732185Y-36830000D01*
X270703513Y-36538889D01*
X270618599Y-36258966D01*
X270480706Y-36000986D01*
X270295134Y-35774866D01*
X270069014Y-35589294D01*
X270014209Y-35560000D01*
X270069014Y-35530706D01*
X270295134Y-35345134D01*
X270480706Y-35119014D01*
X270618599Y-34861034D01*
X270703513Y-34581111D01*
X270732185Y-34290000D01*
X270703513Y-33998889D01*
X270618599Y-33718966D01*
X270480706Y-33460986D01*
X270295134Y-33234866D01*
X270265313Y-33210393D01*
X270334180Y-33189502D01*
X270444494Y-33130537D01*
X270541185Y-33051185D01*
X270620537Y-32954494D01*
X270679502Y-32844180D01*
X270715812Y-32724482D01*
X270728072Y-32600000D01*
X270728072Y-30900000D01*
X270715812Y-30775518D01*
X270679502Y-30655820D01*
X270620537Y-30545506D01*
X270541185Y-30448815D01*
X270444494Y-30369463D01*
X270334180Y-30310498D01*
X270214482Y-30274188D01*
X270090000Y-30261928D01*
X268390000Y-30261928D01*
X268265518Y-30274188D01*
X268145820Y-30310498D01*
X268035506Y-30369463D01*
X267938815Y-30448815D01*
X267859463Y-30545506D01*
X267800498Y-30655820D01*
X267764188Y-30775518D01*
X267751928Y-30900000D01*
X267751928Y-32600000D01*
X267764188Y-32724482D01*
X267800498Y-32844180D01*
X267859463Y-32954494D01*
X267938815Y-33051185D01*
X268035506Y-33130537D01*
X268145820Y-33189502D01*
X268214687Y-33210393D01*
X268184866Y-33234866D01*
X267999294Y-33460986D01*
X267861401Y-33718966D01*
X267776487Y-33998889D01*
X267747815Y-34290000D01*
X252119018Y-34290000D01*
X252073881Y-34262930D01*
X251809040Y-34168091D01*
X251587000Y-34289376D01*
X251333000Y-34289376D01*
X251110960Y-34168091D01*
X250846119Y-34262930D01*
X250604869Y-34407615D01*
X250396481Y-34596586D01*
X250228963Y-34822580D01*
X250108754Y-35076913D01*
X250068096Y-35210961D01*
X237658072Y-35210961D01*
X237658072Y-34760000D01*
X237645812Y-34635518D01*
X237609502Y-34515820D01*
X237550537Y-34405506D01*
X237471185Y-34308815D01*
X237374494Y-34229463D01*
X237264180Y-34170498D01*
X237144482Y-34134188D01*
X237020000Y-34121928D01*
X235764374Y-34121928D01*
X236731003Y-33155299D01*
X236760001Y-33131501D01*
X236854974Y-33015776D01*
X236925546Y-32883747D01*
X236969003Y-32740486D01*
X236980000Y-32628833D01*
X236980000Y-32628825D01*
X236983676Y-32591500D01*
X236980000Y-32554175D01*
X236980000Y-30338665D01*
X239945000Y-30338665D01*
X239945000Y-30621335D01*
X240000147Y-30898574D01*
X240108320Y-31159727D01*
X240265363Y-31394759D01*
X240465241Y-31594637D01*
X240700273Y-31751680D01*
X240961426Y-31859853D01*
X241238665Y-31915000D01*
X241521335Y-31915000D01*
X241798574Y-31859853D01*
X242059727Y-31751680D01*
X242294759Y-31594637D01*
X242416694Y-31472702D01*
X245566903Y-31472702D01*
X245638486Y-31716671D01*
X245893996Y-31837571D01*
X246168184Y-31906300D01*
X246450512Y-31920217D01*
X246730130Y-31878787D01*
X246996292Y-31783603D01*
X247121514Y-31716671D01*
X247193097Y-31472702D01*
X246380000Y-30659605D01*
X245566903Y-31472702D01*
X242416694Y-31472702D01*
X242494637Y-31394759D01*
X242651680Y-31159727D01*
X242759853Y-30898574D01*
X242815000Y-30621335D01*
X242815000Y-30550512D01*
X244939783Y-30550512D01*
X244981213Y-30830130D01*
X245076397Y-31096292D01*
X245143329Y-31221514D01*
X245387298Y-31293097D01*
X246200395Y-30480000D01*
X246559605Y-30480000D01*
X247372702Y-31293097D01*
X247616671Y-31221514D01*
X247737571Y-30966004D01*
X247806300Y-30691816D01*
X247820217Y-30409488D01*
X247778787Y-30129870D01*
X247683603Y-29863708D01*
X247616671Y-29738486D01*
X247372702Y-29666903D01*
X246559605Y-30480000D01*
X246200395Y-30480000D01*
X245387298Y-29666903D01*
X245143329Y-29738486D01*
X245022429Y-29993996D01*
X244953700Y-30268184D01*
X244939783Y-30550512D01*
X242815000Y-30550512D01*
X242815000Y-30338665D01*
X242759853Y-30061426D01*
X242651680Y-29800273D01*
X242494637Y-29565241D01*
X242416694Y-29487298D01*
X245566903Y-29487298D01*
X246380000Y-30300395D01*
X247193097Y-29487298D01*
X247121514Y-29243329D01*
X246866004Y-29122429D01*
X246591816Y-29053700D01*
X246309488Y-29039783D01*
X246029870Y-29081213D01*
X245763708Y-29176397D01*
X245638486Y-29243329D01*
X245566903Y-29487298D01*
X242416694Y-29487298D01*
X242294759Y-29365363D01*
X242059727Y-29208320D01*
X241798574Y-29100147D01*
X241521335Y-29045000D01*
X241238665Y-29045000D01*
X240961426Y-29100147D01*
X240700273Y-29208320D01*
X240465241Y-29365363D01*
X240265363Y-29565241D01*
X240108320Y-29800273D01*
X240000147Y-30061426D01*
X239945000Y-30338665D01*
X236980000Y-30338665D01*
X236980000Y-26274909D01*
X236994463Y-26268918D01*
X237262252Y-26089987D01*
X237489987Y-25862252D01*
X237668918Y-25594463D01*
X237674909Y-25580000D01*
X241265091Y-25580000D01*
X241271082Y-25594463D01*
X241450013Y-25862252D01*
X241677748Y-26089987D01*
X241945537Y-26268918D01*
X242243088Y-26392168D01*
X242558967Y-26455000D01*
X242881033Y-26455000D01*
X243196912Y-26392168D01*
X243494463Y-26268918D01*
X243762252Y-26089987D01*
X243989987Y-25862252D01*
X244168918Y-25594463D01*
X244292168Y-25296912D01*
X244355000Y-24981033D01*
X244355000Y-24730967D01*
X249929000Y-24730967D01*
X249929000Y-25053033D01*
X249991832Y-25368912D01*
X250115082Y-25666463D01*
X250294013Y-25934252D01*
X250521748Y-26161987D01*
X250789537Y-26340918D01*
X251087088Y-26464168D01*
X251402967Y-26527000D01*
X251725033Y-26527000D01*
X252040912Y-26464168D01*
X252338463Y-26340918D01*
X252606252Y-26161987D01*
X252833987Y-25934252D01*
X253012918Y-25666463D01*
X253018909Y-25652000D01*
X256609091Y-25652000D01*
X256615082Y-25666463D01*
X256794013Y-25934252D01*
X257021748Y-26161987D01*
X257289537Y-26340918D01*
X257587088Y-26464168D01*
X257902967Y-26527000D01*
X258225033Y-26527000D01*
X258540912Y-26464168D01*
X258838463Y-26340918D01*
X259106252Y-26161987D01*
X259333987Y-25934252D01*
X259512918Y-25666463D01*
X259636168Y-25368912D01*
X259699000Y-25053033D01*
X259699000Y-24730967D01*
X259636168Y-24415088D01*
X259512918Y-24117537D01*
X259333987Y-23849748D01*
X259106252Y-23622013D01*
X258838463Y-23443082D01*
X258540912Y-23319832D01*
X258225033Y-23257000D01*
X257902967Y-23257000D01*
X257587088Y-23319832D01*
X257289537Y-23443082D01*
X257021748Y-23622013D01*
X256794013Y-23849748D01*
X256615082Y-24117537D01*
X256609091Y-24132000D01*
X253018909Y-24132000D01*
X253012918Y-24117537D01*
X252833987Y-23849748D01*
X252606252Y-23622013D01*
X252338463Y-23443082D01*
X252040912Y-23319832D01*
X251725033Y-23257000D01*
X251402967Y-23257000D01*
X251087088Y-23319832D01*
X250789537Y-23443082D01*
X250521748Y-23622013D01*
X250294013Y-23849748D01*
X250115082Y-24117537D01*
X249991832Y-24415088D01*
X249929000Y-24730967D01*
X244355000Y-24730967D01*
X244355000Y-24658967D01*
X244292168Y-24343088D01*
X244168918Y-24045537D01*
X243989987Y-23777748D01*
X243762252Y-23550013D01*
X243494463Y-23371082D01*
X243196912Y-23247832D01*
X242881033Y-23185000D01*
X242558967Y-23185000D01*
X242243088Y-23247832D01*
X241945537Y-23371082D01*
X241677748Y-23550013D01*
X241450013Y-23777748D01*
X241271082Y-24045537D01*
X241265091Y-24060000D01*
X237674909Y-24060000D01*
X237668918Y-24045537D01*
X237489987Y-23777748D01*
X237262252Y-23550013D01*
X236994463Y-23371082D01*
X236696912Y-23247832D01*
X236381033Y-23185000D01*
X236058967Y-23185000D01*
X235743088Y-23247832D01*
X235445537Y-23371082D01*
X235177748Y-23550013D01*
X234950013Y-23777748D01*
X234771082Y-24045537D01*
X234647832Y-24343088D01*
X234585000Y-24658967D01*
X234585000Y-24981033D01*
X234647832Y-25296912D01*
X234771082Y-25594463D01*
X234950013Y-25862252D01*
X235177748Y-26089987D01*
X235445537Y-26268918D01*
X235460000Y-26274909D01*
X235460001Y-32276697D01*
X233858299Y-33878400D01*
X220524225Y-33878400D01*
X220486900Y-33874724D01*
X220449575Y-33878400D01*
X220449567Y-33878400D01*
X220337914Y-33889397D01*
X220194653Y-33932854D01*
X220062624Y-34003426D01*
X219946899Y-34098399D01*
X219923101Y-34127397D01*
X216942371Y-37108128D01*
X216919608Y-37080392D01*
X216806518Y-36987581D01*
X216824482Y-36985812D01*
X216944180Y-36949502D01*
X217054494Y-36890537D01*
X217151185Y-36811185D01*
X217230537Y-36714494D01*
X217289502Y-36604180D01*
X217325812Y-36484482D01*
X217338072Y-36360000D01*
X217335000Y-35845750D01*
X217176250Y-35687000D01*
X216027000Y-35687000D01*
X216027000Y-35707000D01*
X215773000Y-35707000D01*
X215773000Y-35687000D01*
X214623750Y-35687000D01*
X214465000Y-35845750D01*
X214461928Y-36360000D01*
X214474188Y-36484482D01*
X214510498Y-36604180D01*
X214569463Y-36714494D01*
X214648815Y-36811185D01*
X214745506Y-36890537D01*
X214855820Y-36949502D01*
X214975518Y-36985812D01*
X214993482Y-36987581D01*
X214880392Y-37080392D01*
X214701068Y-37298899D01*
X214567818Y-37548192D01*
X214485764Y-37818691D01*
X214458057Y-38100000D01*
X214485764Y-38381309D01*
X214567818Y-38651808D01*
X214701068Y-38901101D01*
X214880392Y-39119608D01*
X215098899Y-39298932D01*
X215231858Y-39370000D01*
X215098899Y-39441068D01*
X214880392Y-39620392D01*
X214701068Y-39838899D01*
X214567818Y-40088192D01*
X214485764Y-40358691D01*
X214458057Y-40640000D01*
X214485764Y-40921309D01*
X214567818Y-41191808D01*
X214701068Y-41441101D01*
X214880392Y-41659608D01*
X215098899Y-41838932D01*
X215231858Y-41910000D01*
X215098899Y-41981068D01*
X214880392Y-42160392D01*
X214701068Y-42378899D01*
X214567818Y-42628192D01*
X214485764Y-42898691D01*
X214458057Y-43180000D01*
X214485764Y-43461309D01*
X214567818Y-43731808D01*
X214701068Y-43981101D01*
X214880392Y-44199608D01*
X215098899Y-44378932D01*
X215231858Y-44450000D01*
X215098899Y-44521068D01*
X214880392Y-44700392D01*
X214701068Y-44918899D01*
X214679099Y-44960000D01*
X214572622Y-44960000D01*
X214535299Y-44956324D01*
X214497976Y-44960000D01*
X214497967Y-44960000D01*
X214386314Y-44970997D01*
X214243053Y-45014454D01*
X214111024Y-45085026D01*
X214111022Y-45085027D01*
X214111023Y-45085027D01*
X214024296Y-45156201D01*
X214024292Y-45156205D01*
X213995299Y-45179999D01*
X213971505Y-45208992D01*
X212166485Y-47014013D01*
X212121185Y-46958815D01*
X212024494Y-46879463D01*
X211914180Y-46820498D01*
X211794482Y-46784188D01*
X211670000Y-46771928D01*
X209970000Y-46771928D01*
X209845518Y-46784188D01*
X209725820Y-46820498D01*
X209615506Y-46879463D01*
X209518815Y-46958815D01*
X209439463Y-47055506D01*
X209380498Y-47165820D01*
X209344188Y-47285518D01*
X209331928Y-47410000D01*
X209331928Y-48745000D01*
X209220825Y-48745000D01*
X209183500Y-48741324D01*
X209146175Y-48745000D01*
X209146167Y-48745000D01*
X209034514Y-48755997D01*
X208891253Y-48799454D01*
X208759224Y-48870026D01*
X208643499Y-48964999D01*
X208619701Y-48993997D01*
X206303699Y-51310000D01*
X199458526Y-51310000D01*
X199471246Y-51283087D01*
X199511904Y-51149039D01*
X199389915Y-50927000D01*
X198247000Y-50927000D01*
X198247000Y-50947000D01*
X197993000Y-50947000D01*
X197993000Y-50927000D01*
X196850085Y-50927000D01*
X196728096Y-51149039D01*
X196768754Y-51283087D01*
X196888963Y-51537420D01*
X196957379Y-51629719D01*
X196359198Y-52227901D01*
X196330200Y-52251699D01*
X196306402Y-52280697D01*
X196306401Y-52280698D01*
X196235226Y-52367424D01*
X196164654Y-52499454D01*
X196136886Y-52590997D01*
X196123903Y-52633799D01*
X196121198Y-52642715D01*
X196106524Y-52791700D01*
X196110201Y-52829032D01*
X196110200Y-64049578D01*
X196106524Y-64086900D01*
X196110200Y-64124222D01*
X196110200Y-64124232D01*
X196121197Y-64235885D01*
X196151263Y-64335000D01*
X196164654Y-64379146D01*
X196235226Y-64511176D01*
X196267909Y-64551000D01*
X196330199Y-64626901D01*
X196359202Y-64650703D01*
X196932936Y-65224438D01*
X196921068Y-65238899D01*
X196787818Y-65488192D01*
X196705764Y-65758691D01*
X196678057Y-66040000D01*
X196705764Y-66321309D01*
X196731242Y-66405300D01*
X193743711Y-66405300D01*
X193699774Y-66361363D01*
X193530256Y-66248095D01*
X193341898Y-66170074D01*
X193141939Y-66130300D01*
X192938061Y-66130300D01*
X192738102Y-66170074D01*
X192549744Y-66248095D01*
X192380226Y-66361363D01*
X192236063Y-66505526D01*
X192122795Y-66675044D01*
X192044774Y-66863402D01*
X192005000Y-67063361D01*
X192005000Y-67267239D01*
X192044774Y-67467198D01*
X192122795Y-67655556D01*
X192236063Y-67825074D01*
X192380226Y-67969237D01*
X192549744Y-68082505D01*
X192738102Y-68160526D01*
X192938061Y-68200300D01*
X193141939Y-68200300D01*
X193341898Y-68160526D01*
X193530256Y-68082505D01*
X193699774Y-67969237D01*
X193743711Y-67925300D01*
X196842815Y-67925300D01*
X196787818Y-68028192D01*
X196705764Y-68298691D01*
X196678057Y-68580000D01*
X196705764Y-68861309D01*
X196753689Y-69019300D01*
X188059402Y-69019300D01*
X184569104Y-65529003D01*
X184545301Y-65499999D01*
X184429576Y-65405026D01*
X184297547Y-65334454D01*
X184154286Y-65290997D01*
X184104139Y-65286058D01*
X184078932Y-65238899D01*
X183899608Y-65020392D01*
X183681101Y-64841068D01*
X183618840Y-64807789D01*
X183629003Y-64774286D01*
X183633942Y-64724139D01*
X183681101Y-64698932D01*
X183899608Y-64519608D01*
X184078932Y-64301101D01*
X184212182Y-64051808D01*
X184294236Y-63781309D01*
X184321943Y-63500000D01*
X184294236Y-63218691D01*
X184212182Y-62948192D01*
X184078932Y-62698899D01*
X183899608Y-62480392D01*
X183681101Y-62301068D01*
X183548142Y-62230000D01*
X183681101Y-62158932D01*
X183899608Y-61979608D01*
X184078932Y-61761101D01*
X184212182Y-61511808D01*
X184294236Y-61241309D01*
X184321943Y-60960000D01*
X184294236Y-60678691D01*
X184212182Y-60408192D01*
X184078932Y-60158899D01*
X183899608Y-59940392D01*
X183681101Y-59761068D01*
X183618840Y-59727789D01*
X183629003Y-59694286D01*
X183633942Y-59644139D01*
X183681101Y-59618932D01*
X183899608Y-59439608D01*
X184078932Y-59221101D01*
X184212182Y-58971808D01*
X184294236Y-58701309D01*
X184321943Y-58420000D01*
X184294236Y-58138691D01*
X184212182Y-57868192D01*
X184078932Y-57618899D01*
X183899608Y-57400392D01*
X183681101Y-57221068D01*
X183618840Y-57187789D01*
X183629003Y-57154286D01*
X183633942Y-57104139D01*
X183681101Y-57078932D01*
X183899608Y-56899608D01*
X184078932Y-56681101D01*
X184212182Y-56431808D01*
X184294236Y-56161309D01*
X184321943Y-55880000D01*
X184294236Y-55598691D01*
X184212182Y-55328192D01*
X184078932Y-55078899D01*
X183899608Y-54860392D01*
X183681101Y-54681068D01*
X183548142Y-54610000D01*
X183681101Y-54538932D01*
X183899608Y-54359608D01*
X184078932Y-54141101D01*
X184212182Y-53891808D01*
X184294236Y-53621309D01*
X184321943Y-53340000D01*
X184294236Y-53058691D01*
X184212182Y-52788192D01*
X184078932Y-52538899D01*
X183899608Y-52320392D01*
X183786518Y-52227581D01*
X183804482Y-52225812D01*
X183924180Y-52189502D01*
X184034494Y-52130537D01*
X184131185Y-52051185D01*
X184210537Y-51954494D01*
X184269502Y-51844180D01*
X184305812Y-51724482D01*
X184318072Y-51600000D01*
X184315000Y-51085750D01*
X184156250Y-50927000D01*
X183007000Y-50927000D01*
X183007000Y-50947000D01*
X182753000Y-50947000D01*
X182753000Y-50927000D01*
X181603750Y-50927000D01*
X181445000Y-51085750D01*
X181441928Y-51600000D01*
X181454188Y-51724482D01*
X181490498Y-51844180D01*
X181549463Y-51954494D01*
X181628815Y-52051185D01*
X181725506Y-52130537D01*
X181835820Y-52189502D01*
X181955518Y-52225812D01*
X181973482Y-52227581D01*
X181860392Y-52320392D01*
X181681068Y-52538899D01*
X181547818Y-52788192D01*
X181465764Y-53058691D01*
X181438057Y-53340000D01*
X181465764Y-53621309D01*
X181547818Y-53891808D01*
X181681068Y-54141101D01*
X181860392Y-54359608D01*
X182078899Y-54538932D01*
X182211858Y-54610000D01*
X182078899Y-54681068D01*
X181860392Y-54860392D01*
X181681068Y-55078899D01*
X181547818Y-55328192D01*
X181465764Y-55598691D01*
X181438057Y-55880000D01*
X181465764Y-56161309D01*
X181547818Y-56431808D01*
X181681068Y-56681101D01*
X181756357Y-56772841D01*
X180315198Y-58214001D01*
X180286200Y-58237799D01*
X180262402Y-58266797D01*
X180262401Y-58266798D01*
X180191226Y-58353524D01*
X180120654Y-58485554D01*
X180095347Y-58568985D01*
X180077198Y-58628814D01*
X180066201Y-58740467D01*
X180062524Y-58777800D01*
X177927000Y-58777800D01*
X177927000Y-50000000D01*
X181441928Y-50000000D01*
X181445000Y-50514250D01*
X181603750Y-50673000D01*
X182753000Y-50673000D01*
X182753000Y-49523750D01*
X183007000Y-49523750D01*
X183007000Y-50673000D01*
X184156250Y-50673000D01*
X184315000Y-50514250D01*
X184315378Y-50450961D01*
X196728096Y-50450961D01*
X196850085Y-50673000D01*
X197993000Y-50673000D01*
X197993000Y-49529376D01*
X198247000Y-49529376D01*
X198247000Y-50673000D01*
X199389915Y-50673000D01*
X199511904Y-50450961D01*
X199471246Y-50316913D01*
X199351037Y-50062580D01*
X199183519Y-49836586D01*
X198975131Y-49647615D01*
X198733881Y-49502930D01*
X198469040Y-49408091D01*
X198247000Y-49529376D01*
X197993000Y-49529376D01*
X197770960Y-49408091D01*
X197506119Y-49502930D01*
X197264869Y-49647615D01*
X197056481Y-49836586D01*
X196888963Y-50062580D01*
X196768754Y-50316913D01*
X196728096Y-50450961D01*
X184315378Y-50450961D01*
X184318072Y-50000000D01*
X184305812Y-49875518D01*
X184269502Y-49755820D01*
X184210537Y-49645506D01*
X184131185Y-49548815D01*
X184034494Y-49469463D01*
X183924180Y-49410498D01*
X183804482Y-49374188D01*
X183680000Y-49361928D01*
X183165750Y-49365000D01*
X183007000Y-49523750D01*
X182753000Y-49523750D01*
X182594250Y-49365000D01*
X182080000Y-49361928D01*
X181955518Y-49374188D01*
X181835820Y-49410498D01*
X181725506Y-49469463D01*
X181628815Y-49548815D01*
X181549463Y-49645506D01*
X181490498Y-49755820D01*
X181454188Y-49875518D01*
X181441928Y-50000000D01*
X177927000Y-50000000D01*
X177927000Y-45578665D01*
X186605000Y-45578665D01*
X186605000Y-45861335D01*
X186660147Y-46138574D01*
X186768320Y-46399727D01*
X186925363Y-46634759D01*
X187125241Y-46834637D01*
X187360273Y-46991680D01*
X187621426Y-47099853D01*
X187898665Y-47155000D01*
X188181335Y-47155000D01*
X188458574Y-47099853D01*
X188719727Y-46991680D01*
X188954759Y-46834637D01*
X189076694Y-46712702D01*
X192226903Y-46712702D01*
X192298486Y-46956671D01*
X192553996Y-47077571D01*
X192828184Y-47146300D01*
X193110512Y-47160217D01*
X193390130Y-47118787D01*
X193656292Y-47023603D01*
X193781514Y-46956671D01*
X193853097Y-46712702D01*
X193040000Y-45899605D01*
X192226903Y-46712702D01*
X189076694Y-46712702D01*
X189154637Y-46634759D01*
X189311680Y-46399727D01*
X189419853Y-46138574D01*
X189475000Y-45861335D01*
X189475000Y-45790512D01*
X191599783Y-45790512D01*
X191641213Y-46070130D01*
X191736397Y-46336292D01*
X191803329Y-46461514D01*
X192047298Y-46533097D01*
X192860395Y-45720000D01*
X193219605Y-45720000D01*
X194032702Y-46533097D01*
X194276671Y-46461514D01*
X194397571Y-46206004D01*
X194466300Y-45931816D01*
X194480217Y-45649488D01*
X194438787Y-45369870D01*
X194343603Y-45103708D01*
X194276671Y-44978486D01*
X194032702Y-44906903D01*
X193219605Y-45720000D01*
X192860395Y-45720000D01*
X192047298Y-44906903D01*
X191803329Y-44978486D01*
X191682429Y-45233996D01*
X191613700Y-45508184D01*
X191599783Y-45790512D01*
X189475000Y-45790512D01*
X189475000Y-45578665D01*
X189456285Y-45484582D01*
X190213569Y-44727298D01*
X192226903Y-44727298D01*
X193040000Y-45540395D01*
X193853097Y-44727298D01*
X193781514Y-44483329D01*
X193526004Y-44362429D01*
X193251816Y-44293700D01*
X192969488Y-44279783D01*
X192689870Y-44321213D01*
X192423708Y-44416397D01*
X192298486Y-44483329D01*
X192226903Y-44727298D01*
X190213569Y-44727298D01*
X193465869Y-41475000D01*
X207157773Y-41475000D01*
X207194880Y-41530535D01*
X207389465Y-41725120D01*
X207618273Y-41878005D01*
X207872510Y-41983314D01*
X208142408Y-42037000D01*
X208417592Y-42037000D01*
X208687490Y-41983314D01*
X208941727Y-41878005D01*
X209170535Y-41725120D01*
X209365120Y-41530535D01*
X209518005Y-41301727D01*
X209623314Y-41047490D01*
X209677000Y-40777592D01*
X209677000Y-40502408D01*
X209623314Y-40232510D01*
X209518005Y-39978273D01*
X209365120Y-39749465D01*
X209170535Y-39554880D01*
X208941727Y-39401995D01*
X208687490Y-39296686D01*
X208417592Y-39243000D01*
X208142408Y-39243000D01*
X207872510Y-39296686D01*
X207618273Y-39401995D01*
X207389465Y-39554880D01*
X207194880Y-39749465D01*
X207157773Y-39805000D01*
X193161018Y-39805000D01*
X193120000Y-39800960D01*
X192956311Y-39817082D01*
X192798913Y-39864828D01*
X192653854Y-39942364D01*
X192603173Y-39983957D01*
X192526709Y-40046709D01*
X192500563Y-40078568D01*
X188275418Y-44303715D01*
X188181335Y-44285000D01*
X187898665Y-44285000D01*
X187621426Y-44340147D01*
X187360273Y-44448320D01*
X187125241Y-44605363D01*
X186925363Y-44805241D01*
X186768320Y-45040273D01*
X186660147Y-45301426D01*
X186605000Y-45578665D01*
X177927000Y-45578665D01*
X177927000Y-40502408D01*
X181483000Y-40502408D01*
X181483000Y-40777592D01*
X181536686Y-41047490D01*
X181641995Y-41301727D01*
X181794880Y-41530535D01*
X181989465Y-41725120D01*
X182218273Y-41878005D01*
X182472510Y-41983314D01*
X182742408Y-42037000D01*
X183017592Y-42037000D01*
X183287490Y-41983314D01*
X183541727Y-41878005D01*
X183770535Y-41725120D01*
X183965120Y-41530535D01*
X184118005Y-41301727D01*
X184223314Y-41047490D01*
X184277000Y-40777592D01*
X184277000Y-40502408D01*
X184223314Y-40232510D01*
X184118005Y-39978273D01*
X183965120Y-39749465D01*
X183770535Y-39554880D01*
X183541727Y-39401995D01*
X183287490Y-39296686D01*
X183017592Y-39243000D01*
X182742408Y-39243000D01*
X182472510Y-39296686D01*
X182218273Y-39401995D01*
X181989465Y-39554880D01*
X181794880Y-39749465D01*
X181641995Y-39978273D01*
X181536686Y-40232510D01*
X181483000Y-40502408D01*
X177927000Y-40502408D01*
X177927000Y-34760000D01*
X214461928Y-34760000D01*
X214465000Y-35274250D01*
X214623750Y-35433000D01*
X215773000Y-35433000D01*
X215773000Y-34283750D01*
X216027000Y-34283750D01*
X216027000Y-35433000D01*
X217176250Y-35433000D01*
X217335000Y-35274250D01*
X217338072Y-34760000D01*
X217325812Y-34635518D01*
X217289502Y-34515820D01*
X217230537Y-34405506D01*
X217151185Y-34308815D01*
X217054494Y-34229463D01*
X216944180Y-34170498D01*
X216824482Y-34134188D01*
X216700000Y-34121928D01*
X216185750Y-34125000D01*
X216027000Y-34283750D01*
X215773000Y-34283750D01*
X215614250Y-34125000D01*
X215100000Y-34121928D01*
X214975518Y-34134188D01*
X214855820Y-34170498D01*
X214745506Y-34229463D01*
X214648815Y-34308815D01*
X214569463Y-34405506D01*
X214510498Y-34515820D01*
X214474188Y-34635518D01*
X214461928Y-34760000D01*
X177927000Y-34760000D01*
X177927000Y-26365565D01*
X182094040Y-26365565D01*
X182161020Y-26605656D01*
X182410048Y-26722756D01*
X182677135Y-26789023D01*
X182952017Y-26801910D01*
X183224133Y-26760922D01*
X183483023Y-26667636D01*
X183598980Y-26605656D01*
X183665960Y-26365565D01*
X182880000Y-25579605D01*
X182094040Y-26365565D01*
X177927000Y-26365565D01*
X177927000Y-25472017D01*
X181478090Y-25472017D01*
X181519078Y-25744133D01*
X181612364Y-26003023D01*
X181674344Y-26118980D01*
X181914435Y-26185960D01*
X182700395Y-25400000D01*
X183059605Y-25400000D01*
X183845565Y-26185960D01*
X184085656Y-26118980D01*
X184202756Y-25869952D01*
X184269023Y-25602865D01*
X184281910Y-25327983D01*
X184272033Y-25262408D01*
X206883000Y-25262408D01*
X206883000Y-25537592D01*
X206936686Y-25807490D01*
X207041995Y-26061727D01*
X207194880Y-26290535D01*
X207389465Y-26485120D01*
X207618273Y-26638005D01*
X207872510Y-26743314D01*
X208142408Y-26797000D01*
X208417592Y-26797000D01*
X208687490Y-26743314D01*
X208941727Y-26638005D01*
X209170535Y-26485120D01*
X209365120Y-26290535D01*
X209402227Y-26235000D01*
X214664207Y-26235000D01*
X214844866Y-26455134D01*
X215070986Y-26640706D01*
X215328966Y-26778599D01*
X215608889Y-26863513D01*
X215827050Y-26885000D01*
X215972950Y-26885000D01*
X216191111Y-26863513D01*
X216471034Y-26778599D01*
X216729014Y-26640706D01*
X216955134Y-26455134D01*
X217140706Y-26229014D01*
X217170000Y-26174209D01*
X217199294Y-26229014D01*
X217384866Y-26455134D01*
X217610986Y-26640706D01*
X217868966Y-26778599D01*
X218148889Y-26863513D01*
X218367050Y-26885000D01*
X218512950Y-26885000D01*
X218731111Y-26863513D01*
X219011034Y-26778599D01*
X219269014Y-26640706D01*
X219495134Y-26455134D01*
X219519607Y-26425313D01*
X219540498Y-26494180D01*
X219599463Y-26604494D01*
X219678815Y-26701185D01*
X219775506Y-26780537D01*
X219885820Y-26839502D01*
X220005518Y-26875812D01*
X220130000Y-26888072D01*
X220694250Y-26885000D01*
X220853000Y-26726250D01*
X220853000Y-25527000D01*
X221107000Y-25527000D01*
X221107000Y-26726250D01*
X221265750Y-26885000D01*
X221830000Y-26888072D01*
X221954482Y-26875812D01*
X222074180Y-26839502D01*
X222184494Y-26780537D01*
X222281185Y-26701185D01*
X222360537Y-26604494D01*
X222419502Y-26494180D01*
X222455812Y-26374482D01*
X222468072Y-26250000D01*
X222465000Y-25685750D01*
X222306250Y-25527000D01*
X221107000Y-25527000D01*
X220853000Y-25527000D01*
X220833000Y-25527000D01*
X220833000Y-25273000D01*
X220853000Y-25273000D01*
X220853000Y-24073750D01*
X221107000Y-24073750D01*
X221107000Y-25273000D01*
X222306250Y-25273000D01*
X222465000Y-25114250D01*
X222468072Y-24550000D01*
X222455812Y-24425518D01*
X222419502Y-24305820D01*
X222360537Y-24195506D01*
X222281185Y-24098815D01*
X222184494Y-24019463D01*
X222074180Y-23960498D01*
X221954482Y-23924188D01*
X221830000Y-23911928D01*
X221265750Y-23915000D01*
X221107000Y-24073750D01*
X220853000Y-24073750D01*
X220694250Y-23915000D01*
X220130000Y-23911928D01*
X220005518Y-23924188D01*
X219885820Y-23960498D01*
X219775506Y-24019463D01*
X219678815Y-24098815D01*
X219599463Y-24195506D01*
X219540498Y-24305820D01*
X219519607Y-24374687D01*
X219495134Y-24344866D01*
X219269014Y-24159294D01*
X219011034Y-24021401D01*
X218731111Y-23936487D01*
X218512950Y-23915000D01*
X218367050Y-23915000D01*
X218148889Y-23936487D01*
X217868966Y-24021401D01*
X217610986Y-24159294D01*
X217384866Y-24344866D01*
X217199294Y-24570986D01*
X217170000Y-24625791D01*
X217140706Y-24570986D01*
X216955134Y-24344866D01*
X216729014Y-24159294D01*
X216471034Y-24021401D01*
X216191111Y-23936487D01*
X215972950Y-23915000D01*
X215827050Y-23915000D01*
X215608889Y-23936487D01*
X215328966Y-24021401D01*
X215070986Y-24159294D01*
X214844866Y-24344866D01*
X214664207Y-24565000D01*
X209402227Y-24565000D01*
X209365120Y-24509465D01*
X209170535Y-24314880D01*
X208941727Y-24161995D01*
X208687490Y-24056686D01*
X208417592Y-24003000D01*
X208142408Y-24003000D01*
X207872510Y-24056686D01*
X207618273Y-24161995D01*
X207389465Y-24314880D01*
X207194880Y-24509465D01*
X207041995Y-24738273D01*
X206936686Y-24992510D01*
X206883000Y-25262408D01*
X184272033Y-25262408D01*
X184240922Y-25055867D01*
X184147636Y-24796977D01*
X184085656Y-24681020D01*
X183845565Y-24614040D01*
X183059605Y-25400000D01*
X182700395Y-25400000D01*
X181914435Y-24614040D01*
X181674344Y-24681020D01*
X181557244Y-24930048D01*
X181490977Y-25197135D01*
X181478090Y-25472017D01*
X177927000Y-25472017D01*
X177927000Y-24434435D01*
X182094040Y-24434435D01*
X182880000Y-25220395D01*
X183665960Y-24434435D01*
X183598980Y-24194344D01*
X183349952Y-24077244D01*
X183082865Y-24010977D01*
X182807983Y-23998090D01*
X182535867Y-24039078D01*
X182276977Y-24132364D01*
X182161020Y-24194344D01*
X182094040Y-24434435D01*
X177927000Y-24434435D01*
X177927000Y-22987000D01*
X185420000Y-22987000D01*
X185444776Y-22984560D01*
X185468601Y-22977333D01*
X185490557Y-22965597D01*
X185509803Y-22949803D01*
X185525597Y-22930557D01*
X185537333Y-22908601D01*
X185544560Y-22884776D01*
X185547000Y-22860000D01*
X185547000Y-20158967D01*
X234585000Y-20158967D01*
X234585000Y-20481033D01*
X234647832Y-20796912D01*
X234771082Y-21094463D01*
X234950013Y-21362252D01*
X235177748Y-21589987D01*
X235445537Y-21768918D01*
X235743088Y-21892168D01*
X236058967Y-21955000D01*
X236381033Y-21955000D01*
X236696912Y-21892168D01*
X236994463Y-21768918D01*
X237262252Y-21589987D01*
X237489987Y-21362252D01*
X237668918Y-21094463D01*
X237792168Y-20796912D01*
X237855000Y-20481033D01*
X237855000Y-20158967D01*
X241085000Y-20158967D01*
X241085000Y-20481033D01*
X241147832Y-20796912D01*
X241271082Y-21094463D01*
X241450013Y-21362252D01*
X241677748Y-21589987D01*
X241945537Y-21768918D01*
X242243088Y-21892168D01*
X242558967Y-21955000D01*
X242881033Y-21955000D01*
X243196912Y-21892168D01*
X243494463Y-21768918D01*
X243762252Y-21589987D01*
X243989987Y-21362252D01*
X244080360Y-21227000D01*
X250155532Y-21227000D01*
X250294013Y-21434252D01*
X250521748Y-21661987D01*
X250789537Y-21840918D01*
X251087088Y-21964168D01*
X251402967Y-22027000D01*
X251725033Y-22027000D01*
X252040912Y-21964168D01*
X252338463Y-21840918D01*
X252606252Y-21661987D01*
X252833987Y-21434252D01*
X252972468Y-21227000D01*
X256655532Y-21227000D01*
X256794013Y-21434252D01*
X257021748Y-21661987D01*
X257289537Y-21840918D01*
X257587088Y-21964168D01*
X257902967Y-22027000D01*
X258225033Y-22027000D01*
X258540912Y-21964168D01*
X258838463Y-21840918D01*
X259106252Y-21661987D01*
X259333987Y-21434252D01*
X259512918Y-21166463D01*
X259636168Y-20868912D01*
X259699000Y-20553033D01*
X259699000Y-20230967D01*
X259636168Y-19915088D01*
X259512918Y-19617537D01*
X259333987Y-19349748D01*
X259106252Y-19122013D01*
X258838463Y-18943082D01*
X258540912Y-18819832D01*
X258225033Y-18757000D01*
X257902967Y-18757000D01*
X257587088Y-18819832D01*
X257289537Y-18943082D01*
X257021748Y-19122013D01*
X256794013Y-19349748D01*
X256655532Y-19557000D01*
X252972468Y-19557000D01*
X252833987Y-19349748D01*
X252606252Y-19122013D01*
X252338463Y-18943082D01*
X252040912Y-18819832D01*
X251725033Y-18757000D01*
X251402967Y-18757000D01*
X251087088Y-18819832D01*
X250789537Y-18943082D01*
X250521748Y-19122013D01*
X250294013Y-19349748D01*
X250155532Y-19557000D01*
X244173666Y-19557000D01*
X244168918Y-19545537D01*
X243989987Y-19277748D01*
X243762252Y-19050013D01*
X243494463Y-18871082D01*
X243196912Y-18747832D01*
X242881033Y-18685000D01*
X242558967Y-18685000D01*
X242243088Y-18747832D01*
X241945537Y-18871082D01*
X241677748Y-19050013D01*
X241450013Y-19277748D01*
X241271082Y-19545537D01*
X241147832Y-19843088D01*
X241085000Y-20158967D01*
X237855000Y-20158967D01*
X237792168Y-19843088D01*
X237668918Y-19545537D01*
X237489987Y-19277748D01*
X237262252Y-19050013D01*
X236994463Y-18871082D01*
X236696912Y-18747832D01*
X236381033Y-18685000D01*
X236058967Y-18685000D01*
X235743088Y-18747832D01*
X235445537Y-18871082D01*
X235177748Y-19050013D01*
X234950013Y-19277748D01*
X234771082Y-19545537D01*
X234647832Y-19843088D01*
X234585000Y-20158967D01*
X185547000Y-20158967D01*
X185547000Y-15367000D01*
X264033000Y-15367000D01*
X264033000Y-22860000D01*
G36*
X253146800Y-54976302D02*
G01*
X253170599Y-55005301D01*
X253199597Y-55029099D01*
X253286324Y-55100274D01*
X253418353Y-55170846D01*
X253561614Y-55214303D01*
X253710600Y-55228977D01*
X253747933Y-55225300D01*
X255262815Y-55225300D01*
X255207818Y-55328192D01*
X255125764Y-55598691D01*
X255098057Y-55880000D01*
X255125764Y-56161309D01*
X255207818Y-56431808D01*
X255341068Y-56681101D01*
X255520392Y-56899608D01*
X255738899Y-57078932D01*
X255871858Y-57150000D01*
X255738899Y-57221068D01*
X255520392Y-57400392D01*
X255341068Y-57618899D01*
X255207818Y-57868192D01*
X255125764Y-58138691D01*
X255098057Y-58420000D01*
X255125764Y-58701309D01*
X255207818Y-58971808D01*
X255341068Y-59221101D01*
X255520392Y-59439608D01*
X255738899Y-59618932D01*
X255988192Y-59752182D01*
X256258691Y-59834236D01*
X256469508Y-59855000D01*
X256610492Y-59855000D01*
X256821309Y-59834236D01*
X257091808Y-59752182D01*
X257341101Y-59618932D01*
X257559608Y-59439608D01*
X257711112Y-59255000D01*
X258654133Y-59255000D01*
X262663714Y-63264583D01*
X262645000Y-63358665D01*
X262645000Y-63641335D01*
X262700147Y-63918574D01*
X262808320Y-64179727D01*
X262965363Y-64414759D01*
X263165241Y-64614637D01*
X263400273Y-64771680D01*
X263661426Y-64879853D01*
X263938665Y-64935000D01*
X264221335Y-64935000D01*
X264498574Y-64879853D01*
X264759727Y-64771680D01*
X264994759Y-64614637D01*
X265194637Y-64414759D01*
X265351680Y-64179727D01*
X265372694Y-64128995D01*
X267302916Y-66059218D01*
X267315697Y-66188986D01*
X267359154Y-66332247D01*
X267429726Y-66464276D01*
X267524699Y-66580001D01*
X267640424Y-66674974D01*
X267772453Y-66745546D01*
X267915714Y-66789003D01*
X267958795Y-66793246D01*
X267999294Y-66869014D01*
X268184866Y-67095134D01*
X268410986Y-67280706D01*
X268465791Y-67310000D01*
X268410986Y-67339294D01*
X268184866Y-67524866D01*
X267999294Y-67750986D01*
X267861401Y-68008966D01*
X267776487Y-68288889D01*
X267747815Y-68580000D01*
X267776487Y-68871111D01*
X267861401Y-69151034D01*
X267999294Y-69409014D01*
X268184866Y-69635134D01*
X268410986Y-69820706D01*
X268465791Y-69850000D01*
X268410986Y-69879294D01*
X268184866Y-70064866D01*
X268139566Y-70120064D01*
X267453204Y-69433703D01*
X267429401Y-69404699D01*
X267313676Y-69309726D01*
X267181647Y-69239154D01*
X267038386Y-69195697D01*
X266926733Y-69184700D01*
X266926722Y-69184700D01*
X266889400Y-69181024D01*
X266852078Y-69184700D01*
X265453766Y-69184700D01*
X265511246Y-69063087D01*
X265551904Y-68929039D01*
X265429915Y-68707000D01*
X264287000Y-68707000D01*
X264287000Y-68727000D01*
X264033000Y-68727000D01*
X264033000Y-68707000D01*
X262890085Y-68707000D01*
X262768096Y-68929039D01*
X262808754Y-69063087D01*
X262866234Y-69184700D01*
X258877922Y-69184700D01*
X258840599Y-69181024D01*
X258803276Y-69184700D01*
X258803267Y-69184700D01*
X258691614Y-69195697D01*
X258548353Y-69239154D01*
X258416324Y-69309726D01*
X258300599Y-69404699D01*
X258276801Y-69433697D01*
X257582370Y-70128128D01*
X257559608Y-70100392D01*
X257446518Y-70007581D01*
X257464482Y-70005812D01*
X257584180Y-69969502D01*
X257694494Y-69910537D01*
X257791185Y-69831185D01*
X257870537Y-69734494D01*
X257929502Y-69624180D01*
X257965812Y-69504482D01*
X257978072Y-69380000D01*
X257978072Y-68230961D01*
X262768096Y-68230961D01*
X262890085Y-68453000D01*
X264033000Y-68453000D01*
X264033000Y-67309376D01*
X264287000Y-67309376D01*
X264287000Y-68453000D01*
X265429915Y-68453000D01*
X265551904Y-68230961D01*
X265511246Y-68096913D01*
X265391037Y-67842580D01*
X265223519Y-67616586D01*
X265015131Y-67427615D01*
X264773881Y-67282930D01*
X264509040Y-67188091D01*
X264287000Y-67309376D01*
X264033000Y-67309376D01*
X263810960Y-67188091D01*
X263546119Y-67282930D01*
X263304869Y-67427615D01*
X263096481Y-67616586D01*
X262928963Y-67842580D01*
X262808754Y-68096913D01*
X262768096Y-68230961D01*
X257978072Y-68230961D01*
X257978072Y-67780000D01*
X257965812Y-67655518D01*
X257929502Y-67535820D01*
X257870537Y-67425506D01*
X257791185Y-67328815D01*
X257694494Y-67249463D01*
X257584180Y-67190498D01*
X257464482Y-67154188D01*
X257340000Y-67141928D01*
X255740000Y-67141928D01*
X255615518Y-67154188D01*
X255495820Y-67190498D01*
X255385506Y-67249463D01*
X255288815Y-67328815D01*
X255209463Y-67425506D01*
X255150498Y-67535820D01*
X255114188Y-67655518D01*
X255101928Y-67780000D01*
X255101928Y-69380000D01*
X255114188Y-69504482D01*
X255150498Y-69624180D01*
X255209463Y-69734494D01*
X255288815Y-69831185D01*
X255385506Y-69910537D01*
X255495820Y-69969502D01*
X255615518Y-70005812D01*
X255633482Y-70007581D01*
X255520392Y-70100392D01*
X255341068Y-70318899D01*
X255207818Y-70568192D01*
X255125764Y-70838691D01*
X255098057Y-71120000D01*
X255125764Y-71401309D01*
X255207818Y-71671808D01*
X255341068Y-71921101D01*
X255520392Y-72139608D01*
X255738899Y-72318932D01*
X255871858Y-72390000D01*
X255738899Y-72461068D01*
X255520392Y-72640392D01*
X255497630Y-72668128D01*
X254853204Y-72023702D01*
X254829401Y-71994699D01*
X254713676Y-71899726D01*
X254581647Y-71829154D01*
X254438386Y-71785697D01*
X254326733Y-71774700D01*
X254326722Y-71774700D01*
X254289400Y-71771024D01*
X254252078Y-71774700D01*
X252730134Y-71774700D01*
X252811246Y-71603087D01*
X252851904Y-71469039D01*
X252729915Y-71247000D01*
X251587000Y-71247000D01*
X251587000Y-71267000D01*
X251333000Y-71267000D01*
X251333000Y-71247000D01*
X251313000Y-71247000D01*
X251313000Y-70993000D01*
X251333000Y-70993000D01*
X251333000Y-70973000D01*
X251587000Y-70973000D01*
X251587000Y-70993000D01*
X252729915Y-70993000D01*
X252851904Y-70770961D01*
X252811246Y-70636913D01*
X252691037Y-70382580D01*
X252523519Y-70156586D01*
X252315131Y-69967615D01*
X252123318Y-69852579D01*
X252261101Y-69778932D01*
X252479608Y-69599608D01*
X252658932Y-69381101D01*
X252792182Y-69131808D01*
X252874236Y-68861309D01*
X252901943Y-68580000D01*
X252874236Y-68298691D01*
X252792182Y-68028192D01*
X252658932Y-67778899D01*
X252479608Y-67560392D01*
X252261101Y-67381068D01*
X252128142Y-67310000D01*
X252261101Y-67238932D01*
X252479608Y-67059608D01*
X252658932Y-66841101D01*
X252792182Y-66591808D01*
X252874236Y-66321309D01*
X252901943Y-66040000D01*
X252874236Y-65758691D01*
X252792182Y-65488192D01*
X252658932Y-65238899D01*
X252479608Y-65020392D01*
X252261101Y-64841068D01*
X252128142Y-64770000D01*
X252261101Y-64698932D01*
X252479608Y-64519608D01*
X252501689Y-64492702D01*
X258266903Y-64492702D01*
X258338486Y-64736671D01*
X258593996Y-64857571D01*
X258868184Y-64926300D01*
X259150512Y-64940217D01*
X259430130Y-64898787D01*
X259696292Y-64803603D01*
X259821514Y-64736671D01*
X259893097Y-64492702D01*
X259080000Y-63679605D01*
X258266903Y-64492702D01*
X252501689Y-64492702D01*
X252658932Y-64301101D01*
X252792182Y-64051808D01*
X252874236Y-63781309D01*
X252894998Y-63570512D01*
X257639783Y-63570512D01*
X257681213Y-63850130D01*
X257776397Y-64116292D01*
X257843329Y-64241514D01*
X258087298Y-64313097D01*
X258900395Y-63500000D01*
X259259605Y-63500000D01*
X260072702Y-64313097D01*
X260316671Y-64241514D01*
X260437571Y-63986004D01*
X260506300Y-63711816D01*
X260520217Y-63429488D01*
X260478787Y-63149870D01*
X260383603Y-62883708D01*
X260316671Y-62758486D01*
X260072702Y-62686903D01*
X259259605Y-63500000D01*
X258900395Y-63500000D01*
X258087298Y-62686903D01*
X257843329Y-62758486D01*
X257722429Y-63013996D01*
X257653700Y-63288184D01*
X257639783Y-63570512D01*
X252894998Y-63570512D01*
X252901943Y-63500000D01*
X252874236Y-63218691D01*
X252792182Y-62948192D01*
X252658932Y-62698899D01*
X252501690Y-62507298D01*
X258266903Y-62507298D01*
X259080000Y-63320395D01*
X259893097Y-62507298D01*
X259821514Y-62263329D01*
X259566004Y-62142429D01*
X259291816Y-62073700D01*
X259009488Y-62059783D01*
X258729870Y-62101213D01*
X258463708Y-62196397D01*
X258338486Y-62263329D01*
X258266903Y-62507298D01*
X252501690Y-62507298D01*
X252479608Y-62480392D01*
X252261101Y-62301068D01*
X252198840Y-62267789D01*
X252209003Y-62234286D01*
X252213942Y-62184139D01*
X252261101Y-62158932D01*
X252479608Y-61979608D01*
X252658932Y-61761101D01*
X252792182Y-61511808D01*
X252874236Y-61241309D01*
X252901943Y-60960000D01*
X252874236Y-60678691D01*
X252792182Y-60408192D01*
X252658932Y-60158899D01*
X252479608Y-59940392D01*
X252261101Y-59761068D01*
X252128142Y-59690000D01*
X252261101Y-59618932D01*
X252479608Y-59439608D01*
X252658932Y-59221101D01*
X252792182Y-58971808D01*
X252874236Y-58701309D01*
X252901943Y-58420000D01*
X252874236Y-58138691D01*
X252792182Y-57868192D01*
X252658932Y-57618899D01*
X252479608Y-57400392D01*
X252261101Y-57221068D01*
X252128142Y-57150000D01*
X252261101Y-57078932D01*
X252479608Y-56899608D01*
X252658932Y-56681101D01*
X252792182Y-56431808D01*
X252874236Y-56161309D01*
X252901943Y-55880000D01*
X252874236Y-55598691D01*
X252792182Y-55328192D01*
X252658932Y-55078899D01*
X252479608Y-54860392D01*
X252261101Y-54681068D01*
X252128142Y-54610000D01*
X252261101Y-54538932D01*
X252479608Y-54359608D01*
X252502370Y-54331872D01*
X253146800Y-54976302D01*
X253146800Y-54976302D01*
G37*
X253146800Y-54976302D02*
X253170599Y-55005301D01*
X253199597Y-55029099D01*
X253286324Y-55100274D01*
X253418353Y-55170846D01*
X253561614Y-55214303D01*
X253710600Y-55228977D01*
X253747933Y-55225300D01*
X255262815Y-55225300D01*
X255207818Y-55328192D01*
X255125764Y-55598691D01*
X255098057Y-55880000D01*
X255125764Y-56161309D01*
X255207818Y-56431808D01*
X255341068Y-56681101D01*
X255520392Y-56899608D01*
X255738899Y-57078932D01*
X255871858Y-57150000D01*
X255738899Y-57221068D01*
X255520392Y-57400392D01*
X255341068Y-57618899D01*
X255207818Y-57868192D01*
X255125764Y-58138691D01*
X255098057Y-58420000D01*
X255125764Y-58701309D01*
X255207818Y-58971808D01*
X255341068Y-59221101D01*
X255520392Y-59439608D01*
X255738899Y-59618932D01*
X255988192Y-59752182D01*
X256258691Y-59834236D01*
X256469508Y-59855000D01*
X256610492Y-59855000D01*
X256821309Y-59834236D01*
X257091808Y-59752182D01*
X257341101Y-59618932D01*
X257559608Y-59439608D01*
X257711112Y-59255000D01*
X258654133Y-59255000D01*
X262663714Y-63264583D01*
X262645000Y-63358665D01*
X262645000Y-63641335D01*
X262700147Y-63918574D01*
X262808320Y-64179727D01*
X262965363Y-64414759D01*
X263165241Y-64614637D01*
X263400273Y-64771680D01*
X263661426Y-64879853D01*
X263938665Y-64935000D01*
X264221335Y-64935000D01*
X264498574Y-64879853D01*
X264759727Y-64771680D01*
X264994759Y-64614637D01*
X265194637Y-64414759D01*
X265351680Y-64179727D01*
X265372694Y-64128995D01*
X267302916Y-66059218D01*
X267315697Y-66188986D01*
X267359154Y-66332247D01*
X267429726Y-66464276D01*
X267524699Y-66580001D01*
X267640424Y-66674974D01*
X267772453Y-66745546D01*
X267915714Y-66789003D01*
X267958795Y-66793246D01*
X267999294Y-66869014D01*
X268184866Y-67095134D01*
X268410986Y-67280706D01*
X268465791Y-67310000D01*
X268410986Y-67339294D01*
X268184866Y-67524866D01*
X267999294Y-67750986D01*
X267861401Y-68008966D01*
X267776487Y-68288889D01*
X267747815Y-68580000D01*
X267776487Y-68871111D01*
X267861401Y-69151034D01*
X267999294Y-69409014D01*
X268184866Y-69635134D01*
X268410986Y-69820706D01*
X268465791Y-69850000D01*
X268410986Y-69879294D01*
X268184866Y-70064866D01*
X268139566Y-70120064D01*
X267453204Y-69433703D01*
X267429401Y-69404699D01*
X267313676Y-69309726D01*
X267181647Y-69239154D01*
X267038386Y-69195697D01*
X266926733Y-69184700D01*
X266926722Y-69184700D01*
X266889400Y-69181024D01*
X266852078Y-69184700D01*
X265453766Y-69184700D01*
X265511246Y-69063087D01*
X265551904Y-68929039D01*
X265429915Y-68707000D01*
X264287000Y-68707000D01*
X264287000Y-68727000D01*
X264033000Y-68727000D01*
X264033000Y-68707000D01*
X262890085Y-68707000D01*
X262768096Y-68929039D01*
X262808754Y-69063087D01*
X262866234Y-69184700D01*
X258877922Y-69184700D01*
X258840599Y-69181024D01*
X258803276Y-69184700D01*
X258803267Y-69184700D01*
X258691614Y-69195697D01*
X258548353Y-69239154D01*
X258416324Y-69309726D01*
X258300599Y-69404699D01*
X258276801Y-69433697D01*
X257582370Y-70128128D01*
X257559608Y-70100392D01*
X257446518Y-70007581D01*
X257464482Y-70005812D01*
X257584180Y-69969502D01*
X257694494Y-69910537D01*
X257791185Y-69831185D01*
X257870537Y-69734494D01*
X257929502Y-69624180D01*
X257965812Y-69504482D01*
X257978072Y-69380000D01*
X257978072Y-68230961D01*
X262768096Y-68230961D01*
X262890085Y-68453000D01*
X264033000Y-68453000D01*
X264033000Y-67309376D01*
X264287000Y-67309376D01*
X264287000Y-68453000D01*
X265429915Y-68453000D01*
X265551904Y-68230961D01*
X265511246Y-68096913D01*
X265391037Y-67842580D01*
X265223519Y-67616586D01*
X265015131Y-67427615D01*
X264773881Y-67282930D01*
X264509040Y-67188091D01*
X264287000Y-67309376D01*
X264033000Y-67309376D01*
X263810960Y-67188091D01*
X263546119Y-67282930D01*
X263304869Y-67427615D01*
X263096481Y-67616586D01*
X262928963Y-67842580D01*
X262808754Y-68096913D01*
X262768096Y-68230961D01*
X257978072Y-68230961D01*
X257978072Y-67780000D01*
X257965812Y-67655518D01*
X257929502Y-67535820D01*
X257870537Y-67425506D01*
X257791185Y-67328815D01*
X257694494Y-67249463D01*
X257584180Y-67190498D01*
X257464482Y-67154188D01*
X257340000Y-67141928D01*
X255740000Y-67141928D01*
X255615518Y-67154188D01*
X255495820Y-67190498D01*
X255385506Y-67249463D01*
X255288815Y-67328815D01*
X255209463Y-67425506D01*
X255150498Y-67535820D01*
X255114188Y-67655518D01*
X255101928Y-67780000D01*
X255101928Y-69380000D01*
X255114188Y-69504482D01*
X255150498Y-69624180D01*
X255209463Y-69734494D01*
X255288815Y-69831185D01*
X255385506Y-69910537D01*
X255495820Y-69969502D01*
X255615518Y-70005812D01*
X255633482Y-70007581D01*
X255520392Y-70100392D01*
X255341068Y-70318899D01*
X255207818Y-70568192D01*
X255125764Y-70838691D01*
X255098057Y-71120000D01*
X255125764Y-71401309D01*
X255207818Y-71671808D01*
X255341068Y-71921101D01*
X255520392Y-72139608D01*
X255738899Y-72318932D01*
X255871858Y-72390000D01*
X255738899Y-72461068D01*
X255520392Y-72640392D01*
X255497630Y-72668128D01*
X254853204Y-72023702D01*
X254829401Y-71994699D01*
X254713676Y-71899726D01*
X254581647Y-71829154D01*
X254438386Y-71785697D01*
X254326733Y-71774700D01*
X254326722Y-71774700D01*
X254289400Y-71771024D01*
X254252078Y-71774700D01*
X252730134Y-71774700D01*
X252811246Y-71603087D01*
X252851904Y-71469039D01*
X252729915Y-71247000D01*
X251587000Y-71247000D01*
X251587000Y-71267000D01*
X251333000Y-71267000D01*
X251333000Y-71247000D01*
X251313000Y-71247000D01*
X251313000Y-70993000D01*
X251333000Y-70993000D01*
X251333000Y-70973000D01*
X251587000Y-70973000D01*
X251587000Y-70993000D01*
X252729915Y-70993000D01*
X252851904Y-70770961D01*
X252811246Y-70636913D01*
X252691037Y-70382580D01*
X252523519Y-70156586D01*
X252315131Y-69967615D01*
X252123318Y-69852579D01*
X252261101Y-69778932D01*
X252479608Y-69599608D01*
X252658932Y-69381101D01*
X252792182Y-69131808D01*
X252874236Y-68861309D01*
X252901943Y-68580000D01*
X252874236Y-68298691D01*
X252792182Y-68028192D01*
X252658932Y-67778899D01*
X252479608Y-67560392D01*
X252261101Y-67381068D01*
X252128142Y-67310000D01*
X252261101Y-67238932D01*
X252479608Y-67059608D01*
X252658932Y-66841101D01*
X252792182Y-66591808D01*
X252874236Y-66321309D01*
X252901943Y-66040000D01*
X252874236Y-65758691D01*
X252792182Y-65488192D01*
X252658932Y-65238899D01*
X252479608Y-65020392D01*
X252261101Y-64841068D01*
X252128142Y-64770000D01*
X252261101Y-64698932D01*
X252479608Y-64519608D01*
X252501689Y-64492702D01*
X258266903Y-64492702D01*
X258338486Y-64736671D01*
X258593996Y-64857571D01*
X258868184Y-64926300D01*
X259150512Y-64940217D01*
X259430130Y-64898787D01*
X259696292Y-64803603D01*
X259821514Y-64736671D01*
X259893097Y-64492702D01*
X259080000Y-63679605D01*
X258266903Y-64492702D01*
X252501689Y-64492702D01*
X252658932Y-64301101D01*
X252792182Y-64051808D01*
X252874236Y-63781309D01*
X252894998Y-63570512D01*
X257639783Y-63570512D01*
X257681213Y-63850130D01*
X257776397Y-64116292D01*
X257843329Y-64241514D01*
X258087298Y-64313097D01*
X258900395Y-63500000D01*
X259259605Y-63500000D01*
X260072702Y-64313097D01*
X260316671Y-64241514D01*
X260437571Y-63986004D01*
X260506300Y-63711816D01*
X260520217Y-63429488D01*
X260478787Y-63149870D01*
X260383603Y-62883708D01*
X260316671Y-62758486D01*
X260072702Y-62686903D01*
X259259605Y-63500000D01*
X258900395Y-63500000D01*
X258087298Y-62686903D01*
X257843329Y-62758486D01*
X257722429Y-63013996D01*
X257653700Y-63288184D01*
X257639783Y-63570512D01*
X252894998Y-63570512D01*
X252901943Y-63500000D01*
X252874236Y-63218691D01*
X252792182Y-62948192D01*
X252658932Y-62698899D01*
X252501690Y-62507298D01*
X258266903Y-62507298D01*
X259080000Y-63320395D01*
X259893097Y-62507298D01*
X259821514Y-62263329D01*
X259566004Y-62142429D01*
X259291816Y-62073700D01*
X259009488Y-62059783D01*
X258729870Y-62101213D01*
X258463708Y-62196397D01*
X258338486Y-62263329D01*
X258266903Y-62507298D01*
X252501690Y-62507298D01*
X252479608Y-62480392D01*
X252261101Y-62301068D01*
X252198840Y-62267789D01*
X252209003Y-62234286D01*
X252213942Y-62184139D01*
X252261101Y-62158932D01*
X252479608Y-61979608D01*
X252658932Y-61761101D01*
X252792182Y-61511808D01*
X252874236Y-61241309D01*
X252901943Y-60960000D01*
X252874236Y-60678691D01*
X252792182Y-60408192D01*
X252658932Y-60158899D01*
X252479608Y-59940392D01*
X252261101Y-59761068D01*
X252128142Y-59690000D01*
X252261101Y-59618932D01*
X252479608Y-59439608D01*
X252658932Y-59221101D01*
X252792182Y-58971808D01*
X252874236Y-58701309D01*
X252901943Y-58420000D01*
X252874236Y-58138691D01*
X252792182Y-57868192D01*
X252658932Y-57618899D01*
X252479608Y-57400392D01*
X252261101Y-57221068D01*
X252128142Y-57150000D01*
X252261101Y-57078932D01*
X252479608Y-56899608D01*
X252658932Y-56681101D01*
X252792182Y-56431808D01*
X252874236Y-56161309D01*
X252901943Y-55880000D01*
X252874236Y-55598691D01*
X252792182Y-55328192D01*
X252658932Y-55078899D01*
X252479608Y-54860392D01*
X252261101Y-54681068D01*
X252128142Y-54610000D01*
X252261101Y-54538932D01*
X252479608Y-54359608D01*
X252502370Y-54331872D01*
X253146800Y-54976302D01*
G36*
X235200392Y-69599608D02*
G01*
X235418899Y-69778932D01*
X235551858Y-69850000D01*
X235418899Y-69921068D01*
X235200392Y-70100392D01*
X235021068Y-70318899D01*
X234995861Y-70366058D01*
X234945714Y-70370997D01*
X234802453Y-70414454D01*
X234670424Y-70485026D01*
X234554699Y-70579999D01*
X234530901Y-70608997D01*
X233542399Y-71597500D01*
X232492941Y-71597500D01*
X232531904Y-71469039D01*
X232409915Y-71247000D01*
X231267000Y-71247000D01*
X231267000Y-71267000D01*
X231013000Y-71267000D01*
X231013000Y-71247000D01*
X229870085Y-71247000D01*
X229748096Y-71469039D01*
X229787059Y-71597500D01*
X218577602Y-71597500D01*
X217589104Y-70609003D01*
X217565301Y-70579999D01*
X217449576Y-70485026D01*
X217317547Y-70414454D01*
X217174286Y-70370997D01*
X217124139Y-70366058D01*
X217098932Y-70318899D01*
X216919608Y-70100392D01*
X216701101Y-69921068D01*
X216568142Y-69850000D01*
X216701101Y-69778932D01*
X216919608Y-69599608D01*
X216942370Y-69571872D01*
X217586801Y-70216303D01*
X217610599Y-70245301D01*
X217726324Y-70340274D01*
X217858353Y-70410846D01*
X218001614Y-70454303D01*
X218047821Y-70458854D01*
X218150600Y-70468977D01*
X218187933Y-70465300D01*
X229869866Y-70465300D01*
X229788754Y-70636913D01*
X229748096Y-70770961D01*
X229870085Y-70993000D01*
X231013000Y-70993000D01*
X231013000Y-70973000D01*
X231267000Y-70973000D01*
X231267000Y-70993000D01*
X232409915Y-70993000D01*
X232531904Y-70770961D01*
X232491246Y-70636913D01*
X232410134Y-70465300D01*
X233932078Y-70465300D01*
X233969400Y-70468976D01*
X234006722Y-70465300D01*
X234006733Y-70465300D01*
X234118386Y-70454303D01*
X234261647Y-70410846D01*
X234393676Y-70340274D01*
X234509401Y-70245301D01*
X234533204Y-70216298D01*
X235177630Y-69571872D01*
X235200392Y-69599608D01*
X235200392Y-69599608D01*
G37*
X235200392Y-69599608D02*
X235418899Y-69778932D01*
X235551858Y-69850000D01*
X235418899Y-69921068D01*
X235200392Y-70100392D01*
X235021068Y-70318899D01*
X234995861Y-70366058D01*
X234945714Y-70370997D01*
X234802453Y-70414454D01*
X234670424Y-70485026D01*
X234554699Y-70579999D01*
X234530901Y-70608997D01*
X233542399Y-71597500D01*
X232492941Y-71597500D01*
X232531904Y-71469039D01*
X232409915Y-71247000D01*
X231267000Y-71247000D01*
X231267000Y-71267000D01*
X231013000Y-71267000D01*
X231013000Y-71247000D01*
X229870085Y-71247000D01*
X229748096Y-71469039D01*
X229787059Y-71597500D01*
X218577602Y-71597500D01*
X217589104Y-70609003D01*
X217565301Y-70579999D01*
X217449576Y-70485026D01*
X217317547Y-70414454D01*
X217174286Y-70370997D01*
X217124139Y-70366058D01*
X217098932Y-70318899D01*
X216919608Y-70100392D01*
X216701101Y-69921068D01*
X216568142Y-69850000D01*
X216701101Y-69778932D01*
X216919608Y-69599608D01*
X216942370Y-69571872D01*
X217586801Y-70216303D01*
X217610599Y-70245301D01*
X217726324Y-70340274D01*
X217858353Y-70410846D01*
X218001614Y-70454303D01*
X218047821Y-70458854D01*
X218150600Y-70468977D01*
X218187933Y-70465300D01*
X229869866Y-70465300D01*
X229788754Y-70636913D01*
X229748096Y-70770961D01*
X229870085Y-70993000D01*
X231013000Y-70993000D01*
X231013000Y-70973000D01*
X231267000Y-70973000D01*
X231267000Y-70993000D01*
X232409915Y-70993000D01*
X232531904Y-70770961D01*
X232491246Y-70636913D01*
X232410134Y-70465300D01*
X233932078Y-70465300D01*
X233969400Y-70468976D01*
X234006722Y-70465300D01*
X234006733Y-70465300D01*
X234118386Y-70454303D01*
X234261647Y-70410846D01*
X234393676Y-70340274D01*
X234509401Y-70245301D01*
X234533204Y-70216298D01*
X235177630Y-69571872D01*
X235200392Y-69599608D01*
G36*
X250440392Y-39119608D02*
G01*
X250658899Y-39298932D01*
X250791858Y-39370000D01*
X250658899Y-39441068D01*
X250440392Y-39620392D01*
X250261068Y-39838899D01*
X250127818Y-40088192D01*
X250045764Y-40358691D01*
X250018057Y-40640000D01*
X250045764Y-40921309D01*
X250127818Y-41191808D01*
X250261068Y-41441101D01*
X250440392Y-41659608D01*
X250658899Y-41838932D01*
X250791858Y-41910000D01*
X250658899Y-41981068D01*
X250440392Y-42160392D01*
X250261068Y-42378899D01*
X250127818Y-42628192D01*
X250045764Y-42898691D01*
X250018057Y-43180000D01*
X250045764Y-43461309D01*
X250127818Y-43731808D01*
X250261068Y-43981101D01*
X250440392Y-44199608D01*
X250658899Y-44378932D01*
X250791858Y-44450000D01*
X250658899Y-44521068D01*
X250440392Y-44700392D01*
X250261068Y-44918899D01*
X250127818Y-45168192D01*
X250045764Y-45438691D01*
X250018057Y-45720000D01*
X250045764Y-46001309D01*
X250127818Y-46271808D01*
X250261068Y-46521101D01*
X250440392Y-46739608D01*
X250658899Y-46918932D01*
X250791858Y-46990000D01*
X250658899Y-47061068D01*
X250440392Y-47240392D01*
X250261068Y-47458899D01*
X250127818Y-47708192D01*
X250045764Y-47978691D01*
X250018057Y-48260000D01*
X250045764Y-48541309D01*
X250127818Y-48811808D01*
X250261068Y-49061101D01*
X250440392Y-49279608D01*
X250658899Y-49458932D01*
X250791858Y-49530000D01*
X250658899Y-49601068D01*
X250440392Y-49780392D01*
X250261068Y-49998899D01*
X250127818Y-50248192D01*
X250045764Y-50518691D01*
X250018057Y-50800000D01*
X250045764Y-51081309D01*
X250127818Y-51351808D01*
X250261068Y-51601101D01*
X250440392Y-51819608D01*
X250658899Y-51998932D01*
X250791858Y-52070000D01*
X250658899Y-52141068D01*
X250440392Y-52320392D01*
X250261068Y-52538899D01*
X250127818Y-52788192D01*
X250045764Y-53058691D01*
X250018057Y-53340000D01*
X250045764Y-53621309D01*
X250127818Y-53891808D01*
X250261068Y-54141101D01*
X250440392Y-54359608D01*
X250658899Y-54538932D01*
X250791858Y-54610000D01*
X250658899Y-54681068D01*
X250440392Y-54860392D01*
X250261068Y-55078899D01*
X250127818Y-55328192D01*
X250045764Y-55598691D01*
X250018057Y-55880000D01*
X250045764Y-56161309D01*
X250127818Y-56431808D01*
X250261068Y-56681101D01*
X250440392Y-56899608D01*
X250658899Y-57078932D01*
X250791858Y-57150000D01*
X250658899Y-57221068D01*
X250440392Y-57400392D01*
X250261068Y-57618899D01*
X250127818Y-57868192D01*
X250045764Y-58138691D01*
X250018057Y-58420000D01*
X250045764Y-58701309D01*
X250127818Y-58971808D01*
X250261068Y-59221101D01*
X250440392Y-59439608D01*
X250658899Y-59618932D01*
X250791858Y-59690000D01*
X250658899Y-59761068D01*
X250440392Y-59940392D01*
X250261068Y-60158899D01*
X250127818Y-60408192D01*
X250045764Y-60678691D01*
X250018057Y-60960000D01*
X250045764Y-61241309D01*
X250127818Y-61511808D01*
X250261068Y-61761101D01*
X250336357Y-61852841D01*
X249716098Y-62473101D01*
X249687100Y-62496899D01*
X249663302Y-62525897D01*
X249663301Y-62525898D01*
X249592126Y-62612624D01*
X249521554Y-62744654D01*
X249478098Y-62887915D01*
X249463424Y-63036900D01*
X249467101Y-63074232D01*
X249467100Y-71460398D01*
X237332779Y-59326078D01*
X237418932Y-59221101D01*
X237552182Y-58971808D01*
X237634236Y-58701309D01*
X237661943Y-58420000D01*
X237634236Y-58138691D01*
X237552182Y-57868192D01*
X237418932Y-57618899D01*
X237239608Y-57400392D01*
X237021101Y-57221068D01*
X236888142Y-57150000D01*
X237021101Y-57078932D01*
X237239608Y-56899608D01*
X237418932Y-56681101D01*
X237552182Y-56431808D01*
X237634236Y-56161309D01*
X237661943Y-55880000D01*
X237634236Y-55598691D01*
X237552182Y-55328192D01*
X237418932Y-55078899D01*
X237239608Y-54860392D01*
X237021101Y-54681068D01*
X236888142Y-54610000D01*
X237021101Y-54538932D01*
X237239608Y-54359608D01*
X237418932Y-54141101D01*
X237552182Y-53891808D01*
X237634236Y-53621309D01*
X237661943Y-53340000D01*
X237634236Y-53058691D01*
X237552182Y-52788192D01*
X237418932Y-52538899D01*
X237239608Y-52320392D01*
X237021101Y-52141068D01*
X236888142Y-52070000D01*
X237021101Y-51998932D01*
X237239608Y-51819608D01*
X237418932Y-51601101D01*
X237552182Y-51351808D01*
X237634236Y-51081309D01*
X237661943Y-50800000D01*
X237634236Y-50518691D01*
X237552182Y-50248192D01*
X237418932Y-49998899D01*
X237239608Y-49780392D01*
X237021101Y-49601068D01*
X236888142Y-49530000D01*
X237021101Y-49458932D01*
X237239608Y-49279608D01*
X237418932Y-49061101D01*
X237552182Y-48811808D01*
X237634236Y-48541309D01*
X237661943Y-48260000D01*
X237634236Y-47978691D01*
X237552182Y-47708192D01*
X237418932Y-47458899D01*
X237239608Y-47240392D01*
X237021101Y-47061068D01*
X236883318Y-46987421D01*
X237075131Y-46872385D01*
X237283519Y-46683414D01*
X237451037Y-46457420D01*
X237571246Y-46203087D01*
X237611904Y-46069039D01*
X237489915Y-45847000D01*
X236347000Y-45847000D01*
X236347000Y-45867000D01*
X236093000Y-45867000D01*
X236093000Y-45847000D01*
X234950085Y-45847000D01*
X234828096Y-46069039D01*
X234868754Y-46203087D01*
X234988963Y-46457420D01*
X235156481Y-46683414D01*
X235364869Y-46872385D01*
X235556682Y-46987421D01*
X235418899Y-47061068D01*
X235200392Y-47240392D01*
X235177630Y-47268128D01*
X230578504Y-42669003D01*
X230554701Y-42639999D01*
X230552022Y-42637800D01*
X234884903Y-42637800D01*
X234805764Y-42898691D01*
X234778057Y-43180000D01*
X234805764Y-43461309D01*
X234887818Y-43731808D01*
X235021068Y-43981101D01*
X235200392Y-44199608D01*
X235418899Y-44378932D01*
X235556682Y-44452579D01*
X235364869Y-44567615D01*
X235156481Y-44756586D01*
X234988963Y-44982580D01*
X234868754Y-45236913D01*
X234828096Y-45370961D01*
X234950085Y-45593000D01*
X236093000Y-45593000D01*
X236093000Y-45573000D01*
X236347000Y-45573000D01*
X236347000Y-45593000D01*
X237489915Y-45593000D01*
X237611904Y-45370961D01*
X237571246Y-45236913D01*
X237451037Y-44982580D01*
X237283519Y-44756586D01*
X237075131Y-44567615D01*
X236883318Y-44452579D01*
X237021101Y-44378932D01*
X237239608Y-44199608D01*
X237418932Y-43981101D01*
X237552182Y-43731808D01*
X237634236Y-43461309D01*
X237661943Y-43180000D01*
X237634236Y-42898691D01*
X237555097Y-42637800D01*
X246519578Y-42637800D01*
X246556900Y-42641476D01*
X246594222Y-42637800D01*
X246594233Y-42637800D01*
X246705886Y-42626803D01*
X246849147Y-42583346D01*
X246981176Y-42512774D01*
X247096901Y-42417801D01*
X247120704Y-42388797D01*
X250417630Y-39091872D01*
X250440392Y-39119608D01*
X250440392Y-39119608D01*
G37*
X250440392Y-39119608D02*
X250658899Y-39298932D01*
X250791858Y-39370000D01*
X250658899Y-39441068D01*
X250440392Y-39620392D01*
X250261068Y-39838899D01*
X250127818Y-40088192D01*
X250045764Y-40358691D01*
X250018057Y-40640000D01*
X250045764Y-40921309D01*
X250127818Y-41191808D01*
X250261068Y-41441101D01*
X250440392Y-41659608D01*
X250658899Y-41838932D01*
X250791858Y-41910000D01*
X250658899Y-41981068D01*
X250440392Y-42160392D01*
X250261068Y-42378899D01*
X250127818Y-42628192D01*
X250045764Y-42898691D01*
X250018057Y-43180000D01*
X250045764Y-43461309D01*
X250127818Y-43731808D01*
X250261068Y-43981101D01*
X250440392Y-44199608D01*
X250658899Y-44378932D01*
X250791858Y-44450000D01*
X250658899Y-44521068D01*
X250440392Y-44700392D01*
X250261068Y-44918899D01*
X250127818Y-45168192D01*
X250045764Y-45438691D01*
X250018057Y-45720000D01*
X250045764Y-46001309D01*
X250127818Y-46271808D01*
X250261068Y-46521101D01*
X250440392Y-46739608D01*
X250658899Y-46918932D01*
X250791858Y-46990000D01*
X250658899Y-47061068D01*
X250440392Y-47240392D01*
X250261068Y-47458899D01*
X250127818Y-47708192D01*
X250045764Y-47978691D01*
X250018057Y-48260000D01*
X250045764Y-48541309D01*
X250127818Y-48811808D01*
X250261068Y-49061101D01*
X250440392Y-49279608D01*
X250658899Y-49458932D01*
X250791858Y-49530000D01*
X250658899Y-49601068D01*
X250440392Y-49780392D01*
X250261068Y-49998899D01*
X250127818Y-50248192D01*
X250045764Y-50518691D01*
X250018057Y-50800000D01*
X250045764Y-51081309D01*
X250127818Y-51351808D01*
X250261068Y-51601101D01*
X250440392Y-51819608D01*
X250658899Y-51998932D01*
X250791858Y-52070000D01*
X250658899Y-52141068D01*
X250440392Y-52320392D01*
X250261068Y-52538899D01*
X250127818Y-52788192D01*
X250045764Y-53058691D01*
X250018057Y-53340000D01*
X250045764Y-53621309D01*
X250127818Y-53891808D01*
X250261068Y-54141101D01*
X250440392Y-54359608D01*
X250658899Y-54538932D01*
X250791858Y-54610000D01*
X250658899Y-54681068D01*
X250440392Y-54860392D01*
X250261068Y-55078899D01*
X250127818Y-55328192D01*
X250045764Y-55598691D01*
X250018057Y-55880000D01*
X250045764Y-56161309D01*
X250127818Y-56431808D01*
X250261068Y-56681101D01*
X250440392Y-56899608D01*
X250658899Y-57078932D01*
X250791858Y-57150000D01*
X250658899Y-57221068D01*
X250440392Y-57400392D01*
X250261068Y-57618899D01*
X250127818Y-57868192D01*
X250045764Y-58138691D01*
X250018057Y-58420000D01*
X250045764Y-58701309D01*
X250127818Y-58971808D01*
X250261068Y-59221101D01*
X250440392Y-59439608D01*
X250658899Y-59618932D01*
X250791858Y-59690000D01*
X250658899Y-59761068D01*
X250440392Y-59940392D01*
X250261068Y-60158899D01*
X250127818Y-60408192D01*
X250045764Y-60678691D01*
X250018057Y-60960000D01*
X250045764Y-61241309D01*
X250127818Y-61511808D01*
X250261068Y-61761101D01*
X250336357Y-61852841D01*
X249716098Y-62473101D01*
X249687100Y-62496899D01*
X249663302Y-62525897D01*
X249663301Y-62525898D01*
X249592126Y-62612624D01*
X249521554Y-62744654D01*
X249478098Y-62887915D01*
X249463424Y-63036900D01*
X249467101Y-63074232D01*
X249467100Y-71460398D01*
X237332779Y-59326078D01*
X237418932Y-59221101D01*
X237552182Y-58971808D01*
X237634236Y-58701309D01*
X237661943Y-58420000D01*
X237634236Y-58138691D01*
X237552182Y-57868192D01*
X237418932Y-57618899D01*
X237239608Y-57400392D01*
X237021101Y-57221068D01*
X236888142Y-57150000D01*
X237021101Y-57078932D01*
X237239608Y-56899608D01*
X237418932Y-56681101D01*
X237552182Y-56431808D01*
X237634236Y-56161309D01*
X237661943Y-55880000D01*
X237634236Y-55598691D01*
X237552182Y-55328192D01*
X237418932Y-55078899D01*
X237239608Y-54860392D01*
X237021101Y-54681068D01*
X236888142Y-54610000D01*
X237021101Y-54538932D01*
X237239608Y-54359608D01*
X237418932Y-54141101D01*
X237552182Y-53891808D01*
X237634236Y-53621309D01*
X237661943Y-53340000D01*
X237634236Y-53058691D01*
X237552182Y-52788192D01*
X237418932Y-52538899D01*
X237239608Y-52320392D01*
X237021101Y-52141068D01*
X236888142Y-52070000D01*
X237021101Y-51998932D01*
X237239608Y-51819608D01*
X237418932Y-51601101D01*
X237552182Y-51351808D01*
X237634236Y-51081309D01*
X237661943Y-50800000D01*
X237634236Y-50518691D01*
X237552182Y-50248192D01*
X237418932Y-49998899D01*
X237239608Y-49780392D01*
X237021101Y-49601068D01*
X236888142Y-49530000D01*
X237021101Y-49458932D01*
X237239608Y-49279608D01*
X237418932Y-49061101D01*
X237552182Y-48811808D01*
X237634236Y-48541309D01*
X237661943Y-48260000D01*
X237634236Y-47978691D01*
X237552182Y-47708192D01*
X237418932Y-47458899D01*
X237239608Y-47240392D01*
X237021101Y-47061068D01*
X236883318Y-46987421D01*
X237075131Y-46872385D01*
X237283519Y-46683414D01*
X237451037Y-46457420D01*
X237571246Y-46203087D01*
X237611904Y-46069039D01*
X237489915Y-45847000D01*
X236347000Y-45847000D01*
X236347000Y-45867000D01*
X236093000Y-45867000D01*
X236093000Y-45847000D01*
X234950085Y-45847000D01*
X234828096Y-46069039D01*
X234868754Y-46203087D01*
X234988963Y-46457420D01*
X235156481Y-46683414D01*
X235364869Y-46872385D01*
X235556682Y-46987421D01*
X235418899Y-47061068D01*
X235200392Y-47240392D01*
X235177630Y-47268128D01*
X230578504Y-42669003D01*
X230554701Y-42639999D01*
X230552022Y-42637800D01*
X234884903Y-42637800D01*
X234805764Y-42898691D01*
X234778057Y-43180000D01*
X234805764Y-43461309D01*
X234887818Y-43731808D01*
X235021068Y-43981101D01*
X235200392Y-44199608D01*
X235418899Y-44378932D01*
X235556682Y-44452579D01*
X235364869Y-44567615D01*
X235156481Y-44756586D01*
X234988963Y-44982580D01*
X234868754Y-45236913D01*
X234828096Y-45370961D01*
X234950085Y-45593000D01*
X236093000Y-45593000D01*
X236093000Y-45573000D01*
X236347000Y-45573000D01*
X236347000Y-45593000D01*
X237489915Y-45593000D01*
X237611904Y-45370961D01*
X237571246Y-45236913D01*
X237451037Y-44982580D01*
X237283519Y-44756586D01*
X237075131Y-44567615D01*
X236883318Y-44452579D01*
X237021101Y-44378932D01*
X237239608Y-44199608D01*
X237418932Y-43981101D01*
X237552182Y-43731808D01*
X237634236Y-43461309D01*
X237661943Y-43180000D01*
X237634236Y-42898691D01*
X237555097Y-42637800D01*
X246519578Y-42637800D01*
X246556900Y-42641476D01*
X246594222Y-42637800D01*
X246594233Y-42637800D01*
X246705886Y-42626803D01*
X246849147Y-42583346D01*
X246981176Y-42512774D01*
X247096901Y-42417801D01*
X247120704Y-42388797D01*
X250417630Y-39091872D01*
X250440392Y-39119608D01*
G36*
X209428096Y-60610961D02*
G01*
X209550085Y-60833000D01*
X210693000Y-60833000D01*
X210693000Y-60813000D01*
X210947000Y-60813000D01*
X210947000Y-60833000D01*
X212089915Y-60833000D01*
X212211904Y-60610961D01*
X212176216Y-60493300D01*
X214542001Y-60493300D01*
X214485764Y-60678691D01*
X214458057Y-60960000D01*
X214485764Y-61241309D01*
X214567818Y-61511808D01*
X214701068Y-61761101D01*
X214880392Y-61979608D01*
X215098899Y-62158932D01*
X215231858Y-62230000D01*
X215098899Y-62301068D01*
X214880392Y-62480392D01*
X214701068Y-62698899D01*
X214675861Y-62746058D01*
X214625714Y-62750997D01*
X214494347Y-62790846D01*
X214482453Y-62794454D01*
X214350423Y-62865026D01*
X214299633Y-62906709D01*
X214234699Y-62959999D01*
X214210901Y-62988997D01*
X213045199Y-64154700D01*
X212097185Y-64154700D01*
X212152182Y-64051808D01*
X212234236Y-63781309D01*
X212261943Y-63500000D01*
X212234236Y-63218691D01*
X212152182Y-62948192D01*
X212018932Y-62698899D01*
X211839608Y-62480392D01*
X211621101Y-62301068D01*
X211483318Y-62227421D01*
X211675131Y-62112385D01*
X211883519Y-61923414D01*
X212051037Y-61697420D01*
X212171246Y-61443087D01*
X212211904Y-61309039D01*
X212089915Y-61087000D01*
X210947000Y-61087000D01*
X210947000Y-61107000D01*
X210693000Y-61107000D01*
X210693000Y-61087000D01*
X209550085Y-61087000D01*
X209428096Y-61309039D01*
X209468754Y-61443087D01*
X209588963Y-61697420D01*
X209756481Y-61923414D01*
X209964869Y-62112385D01*
X210156682Y-62227421D01*
X210018899Y-62301068D01*
X209800392Y-62480392D01*
X209621068Y-62698899D01*
X209487818Y-62948192D01*
X209405764Y-63218691D01*
X209378057Y-63500000D01*
X209405764Y-63781309D01*
X209487818Y-64051808D01*
X209542815Y-64154700D01*
X205487933Y-64154700D01*
X205450600Y-64151023D01*
X205413267Y-64154700D01*
X205301614Y-64165697D01*
X205158353Y-64209154D01*
X205026324Y-64279726D01*
X204910599Y-64374699D01*
X204886801Y-64403697D01*
X204242370Y-65048128D01*
X204219608Y-65020392D01*
X204001101Y-64841068D01*
X203868142Y-64770000D01*
X204001101Y-64698932D01*
X204219608Y-64519608D01*
X204398932Y-64301101D01*
X204532182Y-64051808D01*
X204614236Y-63781309D01*
X204641943Y-63500000D01*
X204614236Y-63218691D01*
X204532182Y-62948192D01*
X204398932Y-62698899D01*
X204219608Y-62480392D01*
X204106518Y-62387581D01*
X204124482Y-62385812D01*
X204244180Y-62349502D01*
X204354494Y-62290537D01*
X204451185Y-62211185D01*
X204530537Y-62114494D01*
X204589502Y-62004180D01*
X204625812Y-61884482D01*
X204638072Y-61760000D01*
X204638072Y-60493300D01*
X209463784Y-60493300D01*
X209428096Y-60610961D01*
X209428096Y-60610961D01*
G37*
X209428096Y-60610961D02*
X209550085Y-60833000D01*
X210693000Y-60833000D01*
X210693000Y-60813000D01*
X210947000Y-60813000D01*
X210947000Y-60833000D01*
X212089915Y-60833000D01*
X212211904Y-60610961D01*
X212176216Y-60493300D01*
X214542001Y-60493300D01*
X214485764Y-60678691D01*
X214458057Y-60960000D01*
X214485764Y-61241309D01*
X214567818Y-61511808D01*
X214701068Y-61761101D01*
X214880392Y-61979608D01*
X215098899Y-62158932D01*
X215231858Y-62230000D01*
X215098899Y-62301068D01*
X214880392Y-62480392D01*
X214701068Y-62698899D01*
X214675861Y-62746058D01*
X214625714Y-62750997D01*
X214494347Y-62790846D01*
X214482453Y-62794454D01*
X214350423Y-62865026D01*
X214299633Y-62906709D01*
X214234699Y-62959999D01*
X214210901Y-62988997D01*
X213045199Y-64154700D01*
X212097185Y-64154700D01*
X212152182Y-64051808D01*
X212234236Y-63781309D01*
X212261943Y-63500000D01*
X212234236Y-63218691D01*
X212152182Y-62948192D01*
X212018932Y-62698899D01*
X211839608Y-62480392D01*
X211621101Y-62301068D01*
X211483318Y-62227421D01*
X211675131Y-62112385D01*
X211883519Y-61923414D01*
X212051037Y-61697420D01*
X212171246Y-61443087D01*
X212211904Y-61309039D01*
X212089915Y-61087000D01*
X210947000Y-61087000D01*
X210947000Y-61107000D01*
X210693000Y-61107000D01*
X210693000Y-61087000D01*
X209550085Y-61087000D01*
X209428096Y-61309039D01*
X209468754Y-61443087D01*
X209588963Y-61697420D01*
X209756481Y-61923414D01*
X209964869Y-62112385D01*
X210156682Y-62227421D01*
X210018899Y-62301068D01*
X209800392Y-62480392D01*
X209621068Y-62698899D01*
X209487818Y-62948192D01*
X209405764Y-63218691D01*
X209378057Y-63500000D01*
X209405764Y-63781309D01*
X209487818Y-64051808D01*
X209542815Y-64154700D01*
X205487933Y-64154700D01*
X205450600Y-64151023D01*
X205413267Y-64154700D01*
X205301614Y-64165697D01*
X205158353Y-64209154D01*
X205026324Y-64279726D01*
X204910599Y-64374699D01*
X204886801Y-64403697D01*
X204242370Y-65048128D01*
X204219608Y-65020392D01*
X204001101Y-64841068D01*
X203868142Y-64770000D01*
X204001101Y-64698932D01*
X204219608Y-64519608D01*
X204398932Y-64301101D01*
X204532182Y-64051808D01*
X204614236Y-63781309D01*
X204641943Y-63500000D01*
X204614236Y-63218691D01*
X204532182Y-62948192D01*
X204398932Y-62698899D01*
X204219608Y-62480392D01*
X204106518Y-62387581D01*
X204124482Y-62385812D01*
X204244180Y-62349502D01*
X204354494Y-62290537D01*
X204451185Y-62211185D01*
X204530537Y-62114494D01*
X204589502Y-62004180D01*
X204625812Y-61884482D01*
X204638072Y-61760000D01*
X204638072Y-60493300D01*
X209463784Y-60493300D01*
X209428096Y-60610961D01*
G36*
X219553700Y-50588184D02*
G01*
X219539783Y-50870512D01*
X219581213Y-51150130D01*
X219676397Y-51416292D01*
X219743329Y-51541514D01*
X219987298Y-51613097D01*
X220800395Y-50800000D01*
X220786253Y-50785858D01*
X220965858Y-50606253D01*
X220980000Y-50620395D01*
X220994143Y-50606253D01*
X221173748Y-50785858D01*
X221159605Y-50800000D01*
X221972702Y-51613097D01*
X222216671Y-51541514D01*
X222337571Y-51286004D01*
X222406300Y-51011816D01*
X222420217Y-50729488D01*
X222378787Y-50449870D01*
X222336635Y-50332000D01*
X226991133Y-50332000D01*
X227223715Y-50564582D01*
X227205000Y-50658665D01*
X227205000Y-50941335D01*
X227260147Y-51218574D01*
X227368320Y-51479727D01*
X227525363Y-51714759D01*
X227725241Y-51914637D01*
X227960273Y-52071680D01*
X228221426Y-52179853D01*
X228498665Y-52235000D01*
X228781335Y-52235000D01*
X229058574Y-52179853D01*
X229308395Y-52076374D01*
X229309054Y-52078546D01*
X229379626Y-52210576D01*
X229440595Y-52284866D01*
X229474600Y-52326301D01*
X229503598Y-52350099D01*
X231726692Y-54573194D01*
X231489040Y-54488091D01*
X231267000Y-54609376D01*
X231267000Y-55753000D01*
X232409915Y-55753000D01*
X232531904Y-55530961D01*
X232491246Y-55396913D01*
X232438219Y-55284721D01*
X233544500Y-56391002D01*
X233568299Y-56420001D01*
X233597297Y-56443799D01*
X233684023Y-56514974D01*
X233789689Y-56571454D01*
X233816053Y-56585546D01*
X233959314Y-56629003D01*
X234070967Y-56640000D01*
X234070976Y-56640000D01*
X234108299Y-56643676D01*
X234145622Y-56640000D01*
X234999099Y-56640000D01*
X235021068Y-56681101D01*
X235200392Y-56899608D01*
X235418899Y-57078932D01*
X235551858Y-57150000D01*
X235418899Y-57221068D01*
X235200392Y-57400392D01*
X235021068Y-57618899D01*
X234887818Y-57868192D01*
X234805764Y-58138691D01*
X234778057Y-58420000D01*
X234805764Y-58701309D01*
X234875136Y-58930000D01*
X234371602Y-58930000D01*
X232238212Y-56796611D01*
X232371037Y-56617420D01*
X232491246Y-56363087D01*
X232531904Y-56229039D01*
X232409915Y-56007000D01*
X231267000Y-56007000D01*
X231267000Y-56027000D01*
X231013000Y-56027000D01*
X231013000Y-56007000D01*
X229870085Y-56007000D01*
X229748096Y-56229039D01*
X229788754Y-56363087D01*
X229861500Y-56517000D01*
X217338072Y-56517000D01*
X217338072Y-55530961D01*
X229748096Y-55530961D01*
X229870085Y-55753000D01*
X231013000Y-55753000D01*
X231013000Y-54609376D01*
X230790960Y-54488091D01*
X230526119Y-54582930D01*
X230284869Y-54727615D01*
X230076481Y-54916586D01*
X229908963Y-55142580D01*
X229788754Y-55396913D01*
X229748096Y-55530961D01*
X217338072Y-55530961D01*
X217338072Y-55080000D01*
X217325812Y-54955518D01*
X217289502Y-54835820D01*
X217230537Y-54725506D01*
X217151185Y-54628815D01*
X217054494Y-54549463D01*
X216944180Y-54490498D01*
X216824482Y-54454188D01*
X216735000Y-54445375D01*
X216735000Y-52021384D01*
X216894759Y-51914637D01*
X217016694Y-51792702D01*
X220166903Y-51792702D01*
X220238486Y-52036671D01*
X220493996Y-52157571D01*
X220768184Y-52226300D01*
X221050512Y-52240217D01*
X221330130Y-52198787D01*
X221596292Y-52103603D01*
X221721514Y-52036671D01*
X221793097Y-51792702D01*
X220980000Y-50979605D01*
X220166903Y-51792702D01*
X217016694Y-51792702D01*
X217094637Y-51714759D01*
X217251680Y-51479727D01*
X217359853Y-51218574D01*
X217415000Y-50941335D01*
X217415000Y-50658665D01*
X217396286Y-50564582D01*
X217628868Y-50332000D01*
X219617916Y-50332000D01*
X219553700Y-50588184D01*
X219553700Y-50588184D01*
G37*
X219553700Y-50588184D02*
X219539783Y-50870512D01*
X219581213Y-51150130D01*
X219676397Y-51416292D01*
X219743329Y-51541514D01*
X219987298Y-51613097D01*
X220800395Y-50800000D01*
X220786253Y-50785858D01*
X220965858Y-50606253D01*
X220980000Y-50620395D01*
X220994143Y-50606253D01*
X221173748Y-50785858D01*
X221159605Y-50800000D01*
X221972702Y-51613097D01*
X222216671Y-51541514D01*
X222337571Y-51286004D01*
X222406300Y-51011816D01*
X222420217Y-50729488D01*
X222378787Y-50449870D01*
X222336635Y-50332000D01*
X226991133Y-50332000D01*
X227223715Y-50564582D01*
X227205000Y-50658665D01*
X227205000Y-50941335D01*
X227260147Y-51218574D01*
X227368320Y-51479727D01*
X227525363Y-51714759D01*
X227725241Y-51914637D01*
X227960273Y-52071680D01*
X228221426Y-52179853D01*
X228498665Y-52235000D01*
X228781335Y-52235000D01*
X229058574Y-52179853D01*
X229308395Y-52076374D01*
X229309054Y-52078546D01*
X229379626Y-52210576D01*
X229440595Y-52284866D01*
X229474600Y-52326301D01*
X229503598Y-52350099D01*
X231726692Y-54573194D01*
X231489040Y-54488091D01*
X231267000Y-54609376D01*
X231267000Y-55753000D01*
X232409915Y-55753000D01*
X232531904Y-55530961D01*
X232491246Y-55396913D01*
X232438219Y-55284721D01*
X233544500Y-56391002D01*
X233568299Y-56420001D01*
X233597297Y-56443799D01*
X233684023Y-56514974D01*
X233789689Y-56571454D01*
X233816053Y-56585546D01*
X233959314Y-56629003D01*
X234070967Y-56640000D01*
X234070976Y-56640000D01*
X234108299Y-56643676D01*
X234145622Y-56640000D01*
X234999099Y-56640000D01*
X235021068Y-56681101D01*
X235200392Y-56899608D01*
X235418899Y-57078932D01*
X235551858Y-57150000D01*
X235418899Y-57221068D01*
X235200392Y-57400392D01*
X235021068Y-57618899D01*
X234887818Y-57868192D01*
X234805764Y-58138691D01*
X234778057Y-58420000D01*
X234805764Y-58701309D01*
X234875136Y-58930000D01*
X234371602Y-58930000D01*
X232238212Y-56796611D01*
X232371037Y-56617420D01*
X232491246Y-56363087D01*
X232531904Y-56229039D01*
X232409915Y-56007000D01*
X231267000Y-56007000D01*
X231267000Y-56027000D01*
X231013000Y-56027000D01*
X231013000Y-56007000D01*
X229870085Y-56007000D01*
X229748096Y-56229039D01*
X229788754Y-56363087D01*
X229861500Y-56517000D01*
X217338072Y-56517000D01*
X217338072Y-55530961D01*
X229748096Y-55530961D01*
X229870085Y-55753000D01*
X231013000Y-55753000D01*
X231013000Y-54609376D01*
X230790960Y-54488091D01*
X230526119Y-54582930D01*
X230284869Y-54727615D01*
X230076481Y-54916586D01*
X229908963Y-55142580D01*
X229788754Y-55396913D01*
X229748096Y-55530961D01*
X217338072Y-55530961D01*
X217338072Y-55080000D01*
X217325812Y-54955518D01*
X217289502Y-54835820D01*
X217230537Y-54725506D01*
X217151185Y-54628815D01*
X217054494Y-54549463D01*
X216944180Y-54490498D01*
X216824482Y-54454188D01*
X216735000Y-54445375D01*
X216735000Y-52021384D01*
X216894759Y-51914637D01*
X217016694Y-51792702D01*
X220166903Y-51792702D01*
X220238486Y-52036671D01*
X220493996Y-52157571D01*
X220768184Y-52226300D01*
X221050512Y-52240217D01*
X221330130Y-52198787D01*
X221596292Y-52103603D01*
X221721514Y-52036671D01*
X221793097Y-51792702D01*
X220980000Y-50979605D01*
X220166903Y-51792702D01*
X217016694Y-51792702D01*
X217094637Y-51714759D01*
X217251680Y-51479727D01*
X217359853Y-51218574D01*
X217415000Y-50941335D01*
X217415000Y-50658665D01*
X217396286Y-50564582D01*
X217628868Y-50332000D01*
X219617916Y-50332000D01*
X219553700Y-50588184D01*
G36*
X209356487Y-50508889D02*
G01*
X209327815Y-50800000D01*
X209356487Y-51091111D01*
X209441401Y-51371034D01*
X209579294Y-51629014D01*
X209764866Y-51855134D01*
X209990986Y-52040706D01*
X210248966Y-52178599D01*
X210528889Y-52263513D01*
X210747050Y-52285000D01*
X210892950Y-52285000D01*
X211111111Y-52263513D01*
X211391034Y-52178599D01*
X211649014Y-52040706D01*
X211875134Y-51855134D01*
X212055793Y-51635000D01*
X214812070Y-51635000D01*
X214865363Y-51714759D01*
X215065000Y-51914396D01*
X215065001Y-54445375D01*
X214975518Y-54454188D01*
X214855820Y-54490498D01*
X214745506Y-54549463D01*
X214648815Y-54628815D01*
X214569463Y-54725506D01*
X214510498Y-54835820D01*
X214474188Y-54955518D01*
X214461928Y-55080000D01*
X214461928Y-56517000D01*
X212106124Y-56517000D01*
X212177571Y-56366004D01*
X212246300Y-56091816D01*
X212260217Y-55809488D01*
X212218787Y-55529870D01*
X212123603Y-55263708D01*
X212056671Y-55138486D01*
X211812702Y-55066903D01*
X210999605Y-55880000D01*
X211013748Y-55894143D01*
X210834143Y-56073748D01*
X210820000Y-56059605D01*
X210805858Y-56073748D01*
X210626253Y-55894143D01*
X210640395Y-55880000D01*
X209827298Y-55066903D01*
X209583329Y-55138486D01*
X209462429Y-55393996D01*
X209393700Y-55668184D01*
X209379783Y-55950512D01*
X209421213Y-56230130D01*
X209516397Y-56496292D01*
X209527466Y-56517000D01*
X207109378Y-56517000D01*
X207199853Y-56298574D01*
X207255000Y-56021335D01*
X207255000Y-55738665D01*
X207199853Y-55461426D01*
X207091680Y-55200273D01*
X206934637Y-54965241D01*
X206856694Y-54887298D01*
X210006903Y-54887298D01*
X210820000Y-55700395D01*
X211633097Y-54887298D01*
X211561514Y-54643329D01*
X211306004Y-54522429D01*
X211031816Y-54453700D01*
X210749488Y-54439783D01*
X210469870Y-54481213D01*
X210203708Y-54576397D01*
X210078486Y-54643329D01*
X210006903Y-54887298D01*
X206856694Y-54887298D01*
X206734759Y-54765363D01*
X206499727Y-54608320D01*
X206238574Y-54500147D01*
X205961335Y-54445000D01*
X205678665Y-54445000D01*
X205401426Y-54500147D01*
X205140273Y-54608320D01*
X204905241Y-54765363D01*
X204705363Y-54965241D01*
X204548320Y-55200273D01*
X204440147Y-55461426D01*
X204385000Y-55738665D01*
X204385000Y-56021335D01*
X204440147Y-56298574D01*
X204530622Y-56517000D01*
X200425622Y-56517000D01*
X200388299Y-56513324D01*
X200350976Y-56517000D01*
X200350967Y-56517000D01*
X200239314Y-56527997D01*
X200096053Y-56571454D01*
X199964023Y-56642026D01*
X199916411Y-56681101D01*
X199848299Y-56736999D01*
X199824501Y-56765997D01*
X199162370Y-57428128D01*
X199139608Y-57400392D01*
X198921101Y-57221068D01*
X198788142Y-57150000D01*
X198921101Y-57078932D01*
X199139608Y-56899608D01*
X199318932Y-56681101D01*
X199452182Y-56431808D01*
X199534236Y-56161309D01*
X199561943Y-55880000D01*
X199534236Y-55598691D01*
X199452182Y-55328192D01*
X199318932Y-55078899D01*
X199139608Y-54860392D01*
X198921101Y-54681068D01*
X198783318Y-54607421D01*
X198975131Y-54492385D01*
X199183519Y-54303414D01*
X199351037Y-54077420D01*
X199471246Y-53823087D01*
X199511904Y-53689039D01*
X199389915Y-53467000D01*
X198247000Y-53467000D01*
X198247000Y-53487000D01*
X197993000Y-53487000D01*
X197993000Y-53467000D01*
X197973000Y-53467000D01*
X197973000Y-53213000D01*
X197993000Y-53213000D01*
X197993000Y-53193000D01*
X198247000Y-53193000D01*
X198247000Y-53213000D01*
X199389915Y-53213000D01*
X199511904Y-52990961D01*
X199471246Y-52856913D01*
X199458526Y-52830000D01*
X206581178Y-52830000D01*
X206618500Y-52833676D01*
X206655822Y-52830000D01*
X206655833Y-52830000D01*
X206767486Y-52819003D01*
X206910747Y-52775546D01*
X207042776Y-52704974D01*
X207158501Y-52610001D01*
X207182304Y-52580997D01*
X209400934Y-50362368D01*
X209356487Y-50508889D01*
X209356487Y-50508889D01*
G37*
X209356487Y-50508889D02*
X209327815Y-50800000D01*
X209356487Y-51091111D01*
X209441401Y-51371034D01*
X209579294Y-51629014D01*
X209764866Y-51855134D01*
X209990986Y-52040706D01*
X210248966Y-52178599D01*
X210528889Y-52263513D01*
X210747050Y-52285000D01*
X210892950Y-52285000D01*
X211111111Y-52263513D01*
X211391034Y-52178599D01*
X211649014Y-52040706D01*
X211875134Y-51855134D01*
X212055793Y-51635000D01*
X214812070Y-51635000D01*
X214865363Y-51714759D01*
X215065000Y-51914396D01*
X215065001Y-54445375D01*
X214975518Y-54454188D01*
X214855820Y-54490498D01*
X214745506Y-54549463D01*
X214648815Y-54628815D01*
X214569463Y-54725506D01*
X214510498Y-54835820D01*
X214474188Y-54955518D01*
X214461928Y-55080000D01*
X214461928Y-56517000D01*
X212106124Y-56517000D01*
X212177571Y-56366004D01*
X212246300Y-56091816D01*
X212260217Y-55809488D01*
X212218787Y-55529870D01*
X212123603Y-55263708D01*
X212056671Y-55138486D01*
X211812702Y-55066903D01*
X210999605Y-55880000D01*
X211013748Y-55894143D01*
X210834143Y-56073748D01*
X210820000Y-56059605D01*
X210805858Y-56073748D01*
X210626253Y-55894143D01*
X210640395Y-55880000D01*
X209827298Y-55066903D01*
X209583329Y-55138486D01*
X209462429Y-55393996D01*
X209393700Y-55668184D01*
X209379783Y-55950512D01*
X209421213Y-56230130D01*
X209516397Y-56496292D01*
X209527466Y-56517000D01*
X207109378Y-56517000D01*
X207199853Y-56298574D01*
X207255000Y-56021335D01*
X207255000Y-55738665D01*
X207199853Y-55461426D01*
X207091680Y-55200273D01*
X206934637Y-54965241D01*
X206856694Y-54887298D01*
X210006903Y-54887298D01*
X210820000Y-55700395D01*
X211633097Y-54887298D01*
X211561514Y-54643329D01*
X211306004Y-54522429D01*
X211031816Y-54453700D01*
X210749488Y-54439783D01*
X210469870Y-54481213D01*
X210203708Y-54576397D01*
X210078486Y-54643329D01*
X210006903Y-54887298D01*
X206856694Y-54887298D01*
X206734759Y-54765363D01*
X206499727Y-54608320D01*
X206238574Y-54500147D01*
X205961335Y-54445000D01*
X205678665Y-54445000D01*
X205401426Y-54500147D01*
X205140273Y-54608320D01*
X204905241Y-54765363D01*
X204705363Y-54965241D01*
X204548320Y-55200273D01*
X204440147Y-55461426D01*
X204385000Y-55738665D01*
X204385000Y-56021335D01*
X204440147Y-56298574D01*
X204530622Y-56517000D01*
X200425622Y-56517000D01*
X200388299Y-56513324D01*
X200350976Y-56517000D01*
X200350967Y-56517000D01*
X200239314Y-56527997D01*
X200096053Y-56571454D01*
X199964023Y-56642026D01*
X199916411Y-56681101D01*
X199848299Y-56736999D01*
X199824501Y-56765997D01*
X199162370Y-57428128D01*
X199139608Y-57400392D01*
X198921101Y-57221068D01*
X198788142Y-57150000D01*
X198921101Y-57078932D01*
X199139608Y-56899608D01*
X199318932Y-56681101D01*
X199452182Y-56431808D01*
X199534236Y-56161309D01*
X199561943Y-55880000D01*
X199534236Y-55598691D01*
X199452182Y-55328192D01*
X199318932Y-55078899D01*
X199139608Y-54860392D01*
X198921101Y-54681068D01*
X198783318Y-54607421D01*
X198975131Y-54492385D01*
X199183519Y-54303414D01*
X199351037Y-54077420D01*
X199471246Y-53823087D01*
X199511904Y-53689039D01*
X199389915Y-53467000D01*
X198247000Y-53467000D01*
X198247000Y-53487000D01*
X197993000Y-53487000D01*
X197993000Y-53467000D01*
X197973000Y-53467000D01*
X197973000Y-53213000D01*
X197993000Y-53213000D01*
X197993000Y-53193000D01*
X198247000Y-53193000D01*
X198247000Y-53213000D01*
X199389915Y-53213000D01*
X199511904Y-52990961D01*
X199471246Y-52856913D01*
X199458526Y-52830000D01*
X206581178Y-52830000D01*
X206618500Y-52833676D01*
X206655822Y-52830000D01*
X206655833Y-52830000D01*
X206767486Y-52819003D01*
X206910747Y-52775546D01*
X207042776Y-52704974D01*
X207158501Y-52610001D01*
X207182304Y-52580997D01*
X209400934Y-50362368D01*
X209356487Y-50508889D01*
G36*
X257653700Y-37888184D02*
G01*
X257639783Y-38170512D01*
X257681213Y-38450130D01*
X257776397Y-38716292D01*
X257843329Y-38841514D01*
X258087298Y-38913097D01*
X258900395Y-38100000D01*
X258886253Y-38085858D01*
X259065858Y-37906253D01*
X259080000Y-37920395D01*
X259094143Y-37906253D01*
X259273748Y-38085858D01*
X259259605Y-38100000D01*
X260072702Y-38913097D01*
X260316671Y-38841514D01*
X260437571Y-38586004D01*
X260448641Y-38541842D01*
X263725494Y-41818696D01*
X263546119Y-41882930D01*
X263304869Y-42027615D01*
X263096481Y-42216586D01*
X262928963Y-42442580D01*
X262808754Y-42696913D01*
X262768096Y-42830961D01*
X262890085Y-43053000D01*
X264033000Y-43053000D01*
X264033000Y-43033000D01*
X264287000Y-43033000D01*
X264287000Y-43053000D01*
X264307000Y-43053000D01*
X264307000Y-43307000D01*
X264287000Y-43307000D01*
X264287000Y-43327000D01*
X264033000Y-43327000D01*
X264033000Y-43307000D01*
X262890085Y-43307000D01*
X262768096Y-43529039D01*
X262808754Y-43663087D01*
X262884005Y-43822300D01*
X257978072Y-43822300D01*
X257978072Y-42380000D01*
X257965812Y-42255518D01*
X257929502Y-42135820D01*
X257870537Y-42025506D01*
X257791185Y-41928815D01*
X257694494Y-41849463D01*
X257584180Y-41790498D01*
X257464482Y-41754188D01*
X257340000Y-41741928D01*
X255740000Y-41741928D01*
X255615518Y-41754188D01*
X255495820Y-41790498D01*
X255385506Y-41849463D01*
X255288815Y-41928815D01*
X255209463Y-42025506D01*
X255150498Y-42135820D01*
X255114188Y-42255518D01*
X255101928Y-42380000D01*
X255101928Y-43822300D01*
X254302402Y-43822300D01*
X253149104Y-42669003D01*
X253125301Y-42639999D01*
X253009576Y-42545026D01*
X252877547Y-42474454D01*
X252734286Y-42430997D01*
X252684139Y-42426058D01*
X252658932Y-42378899D01*
X252479608Y-42160392D01*
X252261101Y-41981068D01*
X252128142Y-41910000D01*
X252261101Y-41838932D01*
X252479608Y-41659608D01*
X252658932Y-41441101D01*
X252684139Y-41393942D01*
X252734286Y-41389003D01*
X252877547Y-41345546D01*
X253009576Y-41274974D01*
X253125301Y-41180001D01*
X253149104Y-41150997D01*
X255207399Y-39092702D01*
X258266903Y-39092702D01*
X258338486Y-39336671D01*
X258593996Y-39457571D01*
X258868184Y-39526300D01*
X259150512Y-39540217D01*
X259430130Y-39498787D01*
X259696292Y-39403603D01*
X259821514Y-39336671D01*
X259893097Y-39092702D01*
X259080000Y-38279605D01*
X258266903Y-39092702D01*
X255207399Y-39092702D01*
X256669502Y-37630600D01*
X257718267Y-37630600D01*
X257653700Y-37888184D01*
X257653700Y-37888184D01*
G37*
X257653700Y-37888184D02*
X257639783Y-38170512D01*
X257681213Y-38450130D01*
X257776397Y-38716292D01*
X257843329Y-38841514D01*
X258087298Y-38913097D01*
X258900395Y-38100000D01*
X258886253Y-38085858D01*
X259065858Y-37906253D01*
X259080000Y-37920395D01*
X259094143Y-37906253D01*
X259273748Y-38085858D01*
X259259605Y-38100000D01*
X260072702Y-38913097D01*
X260316671Y-38841514D01*
X260437571Y-38586004D01*
X260448641Y-38541842D01*
X263725494Y-41818696D01*
X263546119Y-41882930D01*
X263304869Y-42027615D01*
X263096481Y-42216586D01*
X262928963Y-42442580D01*
X262808754Y-42696913D01*
X262768096Y-42830961D01*
X262890085Y-43053000D01*
X264033000Y-43053000D01*
X264033000Y-43033000D01*
X264287000Y-43033000D01*
X264287000Y-43053000D01*
X264307000Y-43053000D01*
X264307000Y-43307000D01*
X264287000Y-43307000D01*
X264287000Y-43327000D01*
X264033000Y-43327000D01*
X264033000Y-43307000D01*
X262890085Y-43307000D01*
X262768096Y-43529039D01*
X262808754Y-43663087D01*
X262884005Y-43822300D01*
X257978072Y-43822300D01*
X257978072Y-42380000D01*
X257965812Y-42255518D01*
X257929502Y-42135820D01*
X257870537Y-42025506D01*
X257791185Y-41928815D01*
X257694494Y-41849463D01*
X257584180Y-41790498D01*
X257464482Y-41754188D01*
X257340000Y-41741928D01*
X255740000Y-41741928D01*
X255615518Y-41754188D01*
X255495820Y-41790498D01*
X255385506Y-41849463D01*
X255288815Y-41928815D01*
X255209463Y-42025506D01*
X255150498Y-42135820D01*
X255114188Y-42255518D01*
X255101928Y-42380000D01*
X255101928Y-43822300D01*
X254302402Y-43822300D01*
X253149104Y-42669003D01*
X253125301Y-42639999D01*
X253009576Y-42545026D01*
X252877547Y-42474454D01*
X252734286Y-42430997D01*
X252684139Y-42426058D01*
X252658932Y-42378899D01*
X252479608Y-42160392D01*
X252261101Y-41981068D01*
X252128142Y-41910000D01*
X252261101Y-41838932D01*
X252479608Y-41659608D01*
X252658932Y-41441101D01*
X252684139Y-41393942D01*
X252734286Y-41389003D01*
X252877547Y-41345546D01*
X253009576Y-41274974D01*
X253125301Y-41180001D01*
X253149104Y-41150997D01*
X255207399Y-39092702D01*
X258266903Y-39092702D01*
X258338486Y-39336671D01*
X258593996Y-39457571D01*
X258868184Y-39526300D01*
X259150512Y-39540217D01*
X259430130Y-39498787D01*
X259696292Y-39403603D01*
X259821514Y-39336671D01*
X259893097Y-39092702D01*
X259080000Y-38279605D01*
X258266903Y-39092702D01*
X255207399Y-39092702D01*
X256669502Y-37630600D01*
X257718267Y-37630600D01*
X257653700Y-37888184D01*
M02*
